<?xml version="1.0" encoding="UTF-8" standalone="no"?>
<svg
   xmlns:dc="http://purl.org/dc/elements/1.1/"
   xmlns:cc="http://creativecommons.org/ns#"
   xmlns:rdf="http://www.w3.org/1999/02/22-rdf-syntax-ns#"
   xmlns:svg="http://www.w3.org/2000/svg"
   xmlns="http://www.w3.org/2000/svg"
   xmlns:sodipodi="http://sodipodi.sourceforge.net/DTD/sodipodi-0.dtd"
   xmlns:inkscape="http://www.inkscape.org/namespaces/inkscape"
   viewBox="0 0 95.000002 94.999998"
   height="95"
   width="95"
   xml:space="preserve"
   id="svg2"
   version="1.1"
   sodipodi:docname="Hydra-head.svg"
   inkscape:version="0.92.3 (2405546, 2018-03-11)"><sodipodi:namedview
     pagecolor="#ffffff"
     bordercolor="#666666"
     borderopacity="1"
     objecttolerance="10"
     gridtolerance="10"
     guidetolerance="10"
     inkscape:pageopacity="0"
     inkscape:pageshadow="2"
     inkscape:window-width="1920"
     inkscape:window-height="1141"
     id="namedview365"
     showgrid="false"
     inkscape:zoom="2.2232831"
     inkscape:cx="-55.382669"
     inkscape:cy="57.718397"
     inkscape:window-x="0"
     inkscape:window-y="0"
     inkscape:window-maximized="1"
     inkscape:current-layer="svg2"
     fit-margin-top="0"
     fit-margin-left="0"
     fit-margin-right="0"
     fit-margin-bottom="0" /><metadata
     id="metadata8"><rdf:RDF><cc:Work
         rdf:about=""><dc:format>image/svg+xml</dc:format><dc:type
           rdf:resource="http://purl.org/dc/dcmitype/StillImage" /><dc:title></dc:title></cc:Work></rdf:RDF></metadata><defs
     id="defs6"><clipPath
       id="clipPath18"
       clipPathUnits="userSpaceOnUse"><path
         id="path16"
         d="M 0,252.757 H 379.169 V 0 H 0 Z"
         inkscape:connector-curvature="0" /></clipPath><clipPath
       id="clipPath26"
       clipPathUnits="userSpaceOnUse"><path
         id="path24"
         d="M 90.658,39.8346 H 281.096 V 12.8987 H 90.658 Z"
         inkscape:connector-curvature="0" /></clipPath><clipPath
       id="clipPath42"
       clipPathUnits="userSpaceOnUse"><path
         id="path40"
         d="M 0,252.757 H 379.169 V 0 H 0 Z"
         inkscape:connector-curvature="0" /></clipPath><clipPath
       id="clipPath58"
       clipPathUnits="userSpaceOnUse"><path
         id="path56"
         d="M 0,252.757 H 379.169 V 0 H 0 Z"
         inkscape:connector-curvature="0" /></clipPath><clipPath
       id="clipPath82"
       clipPathUnits="userSpaceOnUse"><path
         id="path80"
         d="m 234.234,57.0268 h 2.159 v -3.7669 h -2.159 z"
         inkscape:connector-curvature="0" /></clipPath><clipPath
       id="clipPath98"
       clipPathUnits="userSpaceOnUse"><path
         id="path96"
         d="m 231.828,60.8905 h 1.847 v -2.8234 h -1.847 z"
         inkscape:connector-curvature="0" /></clipPath><clipPath
       id="clipPath114"
       clipPathUnits="userSpaceOnUse"><path
         id="path112"
         d="m 232.647,50.9617 h 1.851 v -2.8209 h -1.851 z"
         inkscape:connector-curvature="0" /></clipPath><clipPath
       id="clipPath130"
       clipPathUnits="userSpaceOnUse"><path
         id="path128"
         d="M 0,252.757 H 379.169 V 0 H 0 Z"
         inkscape:connector-curvature="0" /></clipPath><clipPath
       id="clipPath162"
       clipPathUnits="userSpaceOnUse"><path
         id="path160"
         d="M 0,252.757 H 379.169 V 0 H 0 Z"
         inkscape:connector-curvature="0" /></clipPath><clipPath
       id="clipPath346"
       clipPathUnits="userSpaceOnUse"><path
         id="path344"
         d="M 0,252.757 H 379.169 V 0 H 0 Z"
         inkscape:connector-curvature="0" /></clipPath><clipPath
       id="clipPath354"
       clipPathUnits="userSpaceOnUse"><path
         id="path352"
         d="m 144.017,161.6 h 2.159 v -3.766 h -2.159 z"
         inkscape:connector-curvature="0" /></clipPath><clipPath
       id="clipPath370"
       clipPathUnits="userSpaceOnUse"><path
         id="path368"
         d="m 148.038,153.037 h 2.159 v -3.767 h -2.159 z"
         inkscape:connector-curvature="0" /></clipPath><clipPath
       id="clipPath386"
       clipPathUnits="userSpaceOnUse"><path
         id="path384"
         d="m 129.917,210.792 h 3.768 v -2.157 h -3.768 z"
         inkscape:connector-curvature="0" /></clipPath><clipPath
       id="clipPath402"
       clipPathUnits="userSpaceOnUse"><path
         id="path400"
         d="m 126.569,209.477 h 1.845 v -1.143 h -1.845 z"
         inkscape:connector-curvature="0" /></clipPath><clipPath
       id="clipPath418"
       clipPathUnits="userSpaceOnUse"><path
         id="path416"
         d="m 135.645,210.252 h 1.885 v -1.077 h -1.885 z"
         inkscape:connector-curvature="0" /></clipPath><clipPath
       id="clipPath434"
       clipPathUnits="userSpaceOnUse"><path
         id="path432"
         d="m 180.8,228.788 h 3.77 v -2.153 h -3.77 z"
         inkscape:connector-curvature="0" /></clipPath><clipPath
       id="clipPath450"
       clipPathUnits="userSpaceOnUse"><path
         id="path448"
         d="m 177.997,227.048 h 1.856 v -1.127 h -1.856 z"
         inkscape:connector-curvature="0" /></clipPath><clipPath
       id="clipPath466"
       clipPathUnits="userSpaceOnUse"><path
         id="path464"
         d="m 186.527,228.079 h 1.884 V 227 h -1.884 z"
         inkscape:connector-curvature="0" /></clipPath><clipPath
       id="clipPath482"
       clipPathUnits="userSpaceOnUse"><path
         id="path480"
         d="m 253.034,214.451 h 3.727 v -2.229 h -3.727 z"
         inkscape:connector-curvature="0" /></clipPath><clipPath
       id="clipPath498"
       clipPathUnits="userSpaceOnUse"><path
         id="path496"
         d="m 249.575,214.058 h 1.884 v -1.077 h -1.884 z"
         inkscape:connector-curvature="0" /></clipPath><clipPath
       id="clipPath514"
       clipPathUnits="userSpaceOnUse"><path
         id="path512"
         d="m 258.637,212.827 h 1.85 v -1.137 h -1.85 z"
         inkscape:connector-curvature="0" /></clipPath><clipPath
       id="clipPath530"
       clipPathUnits="userSpaceOnUse"><path
         id="path528"
         d="m 145.92,146.033 h 2.159 v -3.767 h -2.159 z"
         inkscape:connector-curvature="0" /></clipPath><clipPath
       id="clipPath546"
       clipPathUnits="userSpaceOnUse"><path
         id="path544"
         d="m 151.36,138.342 h 1.225 v -2.137 h -1.225 z"
         inkscape:connector-curvature="0" /></clipPath><clipPath
       id="clipPath562"
       clipPathUnits="userSpaceOnUse"><path
         id="path560"
         d="m 176.335,179.356 h 2.277 v -3.697 h -2.277 z"
         inkscape:connector-curvature="0" /></clipPath><clipPath
       id="clipPath578"
       clipPathUnits="userSpaceOnUse"><path
         id="path576"
         d="m 176.163,169.906 h 2.251 v -3.713 h -2.251 z"
         inkscape:connector-curvature="0" /></clipPath><clipPath
       id="clipPath594"
       clipPathUnits="userSpaceOnUse"><path
         id="path592"
         d="m 180.881,164.305 h 2.258 v -3.709 h -2.258 z"
         inkscape:connector-curvature="0" /></clipPath><clipPath
       id="clipPath610"
       clipPathUnits="userSpaceOnUse"><path
         id="path608"
         d="m 179.635,155.201 h 1.266 v -2.113 h -1.266 z"
         inkscape:connector-curvature="0" /></clipPath><clipPath
       id="clipPath626"
       clipPathUnits="userSpaceOnUse"><path
         id="path624"
         d="m 238.415,172.744 h 2.156 v -3.769 h -2.156 z"
         inkscape:connector-curvature="0" /></clipPath><clipPath
       id="clipPath642"
       clipPathUnits="userSpaceOnUse"><path
         id="path640"
         d="m 235.664,163.207 h 2.161 v -3.766 h -2.161 z"
         inkscape:connector-curvature="0" /></clipPath><clipPath
       id="clipPath658"
       clipPathUnits="userSpaceOnUse"><path
         id="path656"
         d="m 238.766,156.58 h 2.16 v -3.766 h -2.16 z"
         inkscape:connector-curvature="0" /></clipPath><clipPath
       id="clipPath674"
       clipPathUnits="userSpaceOnUse"><path
         id="path672"
         d="m 235.297,148.245 h 1.23 v -2.134 h -1.23 z"
         inkscape:connector-curvature="0" /></clipPath><clipPath
       id="clipPath690"
       clipPathUnits="userSpaceOnUse"><path
         id="path688"
         d="m 142.15,56.3991 h 2.159 v -3.7669 h -2.159 z"
         inkscape:connector-curvature="0" /></clipPath><clipPath
       id="clipPath706"
       clipPathUnits="userSpaceOnUse"><path
         id="path704"
         d="m 144.609,60.053 h 2.367 v -2.4038 h -2.367 z"
         inkscape:connector-curvature="0" /></clipPath><clipPath
       id="clipPath722"
       clipPathUnits="userSpaceOnUse"><path
         id="path720"
         d="m 143.215,50.9617 h 1.852 v -2.8209 h -1.852 z"
         inkscape:connector-curvature="0" /></clipPath><clipPath
       id="clipPath418-3"
       clipPathUnits="userSpaceOnUse"><path
         inkscape:connector-curvature="0"
         id="path416-6"
         d="m 135.645,210.252 h 1.885 v -1.077 h -1.885 z" /></clipPath><clipPath
       id="clipPath402-7"
       clipPathUnits="userSpaceOnUse"><path
         inkscape:connector-curvature="0"
         id="path400-5"
         d="m 126.569,209.477 h 1.845 v -1.143 h -1.845 z" /></clipPath><clipPath
       id="clipPath386-3"
       clipPathUnits="userSpaceOnUse"><path
         inkscape:connector-curvature="0"
         id="path384-5"
         d="m 129.917,210.792 h 3.768 v -2.157 h -3.768 z" /></clipPath><clipPath
       id="clipPath354-6"
       clipPathUnits="userSpaceOnUse"><path
         inkscape:connector-curvature="0"
         id="path352-2"
         d="m 144.017,161.6 h 2.159 v -3.766 h -2.159 z" /></clipPath></defs><g
     id="g1239"
     transform="matrix(-1,0,0,1,92.527786,0)"><path
       id="path1489"
       d="m 37.724041,2.403025 c -0.43667,-0.0283 -0.8801,0.0795 -1.27344,0.32617 l -0.30664,0.18555 c -5.82664,3.77333 -8.18575,11.20089 -5.73242,17.57422 0.0147,0.0533 0.001,0.0925 -0.0391,0.11914 -0.0133,0.0133 -0.0414,0.0277 -0.0547,0.041 0.0133,0.04 0.0277,0.0655 0.041,0.10547 -3.62667,3.16 -5.80073,6.64133 -6.41406,10.36133 -0.82667,5.04 -3.50688,9.55875 -7.54688,12.71875 -11.0666601,8.62668 -14.7193501,18.69398 -10.3046801,28.33398 1.62533,3.54667 4.4108801,6.64037 7.8242201,8.70704 4.28,2.57333 8.73365,3.86523 13.32031,3.86523 1.77333,0 3.55971,-0.19928 5.37304,-0.58594 0.30667,-0.0667 0.60154,-0.1329 0.90821,-0.21289 0.30667,-0.08 0.6002,-0.16024 0.9082,-0.24023 1.43867,4.879976 4.31711,8.133266 8.03711,8.919916 0.58666,0.11997 1.1731,0.1875 1.75977,0.1875 0.58666,0 1.16104,-0.0675 1.73437,-0.1875 0.21333,-0.04 0.43901,-0.0934 0.65234,-0.16016 h 0.0137 c 0.28,-0.08 0.54779,-0.17232 0.81446,-0.26562 0.21333,-0.08 0.425,-0.16061 0.625,-0.25391 1.41333,-0.66666 2.78836,-1.63992 4.06836,-2.91992 0.0534,-0.04 0.11978,-0.04 0.14648,0 l 0.24023,-0.24022 c -0.31287,2.09497 -0.69979,4.16447 -1.11523,6.21679 h 36.660154 c -0.64237,-1.50672 -2.72767,-2.34418 -5.17187,-2.05664 -0.0534,0 -0.10742,-0.0404 -0.10743,-0.0937 -0.10666,-0.64 -0.18562,-1.29231 -0.26562,-1.95898 0,-0.0534 0.0268,-0.0941 0.0801,-0.10742 0.16133,-0.04 0.31851,-0.10713 0.47851,-0.17383 0.74667,-0.28 1.37352,-0.73365 1.85352,-1.32031 0.0133,-0.0267 0.0277,-0.0397 0.041,-0.0664 0.56001,-0.72 0.82573,-1.585776 0.73243,-2.425776 -0.0933,-0.88 -0.5473,-1.69297 -1.2793,-2.29297 -0.36133,-0.29334 -0.77288,-0.52002 -1.21289,-0.69336 -0.0133,-0.0133 -0.0414,-0.0137 -0.0547,-0.0137 -0.13333,-0.04 -0.26545,-0.0944 -0.41211,-0.1211 -0.04,-0.0133 -0.0932,-0.0258 -0.14648,-0.0391 -0.08,-0.0266 -0.17288,-0.0394 -0.26758,-0.0527 -0.17333,-0.04 -0.34653,-0.0551 -0.5332,-0.0684 -0.0533,0 -0.0937,-0.0385 -0.0937,-0.0918 -0.8,-7.98667 -1.33302,-16.70788 -1.67969,-26.58789 l 0.17383,-0.0937 -0.34766,-12.39844 c -0.0133,-6.73334 -0.2399,-13.22828 -2.22656,-18.98828 -0.0134,-0.04 3.2e-4,-0.0655 0.0137,-0.10547 4.22667,-5.57333 4.97278,-13.3207 1.43945,-19.7207 -0.22667,-0.4 -0.46507,-0.78683 -0.70507,-1.16016 -0.57333,-0.89333 -1.61331,-1.49364 -2.66797,-1.32031 h -0.0254 c -0.0267,0 -0.0551,0.014 -0.0684,0.0273 -1.12,0.22667 -1.9067,1.12057 -2,2.25391 -0.28,3.38666 -1.57336,6.53274 -3.69336,9.05273 l -0.0117,0.0137 c -0.04,0.04 -0.10779,0.0537 -0.14649,0.0137 -0.66666,-0.46667 -1.3734,-0.88091 -2.08007,-1.26758 -5.160004,-2.8 -10.774193,-3.0793 -15.880864,-2.2793 -1.06667,0.17334 -2.10581,0.3873 -3.11914,0.64063 -0.48,0.12 -0.94741,0.23971 -1.41406,0.37305 -2.70668,0.77333 -5.13374,1.75968 -7.09375,2.67968 -0.13333,0.0533 -0.25339,0.10716 -0.38672,0.17383 -0.0533,0.0267 -0.11951,-9.9e-4 -0.13281,-0.0547 -1.09333,-2.96 -1.10666,-6.21195 0,-9.25195 0.33334,-0.92 0.0666,-1.91987 -0.69336,-2.5332 -0.36666,-0.29334 -0.79771,-0.458 -1.23438,-0.48633 z"
       style="fill:#6ca6c0;fill-opacity:1;fill-rule:nonzero;stroke:none;stroke-width:1.33333325"
       inkscape:connector-curvature="0" /><path
       id="path1491"
       d="m 64.804121,62.393255 c -0.13333,1.46133 -0.25964,2.92219 -0.43164,4.38086 -0.24667,2.08133 -0.594203,4.16946 -1.158204,6.18946 -0.57733,2.072 -1.385152,4.09677 -2.007812,6.16211 -1.244,4.12533 -2.289043,8.36578 -3.095703,12.564446 -0.211277,1.09965 -0.396693,2.20407 -0.582031,3.30859 h 8.65625 c 0.0079,-3.00832 0.03768,-6.0163 0.08008,-9.017576 0.0613,-4.30533 0.157653,-8.61263 0.126953,-12.91796 -0.012,-1.65867 -0.04011,-3.31861 -0.134766,-4.97461 -0.0467,-0.79066 -0.10025,-1.58053 -0.15625,-2.36719 -0.0453,-0.65734 -0.1815,-1.29753 -0.4375,-1.9082 -0.12,-0.284 -0.879375,-1.19327 -0.859375,-1.41993 z"
       style="fill:#cbcbcb;fill-opacity:1;fill-rule:nonzero;stroke:none;stroke-width:1.33333325"
       inkscape:connector-curvature="0" /><g
       style="fill:#ffffff"
       transform="matrix(1.3333333,0,0,-1.3333333,38.772051,12.701335)"
       id="g1495"><path
         id="path1493"
         style="fill:#ffffff;fill-opacity:1;fill-rule:nonzero;stroke:none"
         d="M 0,0 C -0.09,1.62 -0.81,3.22 -0.57,4.83 -0.51,5.2 -0.12,5.98 -0.18,6.36 -0.22,6.63 -0.63,6.94 -0.91,7.01 -1.21,7.08 -1.47,6.48 -1.71,6.32 -3.27,5.29 -4.49,3.78 -5.34,2.12 -5.623,1.565 -5.86,0.992 -6.07,0.409 c 0.197,-0.123 0.338,-0.339 0.339,-0.573 0,-0.933 0.008,-1.867 -0.204,-2.783 -0.003,-0.014 -0.014,-0.024 -0.018,-0.037 v -1.041 c 0,-0.155 0,-0.312 -0.002,-0.469 0.027,-0.025 0.052,-0.053 0.08,-0.077 0.222,-0.16 0.453,-0.305 0.663,-0.483 0.017,-0.014 0.032,-0.031 0.049,-0.046 1.329,0.401 2.68,0.83 3.803,1.65 0.38,0.28 0.74,0.61 1.04,0.99 C 0.27,-1.72 0.06,-0.94 0,0"
         inkscape:connector-curvature="0" /></g><g
       style="fill:#ffffff"
       transform="matrix(1.3799307,0,0,-1.3333333,79.547325,15.179865)"
       id="g1499"><path
         id="path1497"
         style="fill:#ffffff;fill-opacity:1;fill-rule:nonzero;stroke:none"
         d="m 0,0 c -0.056,-1.537 -0.3,-3.084 -0.656,-4.622 -0.256,-1.124 -0.567,-2.238 -0.923,-3.342 -0.634,-0.598 -1.49,-0.928 -2.413,-0.98 -1.257,-0.072 -2.636,0.351 -3.77,1.259 -1.613,1.3 -2.236,3.208 -1.668,4.735 0.133,0.392 0.355,0.753 0.656,1.083 0.044,0.052 0.1,0.103 0.155,0.144 0.289,0.217 0.623,0.423 0.934,0.63 0.501,0.34 0.968,0.691 1.18,1.093 1.011,1.929 2.635,3.507 3.314,5.571 0.155,0.485 0.211,1.619 0.478,2.042 0.189,0.32 0.778,0.495 1.101,0.444 0.344,-0.062 0.244,-0.908 0.4,-1.217 C -0.245,4.838 0.1,2.424 0,0"
         inkscape:connector-curvature="0" /></g><g
       transform="matrix(1.3333333,0,0,-1.3333333,77.207655,25.143335)"
       id="g1503"><path
         inkscape:connector-curvature="0"
         id="path1501"
         style="fill:#ffffff;fill-opacity:1;fill-rule:nonzero;stroke:none"
         d="m 0,0 c 0,-0.01 -0.01,-0.02 -0.01,-0.03 -0.15,-0.5 -0.34,-1.05 -0.73,-1.31 -0.29,-0.19 -0.63,-0.17 -0.9,-0.03 -0.2,0.1 -0.37,0.25 -0.53,0.42 0.83,0.05 1.6,0.37 2.17,0.95" /></g><g
       transform="matrix(1.3333333,0,0,-1.3333333,55.223251,35.112135)"
       id="g1507"><path
         inkscape:connector-curvature="0"
         id="path1505"
         style="fill:#ffffff;fill-opacity:1;fill-rule:nonzero;stroke:none"
         d="m 0,0 c -0.004,-0.681 -0.06,-1.345 -0.167,-1.971 -0.477,-2.939 -2.043,-5.164 -3.95,-5.465 -0.158,-0.038 -0.307,-0.056 -0.467,-0.054 -2.544,-0.003 -4.612,3.343 -4.618,7.469 -0.006,4.135 2.041,7.487 4.584,7.5 C -2.075,7.482 -0.017,4.135 0,0" /></g><g
       transform="matrix(1.3333333,0,0,-1.3333333,49.110581,44.432395)"
       id="g1511"><path
         inkscape:connector-curvature="0"
         id="path1509"
         style="fill:#006577;fill-opacity:1;fill-rule:nonzero;stroke:none"
         d="M 0,0 C 0.121,0.004 0.23,0.011 0.351,0.041 2.056,0.311 3.476,2.34 3.924,5.099 4.026,5.696 4.08,6.332 4.084,6.991 4.068,10.84 2.223,13.969 -0.03,13.969 H -0.033 C -2.29,13.957 -4.123,10.817 -4.117,6.97 -4.111,3.19 -2.228,0 -0.003,0 Z m 0.024,-1 c -0.011,0 -0.028,0.002 -0.033,0 -2.807,0 -5.101,3.573 -5.108,7.968 -0.007,4.472 2.225,7.986 5.081,8.001 h 0.004 c 2.853,0 5.098,-3.502 5.116,-7.977 V 6.987 C 5.08,6.272 5.021,5.582 4.91,4.935 4.394,1.752 2.64,-0.61 0.546,-0.939 0.389,-0.979 0.212,-1 0.024,-1" /></g><g
       transform="matrix(1.3333333,0,0,-1.3333333,39.951121,33.559335)"
       id="g1515"><path
         inkscape:connector-curvature="0"
         id="path1513"
         style="fill:#ffffff;fill-opacity:1;fill-rule:nonzero;stroke:none"
         d="m 0,0 c 0.001,-0.358 -0.015,-0.708 -0.059,-1.042 -0.246,-2.624 -1.472,-4.722 -3.039,-5.32 -0.291,-0.111 -0.593,-0.171 -0.899,-0.169 -2.218,-0.003 -4.021,2.915 -4.026,6.521 -0.006,3.597 1.779,6.528 3.997,6.531 C -1.809,6.524 -0.005,3.606 0,0" /></g><g
       transform="matrix(1.3333333,0,0,-1.3333333,34.621651,41.601735)"
       id="g1519"><path
         inkscape:connector-curvature="0"
         id="path1517"
         style="fill:#006577;fill-opacity:1;fill-rule:nonzero;stroke:none"
         d="M 0,0 C 0.251,0.047 0.481,0.045 0.721,0.137 2.123,0.672 3.215,2.641 3.44,5.036 3.481,5.346 3.499,5.665 3.498,6.029 V 6.03 C 3.492,9.296 1.879,12.053 -0.025,12.053 H -0.028 C -0.919,12.052 -1.774,11.455 -2.435,10.374 -3.141,9.218 -3.529,7.673 -3.526,6.022 -3.521,2.757 -1.907,0 -0.001,0 Z m 0.008,-1 h -0.012 c -2.529,0 -4.516,3.083 -4.522,7.021 -0.003,1.833 0.437,3.563 1.238,4.875 0.85,1.389 2.006,2.155 3.259,2.157 h 0.004 c 2.53,0 4.516,-3.082 4.523,-7.02 C 4.499,5.624 4.479,5.261 4.434,4.924 4.172,2.133 2.854,-0.12 1.078,-0.797 0.726,-0.932 0.366,-1 0.008,-1" /></g><g
       transform="matrix(1.3333333,0,0,-1.3333333,39.872981,34.948665)"
       id="g1523"><path
         inkscape:connector-curvature="0"
         id="path1521"
         style="fill:#006577;fill-opacity:1;fill-rule:nonzero;stroke:none"
         d="m 0,0 c -0.247,-2.624 -1.473,-4.722 -3.039,-5.32 -0.68,0.646 -1.127,1.836 -1.137,3.197 -0.003,2.061 1.027,3.73 2.284,3.735 C -1.106,1.61 -0.409,0.974 0,0" /></g><g
       transform="matrix(1.3333333,0,0,-1.3333333,55.000581,37.740395)"
       id="g1527"><path
         inkscape:connector-curvature="0"
         id="path1525"
         style="fill:#006577;fill-opacity:1;fill-rule:nonzero;stroke:none"
         d="m 0,0 c -0.477,-2.939 -2.043,-5.164 -3.95,-5.464 -0.561,0.781 -0.933,1.953 -0.931,3.256 -0.004,2.362 1.167,4.276 2.619,4.282 C -1.301,2.075 -0.456,1.248 0,0" /></g><g
       transform="matrix(1.3333333,0,0,-1.3333333,13.828051,59.703205)"
       id="g1531"><path
         inkscape:connector-curvature="0"
         id="path1529"
         style="fill:#006577;fill-opacity:1;fill-rule:nonzero;stroke:none"
         d="m 0,0 c 0.791,-0.166 1.225,-1.289 0.969,-2.509 -0.255,-1.22 -1.103,-2.075 -1.894,-1.91 -0.79,0.165 -1.224,1.289 -0.969,2.509 C -1.639,-0.69 -0.791,0.165 0,0" /></g><g
       transform="matrix(1.3333333,0,0,-1.3333333,13.567651,60.343875)"
       id="g1535"><path
         inkscape:connector-curvature="0"
         id="path1533"
         style="fill:#006577;fill-opacity:1;fill-rule:nonzero;stroke:none"
         d="m 0,0 c -0.438,0 -1.011,-0.587 -1.209,-1.532 -0.103,-0.49 -0.077,-0.989 0.069,-1.367 0.07,-0.18 0.229,-0.491 0.513,-0.55 0.284,-0.058 0.555,0.161 0.69,0.298 0.287,0.289 0.51,0.735 0.612,1.224 0.212,1.014 -0.137,1.824 -0.582,1.918 C 0.062,-0.003 0.032,0 0,0 m -0.534,-4.459 c -0.1,0 -0.199,0.011 -0.298,0.031 -0.545,0.114 -0.998,0.539 -1.24,1.168 -0.218,0.563 -0.259,1.249 -0.116,1.933 0.317,1.513 1.408,2.524 2.485,2.297 H 0.298 C 1.375,0.744 1.971,-0.619 1.654,-2.132 1.511,-2.815 1.198,-3.428 0.773,-3.855 0.385,-4.248 -0.079,-4.459 -0.534,-4.459" /></g><g
       transform="matrix(1.3333333,0,0,-1.3333333,21.110581,62.845875)"
       id="g1539"><path
         inkscape:connector-curvature="0"
         id="path1537"
         style="fill:#006577;fill-opacity:1;fill-rule:nonzero;stroke:none"
         d="M 0,0 C 1.113,-0.282 1.66,-1.911 1.223,-3.639 0.786,-5.367 -0.471,-6.54 -1.583,-6.258 -2.696,-5.977 -3.244,-4.347 -2.807,-2.619 -2.37,-0.891 -1.113,0.282 0,0" /></g><g
       transform="matrix(1.3333333,0,0,-1.3333333,20.658181,63.457205)"
       id="g1543"><path
         inkscape:connector-curvature="0"
         id="path1541"
         style="fill:#006577;fill-opacity:1;fill-rule:nonzero;stroke:none"
         d="m 0,0 c -0.411,0 -0.778,-0.278 -0.976,-0.463 -0.461,-0.43 -0.818,-1.077 -1.006,-1.821 -0.363,-1.433 0.031,-2.82 0.861,-3.031 0.83,-0.206 1.836,0.825 2.199,2.257 0.188,0.744 0.181,1.483 -0.019,2.08 -0.102,0.301 -0.346,0.826 -0.842,0.952 H 0.216 C 0.144,-0.008 0.071,0 0,0 m -0.902,-6.343 c -0.155,0 -0.31,0.02 -0.465,0.059 -1.401,0.355 -2.097,2.22 -1.585,4.246 0.235,0.928 0.694,1.747 1.294,2.306 C -1,0.883 -0.247,1.123 0.462,0.942 1.171,0.764 1.719,0.194 2.006,-0.659 2.268,-1.437 2.282,-2.375 2.047,-3.304 1.591,-5.106 0.353,-6.343 -0.902,-6.343" /></g><g
       transform="matrix(1.3333333,0,0,-1.3333333,53.488851,52.344535)"
       id="g1547"><path
         inkscape:connector-curvature="0"
         id="path1545"
         style="fill:#006577;fill-opacity:1;fill-rule:nonzero;stroke:none"
         d="m 0,0 c 0,-0.382 -0.31,-0.692 -0.691,-0.692 -0.383,0 -0.692,0.31 -0.692,0.692 0,0.382 0.309,0.692 0.692,0.692 C -0.31,0.692 0,0.382 0,0" /></g><g
       transform="matrix(1.3333333,0,0,-1.3333333,59.835925,53.780135)"
       id="g1551"><path
         inkscape:connector-curvature="0"
         id="path1549"
         style="fill:#006577;fill-opacity:1;fill-rule:nonzero;stroke:none"
         d="m 0,0 c 0,-0.595 -0.482,-1.077 -1.077,-1.077 -0.594,0 -1.076,0.482 -1.076,1.077 0,0.595 0.482,1.077 1.076,1.077 C -0.482,1.077 0,0.595 0,0" /></g><g
       transform="matrix(1.3333333,0,0,-1.3333333,54.994721,57.831475)"
       id="g1555"><path
         inkscape:connector-curvature="0"
         id="path1553"
         style="fill:#006577;fill-opacity:1;fill-rule:nonzero;stroke:none"
         d="m 0,0 c 0,-0.594 -0.482,-1.076 -1.076,-1.076 -0.595,0 -1.077,0.482 -1.077,1.076 0,0.595 0.482,1.077 1.077,1.077 C -0.482,1.077 0,0.595 0,0" /></g><path
       id="path1557"
       d="m 37.927171,2.018255 c -0.50666,-0.0333 -1.02161,0.0903 -1.48828,0.37696 l -0.3086,0.19922 c -4.89334,3.17333 -7.37209,8.88073 -6.71875,14.41406 0.10666,0.89333 0.29388,1.77234 0.56055,2.65234 h 0.0117 c 0.0933,0.33334 0.20065,0.653 0.33398,0.98633 0.0133,0.04 0.0277,0.0674 0.041,0.10742 -3.62665,3.16 -5.80073,6.63938 -6.41406,10.35938 -0.82667,5.04 -3.50688,9.5607 -7.54688,12.7207 -11.0666601,8.62666 -14.7199801,18.69398 -10.3066401,28.33398 1.62666,3.54667 4.4128501,6.63842 7.8261801,8.70508 4.28,2.57333 8.73365,3.86719 13.32031,3.86719 1.77334,0 3.55971,-0.1993 5.37305,-0.58594 0.30666,-0.0667 0.59959,-0.13289 0.90625,-0.21289 0.30667,-0.08 0.60153,-0.16023 0.9082,-0.24023 1.44,4.879996 4.31906,8.133246 8.03906,8.919916 0.58667,0.12 1.1731,0.18555 1.75977,0.18555 0.58667,0 1.16104,-0.0656 1.73437,-0.18555 0.21333,-0.04 0.43902,-0.0934 0.65235,-0.16016 h 0.0137 c 0.28,-0.08 0.54583,-0.17425 0.8125,-0.26758 0.21333,-0.08 0.42695,-0.15861 0.62695,-0.25195 1.46666,-0.62666 2.88151,-1.61326 4.21484,-2.91992 l 0.23828,-0.24023 c -0.31342,2.09497 -0.70026,4.16447 -1.11523,6.21679 h 2.06445 c 0.21641,-1.04287 0.43639,-2.08444 0.625,-3.13672 0.25334,-1.33334 0.41389,-2.68067 0.56055,-4.027336 0.10667,-0.90667 0.26542,-1.89369 0.71875,-2.70703 0.53334,-0.97333 1.17396,-1.90625 1.640625,-2.90625 0.48,-1.02667 0.986123,-2.02641 1.439453,-3.06641 0.44,-1.02667 0.86792,-2.06742 1.28125,-3.10742 0.45334,-1.13333 0.986875,-2.28046 1.546875,-3.48047 1.36,-2.93333 2.758466,-5.97255 3.091796,-9.19922 0.493341,0.16 0.879815,0.43924 1.146485,0.89258 0.45333,0.76 0.520205,1.7608 0.546875,2.80078 0.13333,3.33335 -0.185518,6.70599 -0.492188,9.97266 -0.17333,1.82667 -0.346465,3.70789 -0.453125,5.58789 -0.223769,4.19318 -0.33231,8.341706 -0.333984,12.376946 h 2.001955 c 0.002,-3.99983 0.11016,-8.106546 0.33398,-12.271476 0.0933,-1.84 0.26613,-3.70586 0.43946,-5.50586 0.32,-3.33334 0.63919,-6.77323 0.50586,-10.22656 -0.04,-1.25333 -0.13285,-2.57275 -0.82618,-3.7461 -0.54667,-0.94665 -1.426872,-1.61487 -2.546872,-1.9082 -1.85333,-0.48 -3.893408,0.17386 -5.080078,0.86719 -2.18666,1.28 -3.813307,3.36056 -5.306637,5.2539 -1.78668,2.29333 -3.96018,4.28027 -5.85352,5.9336 -4.17333,3.62667 -8.22578,6.14703 -12.42578,7.70703 -0.41333,0.14666 -0.82656,0.27878 -1.22656,0.41211 -6.92,2.21333 -13.59985,1.41429 -19.83985,-2.34571 -3.08,-1.86666 -5.5880101,-4.63984 -7.0546801,-7.83984 -5.38667,-11.76 3.7873701,-21.29326 9.7207001,-25.91992 4.44,-3.46667 7.38631,-8.42794 8.29297,-13.97461 0.57334,-3.42666 2.69331,-6.67867 6.30664,-9.63867 0.0133,-0.0133 0.0143,-0.0414 0.041,-0.0547 2.09333,-1.72 4.73317,-3.37292 7.83984,-4.90625 l 0.11914,-0.0664 c 0.0133,0 0.0258,-3.1e-4 0.0391,-0.0137 0.08,-0.0267 0.14683,-0.0668 0.16016,-0.0801 5.86666,-2.85333 17.105174,-6.90617 26.478518,-1.82617 0.58666,0.30667 1.1483,0.66573 1.68164,1.03906 -0.61334,0.56 -1.25428,1.08055 -1.960941,1.56055 -0.45334,0.30666 -0.585967,0.92005 -0.279297,1.38672 0.306658,0.45333 0.933388,0.57264 1.386718,0.2793 1.08,-0.72 2.05359,-1.54613 2.93359,-2.43946 0.12,-0.0667 0.22664,-0.14562 0.30664,-0.26562 0.04,-0.04 0.053,-0.0814 0.0664,-0.13477 2.72,-2.94667 4.41275,-6.71984 4.74609,-10.83984 0.0267,-0.32 0.2804,-0.42646 0.4004,-0.45313 0.0933,-0.0267 0.36021,-0.0655 0.54687,0.20118 0.26667,0.41334 0.53344,0.82562 0.77344,1.26562 3.21333,5.82666 2.45219,12.86686 -1.50781,17.85352 l -0.0391,0.0391 c -0.88,1.10667 -1.92075,2.10795 -3.10742,2.97461 -0.45333,0.32 -0.54656,0.94672 -0.22656,1.38672 0.2,0.28 0.50778,0.41211 0.81445,0.41211 0.2,0 0.39927,-0.0522 0.58594,-0.18555 0.80001,-0.58667 1.54656,-1.23992 2.22656,-1.91992 -0.0933,0.08 0.41313,1.52037 0.45313,1.70703 0.14666,0.6 0.28039,1.21283 0.40039,1.82617 0.22666,1.25333 0.39987,2.52044 0.5332,3.78711 0.22667,2.28 0.31938,4.58558 0.35938,6.87891 0.0533,2.61334 0.268,5.21445 0.36132,7.81445 0.0933,2.28 0.18631,4.55984 0.29297,6.83984 0.21334,4.78667 0.46644,9.57238 0.75977,14.34571 0.29334,4.76 0.63973,9.53459 1.0664,14.28125 0.31083,3.51557 0.67625,7.018416 1.09766,10.509756 h 6.68555 c -0.31353,-0.77048 -1.0002,-1.39005 -1.9961,-1.77734 -0.85336,-0.33334 -1.88059,-0.43938 -2.94726,-0.35938 -0.08,-0.73334 -0.16025,-1.50723 -0.24024,-2.2539 -0.0133,-0.0267 -0.0137,-0.0397 -0.0137,-0.0664 0.77333,-0.29334 1.44155,-0.74698 1.9082,-1.32031 0.61334,-0.69334 0.91951,-1.560116 0.82618,-2.466796 -0.10667,-1 -0.66756,-1.88047 -1.57422,-2.48047 -0.30667,-0.2 -0.65367,-0.36012 -1.01367,-0.46679 -0.0133,-0.0133 -0.0394,-0.0117 -0.0527,-0.0117 -0.13333,-0.04 -0.26545,-0.0944 -0.41211,-0.1211 -0.04,-0.0133 -0.0951,-0.0258 -0.14844,-0.0391 -0.0533,0 -0.11887,-0.0139 -0.18554,-0.0273 -0.0267,0 -0.0534,-0.0139 -0.0801,-0.0274 -0.52,-0.37334 -0.42773,-3.5066 -0.42773,-3.91992 -0.22667,-10.86667 -1.11927,-21.7326 -1.58594,-32.58594 -0.25333,-5.76 -0.15997,-11.58757 -1.30664,-17.26757 -0.30666,-1.54666 -0.70657,-3.06527 -1.22657,-4.5586 4.25334,-5.58667 5.01347,-13.33505 1.4668,-19.76172 -0.26666,-0.49333 -0.56053,-0.97245 -0.86719,-1.42578 -0.6,-0.88 -1.65302,-1.28034 -2.67968,-1.01367 h -0.0274 c -0.0267,0 -0.053,0.014 -0.0664,0.0273 -1.01333,0.29333 -1.7325,1.14589 -1.8125,2.19922 -0.28,3.44 -1.64078,6.61349 -3.80078,9.16016 -0.0267,-0.0133 -0.0534,-0.0394 -0.0801,-0.0527 -0.66667,-0.47999 -1.34641,-0.90629 -2.06641,-1.29296 -5.226659,-2.84 -10.919403,-3.0799 -16.052738,-2.22657 -1.06667,0.16 -2.10776,0.38535 -3.12109,0.63868 -0.48,0.12 -0.94545,0.2397 -1.41211,0.37304 -2.70669,0.8 -5.13341,1.78703 -7.08008,2.70703 0,-0.0133 -2.9e-4,-0.012 -0.0137,-0.0254 -1.09334,-2.90667 -1.12076,-6.09503 -0.0273,-9.06836 0.38667,-1.05333 0.0815,-2.19958 -0.78515,-2.90625 -0.42665,-0.34 -0.92497,-0.52917 -1.43164,-0.5625 z m -0.15625,1.99024 c 0.13333,0 0.25364,0.0795 0.32031,0.13281 0.0667,0.0533 0.30714,0.29269 0.17383,0.66602 -1.28002,3.49333 -1.2412,7.24095 0.10547,10.65429 -2.42667,1.25333 -4.56003,2.57232 -6.38672,3.95899 -1.89331,-5.56 0.22724,-11.89155 5.2539,-15.15821 l 0.25391,-0.16015 c 0.10666,-0.0667 0.1993,-0.0937 0.2793,-0.0937 z m 24.599606,59.26562 c -0.319999,2.88 -1.639589,5.70647 -2.90625,8.45313 -0.54667,1.17334 -1.119267,2.38789 -1.585937,3.58789 -1.146669,2.85333 -2.520049,6.13205 -4.386719,9.02539 -0.22666,0.34666 -0.46736,0.69435 -0.7207,1.04101 -0.76,1.02666 -1.74565,2.18716 -2.95899,3.173826 -1.21333,0.98667 -2.62723,1.78547 -4.2539,2.10547 -0.88,0.18665 -1.78635,0.18666 -2.67969,0 -2.97333,-0.62667 -5.33355,-3.385256 -6.54688,-7.558586 0.13333,-0.04 0.25339,-0.0814 0.38672,-0.13477 1.2,-0.44 2.39927,-0.97226 3.58594,-1.57226 0.52,1.18667 1.29391,2.03953 2.25391,2.51953 0.53334,0.25333 1.09302,0.37305 1.67968,0.37305 0.56,0 1.14611,-0.11938 1.7461,-0.35938 2.36001,-0.94666 4.56052,-3.61315 5.86718,-7.14648 0.58667,-1.56 0.92068,-3.17438 1.02735,-4.73438 1.04,-1.04 2.09273,-2.17372 3.05273,-3.40039 1.386663,-1.78666 2.826693,-3.62541 4.693363,-4.71875 0.46666,-0.28 1.092763,-0.52097 1.746093,-0.6543 z"
       style="fill:#006577;fill-opacity:1;fill-rule:nonzero;stroke:none;stroke-width:1.33333325"
       inkscape:connector-curvature="0" /><g
       transform="matrix(1.3333333,0,0,-1.3333333,-122.28127,295.61747)"
       id="g1569"><g
         id="g1559" /><g
         id="g1567"><g
           style="opacity:0.38999903"
           id="g1565"
           clip-path="url(#clipPath354-6)"><g
             id="g1563"
             transform="translate(146.1719,159.7721)"><path
               id="path1561"
               style="fill:#006577;fill-opacity:1;fill-rule:nonzero;stroke:none"
               d="M 0,0 C 0.053,-1.04 -0.385,-1.907 -0.979,-1.937 -1.573,-1.968 -2.097,-1.15 -2.15,-0.11 -2.204,0.93 -1.765,1.797 -1.171,1.828 -0.578,1.858 -0.053,1.04 0,0"
               inkscape:connector-curvature="0" /></g></g></g></g><path
       id="path1573"
       d="m 76.413495,91.569031 c -0.792,0.0413 -1.37669,1.19671 -1.30469,2.58204 0.0153,0.3002 0.0641,0.58358 0.13282,0.84765 h 2.66796 c 0.0586,-0.30674 0.0843,-0.64166 0.0664,-0.99219 -0.0707,-1.38666 -0.77184,-2.4775 -1.5625,-2.4375 z"
       style="opacity:0.5;fill:#006577;fill-opacity:1;fill-rule:nonzero;stroke:none;stroke-width:1.33333325"
       inkscape:connector-curvature="0" /><g
       transform="matrix(1.3333333,0,0,-1.3333333,-122.28127,295.61747)"
       id="g1593"><g
         id="g1583" /><g
         id="g1591"><g
           style="opacity:0.38999903"
           id="g1589"
           clip-path="url(#clipPath386-3)"><g
             id="g1587"
             transform="translate(131.8437,208.6378)"><path
               id="path1585"
               style="fill:#006577;fill-opacity:1;fill-rule:nonzero;stroke:none"
               d="m 0,0 c -1.04,-0.042 -1.903,0.406 -1.926,1 -0.024,0.594 0.8,1.109 1.84,1.151 1.04,0.042 1.903,-0.406 1.926,-1 C 1.864,0.557 1.041,0.042 0,0"
               inkscape:connector-curvature="0" /></g></g></g></g><g
       transform="matrix(1.3333333,0,0,-1.3333333,-122.28127,295.61747)"
       id="g1605"><g
         id="g1595" /><g
         id="g1603"><g
           style="opacity:0.38999903"
           id="g1601"
           clip-path="url(#clipPath402-7)"><g
             id="g1599"
             transform="translate(127.6255,208.3839)"><path
               id="path1597"
               style="fill:#006577;fill-opacity:1;fill-rule:nonzero;stroke:none"
               d="M 0,0 C -0.504,-0.129 -0.973,-0.001 -1.047,0.287 -1.121,0.575 -0.772,0.913 -0.268,1.043 0.236,1.172 0.705,1.044 0.779,0.756 0.853,0.468 0.504,0.13 0,0"
               inkscape:connector-curvature="0" /></g></g></g></g><g
       transform="matrix(1.3333333,0,0,-1.3333333,-122.28127,295.61747)"
       id="g1617"><g
         id="g1607" /><g
         id="g1615"><g
           style="opacity:0.38999903"
           id="g1613"
           clip-path="url(#clipPath418-3)"><g
             id="g1611"
             transform="translate(136.582,209.1749)"><path
               id="path1609"
               style="fill:#006577;fill-opacity:1;fill-rule:nonzero;stroke:none"
               d="M 0,0 C -0.521,0.006 -0.94,0.251 -0.937,0.549 -0.934,0.846 -0.509,1.083 0.012,1.077 0.532,1.071 0.952,0.825 0.948,0.528 0.945,0.231 0.521,-0.005 0,0"
               inkscape:connector-curvature="0" /></g></g></g></g></g></svg>