<svg xmlns="http://www.w3.org/2000/svg" height="351.243" width="1223.198" xmlns:v="https://vecta.io/nano"><style><![CDATA[.B{fill:#006577}.C{opacity:.4}.D{fill:#fff}]]></style><defs><clipPath id="A"><path d="M0 252.757h379.17V0H0z"/></clipPath><clipPath id="B"><path d="M0 252.757h379.17V0H0z"/></clipPath><clipPath id="C"><path d="M234.234 57.027h2.16V53.26h-2.16z"/></clipPath><clipPath id="D"><path d="M231.828 60.89h1.847v-2.823h-1.847z"/></clipPath><clipPath id="E"><path d="M232.647 50.962h1.85v-2.82h-1.85z"/></clipPath><clipPath id="F"><path d="M0 252.757h379.17V0H0z"/></clipPath><clipPath id="G"><path d="M0 252.757h379.17V0H0z"/></clipPath><clipPath id="H"><path d="M0 252.757h379.17V0H0z"/></clipPath><clipPath id="I"><path d="M144.017 161.6h2.16v-3.766h-2.16z"/></clipPath><clipPath id="J"><path d="M148.038 153.037h2.16v-3.767h-2.16z"/></clipPath><clipPath id="K"><path d="M129.917 210.792h3.768v-2.157h-3.768z"/></clipPath><clipPath id="L"><path d="M126.57 209.477h1.845v-1.143h-1.845z"/></clipPath><clipPath id="M"><path d="M135.645 210.252h1.885v-1.077h-1.885z"/></clipPath><clipPath id="N"><path d="M180.8 228.788h3.77v-2.153h-3.77z"/></clipPath><clipPath id="O"><path d="M177.997 227.048h1.856v-1.127h-1.856z"/></clipPath><clipPath id="P"><path d="M186.527 228.08h1.884V227h-1.884z"/></clipPath><clipPath id="Q"><path d="M253.034 214.45h3.727v-2.23h-3.727z"/></clipPath><clipPath id="R"><path d="M249.575 214.058h1.884v-1.077h-1.884z"/></clipPath><clipPath id="S"><path d="M258.637 212.827h1.85V211.7h-1.85z"/></clipPath><clipPath id="T"><path d="M145.92 146.033h2.16v-3.767h-2.16z"/></clipPath><clipPath id="U"><path d="M151.36 138.342h1.225v-2.137h-1.225z"/></clipPath><clipPath id="V"><path d="M176.335 179.356h2.277v-3.697h-2.277z"/></clipPath><clipPath id="W"><path d="M176.163 169.906h2.25v-3.713h-2.25z"/></clipPath><clipPath id="X"><path d="M180.88 164.305h2.258v-3.71h-2.258z"/></clipPath><clipPath id="Y"><path d="M179.635 155.2h1.266v-2.113h-1.266z"/></clipPath><clipPath id="Z"><path d="M238.415 172.744h2.156v-3.77h-2.156z"/></clipPath><clipPath id="a"><path d="M235.664 163.207h2.16v-3.766h-2.16z"/></clipPath><clipPath id="b"><path d="M238.766 156.58h2.16v-3.766h-2.16z"/></clipPath><clipPath id="c"><path d="M235.297 148.245h1.23v-2.134h-1.23z"/></clipPath><clipPath id="d"><path d="M142.15 56.4h2.16v-3.767h-2.16z"/></clipPath><clipPath id="e"><path d="M144.61 60.053h2.367V57.65h-2.367z"/></clipPath><clipPath id="f"><path d="M143.215 50.962h1.852v-2.82h-1.852z"/></clipPath></defs><path d="M101.043 72.827V55.892l-49.18 1.27c-11.034 0-11.35 0-48.864-1.27v16.935l11.664 1.27C29.48 75.8 29.48 75.8 29.796 114.318v172.738c-.315 25.826-.63 32.6-2.837 35.564-1.892 2.54-4.73 3.8-12.295 4.657L3 328.547v16.935l48.864-1.27c11.35 0 22.383.423 49.18 1.27v-16.935l-11.664-1.27c-7.25-.847-10.088-1.694-11.98-4.234-2.522-3.387-2.837-9.314-3.153-35.987v-80.442c7.566-.423 13.87-.847 25.535-.847h46.027c11.35 0 17.97.423 25.535.847v80.442c-.315 25.826-.63 32.6-2.837 35.564-1.892 2.54-4.73 3.8-12.295 4.657l-11.664 1.27v16.935l48.864-1.27c11.034 0 22.383.423 49.18 1.27v-16.935l-11.664-1.27c-7.25-.847-10.088-1.694-11.98-4.234-2.522-2.964-2.837-9.314-3.153-35.987V114.318c.315-25.826.63-32.177 2.837-35.564 1.892-2.54 4.73-3.8 12.295-4.657l11.664-1.27V55.892l-49.18 1.27c-11.034 0-11.35 0-48.864-1.27v16.935l11.664 1.27c14.817 1.694 14.817 2.117 15.132 40.22v66.894c-6.936.423-12.295.847-25.535.847H99.782c-13.24 0-18.6-.423-25.535-.847v-66.894c.315-25.403.63-32.177 2.837-35.564 1.892-2.54 4.73-3.8 12.295-4.657z" fill="#e88444" stroke="#ac5015" stroke-width="6.377"/><g transform="matrix(1.608037 0 0 -1.608037 640.91989 385.859461)"><g clip-path="url(#A)" fill="#6ca6c0"><path d="M248 100.737v.01c.08.05.15.1 0-.01"/><path d="M360.26 106.807c.02-.06 0-.13-.07-.13-5.54.04-12.36-1.63-19.2-5.04-6-3-11.05-6.82-14.6-10.8-.03-.03-.06-.04-.1-.02-2.37 1.28-5.08 2.4-8.05 3.27-.14.04-.28.1-.42.13a52.01 52.01 0 0 1-5.75 1.31c-5.62.95-10.98.96-15.5.18-3.4-.58-6.33-1.6-8.54-3-.22-.13-.44-.28-.64-.42l-.15.1a43.27 43.27 0 0 1-4.72 2.41c-2.2.96-4.47 1.7-6.35 1.96-.02 0-.04.01-.06.01-.14.02-.3.03-.43.05-2.12.24-4.26.22-6.38.01-.24-.02-.5-.05-.75-.08-3.93-.47-7.8-1.59-11.47-3.01-5.37-2.08-12.87-5.27-15.8-10.52-1.84-3.3-3.37-6.18-5.1-9.54-1.44-2.78-2.05-5.22-4.22-7.5-.4-.43-.82-.83-1.24-1.24 2.04-1.08 4-2.32 5.74-3.82 1.44-1.23 2.23-3.02 2.56-4.98.05-.26.1-.53.12-.8.13-1.17.1-2.38-.03-3.57l-.1-.65c0-.02 0-.04-.01-.06-.03-.22-.07-.44-.11-.66-.1-.6-.25-1.18-.4-1.73-.01-.05-.02-.11-.04-.16-1.6-5.5-6.1-12.16-9.98-15.58 3.35 1.62 4.97-.51 4.97-.51 2.9-.4 3.42-1.28 5.06-.98 1.65.3 4.2 1.43 6.06-.1 1.45-1.22 2.33-1.66 3-2.43a1.11 1.11 0 0 0 .24-.47c.04-.2.03-.4-.03-.58a.97.97 0 0 0-.571-.6c-.38-.15-.9-.22-1.64-.08-2.23.4-4 .52-4.3.27h-.01c.5-.57.93-1.15 1.3-1.72.08-.13.12-.27.1-.4 0-.03 0-.06-.01-.08a.69.69 0 0 0-.52-.569c-.8-.22-2.03-.45-3.1-.16-1.3.33-2.9 1.52-3.96 1.82-.2.06-.4-.01-.55-.15-.13-.12-.2-.3-.2-.52.05-.43-.01-1.13-.5-2.16l-.3-.6-.08-.17c-.24-.52-.92-.63-1.33-.23-.44.45-1.06.93-1.87 1.27-.2.08-.36.18-.5.3l-.18.09h-.01c-1.45.69-10.87 4.92-16.42 1.94-.84-.45-1.32-.17-1.42.52a3.01 3.01 0 0 0-.02.319c0 .1.01.17.02.27.01.22.06.48.13.74.02.05.03.09.04.14.03.11.07.22.1.34.65 1.72 2.27 3.87 4.86 4.97.27.12.46.38.5.68a.56.56 0 0 1 .03.179c0 .02 0 .04-.01.06.01.02 0 .04-.01.05a.85.85 0 0 1-.09.379c-.56 1.1-1.1 2.88-1.56 4.93-.07.31-.14.63-.2.96l-.22 1.16-.2 1.18a25.22 25.22 0 0 0-.18 1.21l-.14 1.02c-.01.06-.02.12-.02.18l-.1.9c-.12 1.15-.2 2.27-.27 3.33l-.03.8c-.03.94-.02 1.8.02 2.55a8.47 8.47 0 0 0 .04.519l.03.27.03.3c.01.05.01.1.02.15.01.03.02.06.02.1-1.85-.74-3.73-1.38-5.56-2.17-.04-.01-.07-.02-.1-.03s-.08-.01-.12-.01c-.13 0-.26.03-.37.1a66.63 66.63 0 0 0-15.44-2.95c-1.5-.12-3.03-.17-4.54-.17l-1.68.02a57.84 57.84 0 0 0-5.63.39c-3.65.45-7.2 1.23-10.6 2.34a.51.51 0 0 0-.27-.09c-.03-.02-.07-.02-.1-.02-.08 0-.16.01-.24.04-1.47.5-2.9 1.05-4.3 1.67-.23.1-.46.2-.7.3.43-4.74-1.05-15.19-2.87-18.77-.26-.5-.05-1.14.42-1.35 5.27-2.22 6.5-8.8 3.73-7.3-6.04 3.23-16.62-2.02-16.62-2.02-.14-.14-.3-.24-.5-.32-.8-.33-1.43-.82-1.86-1.27-.4-.4-1.1-.3-1.34.24l-.36.76c-.5 1.03-.57 1.73-.52 2.16.05.42-.33.78-.74.67-1.06-.3-2.67-1.5-3.96-1.82-1.08-.3-2.32-.06-3.1.16-.47.12-.68.65-.42 1.07.35.57.78 1.14 1.3 1.7H138c-.3.26-2.1.14-4.32-.26-.73-.15-1.26-.08-1.63.07-.67.26-.83 1.1-.37 1.65.67.77 1.54 1.21 3 2.43 1.86 1.53 4.4.4 6.06.1 1.38-.24 1.96.33 3.82.76.26.06.53.11.78.15.05.02.1.02.16.03.1.01.2.03.29.04 0 0 1.4-.1 4.98.5-3.9 3.42-8.4 10.08-10 15.6-1.2 4.17-1.27 9.8 2 12.6 1.72 1.48 3.63 2.71 5.64 3.77-3.05 3-5.86 6.4-8.38 10.16l-12.31 8.8c-.01.01-.01.01-.03.02a58.5 58.5 0 0 1-12.88 4.62c-3.93.9-7.96 1.53-11.98 1.01-1.9-.24-4.18-1-6.42-1.97-1.67-.73-3.3-1.58-4.7-2.4l-.15-.1a11.06 11.06 0 0 1-.64.42c-2.2 1.4-5.14 2.42-8.54 3-4.52.78-9.88.77-15.5-.18-2-.34-3.92-.78-5.75-1.3-.14-.04-.28-.09-.42-.13-2.97-.88-5.68-2-8.06-3.27-.03-.02-.07-.01-.1.02-3.55 3.98-8.6 7.8-14.6 10.8-6.83 3.4-13.65 5.08-19.2 5.04-.06 0-.1.07-.06.13l4.3 6.61 15.6 23.97c.02.02.03.03.04.05l.37.57.06.1c.06 0 .13-.01.2-.01.01 0 .02-.01.03-.01.1 0 .2-.01.33-.02l1.9-.15c.04 0 .08-.04.08-.08l.03-1.6c-.16.08-.32.16-.47.25 3.14-2.77 7.28-4.45 11.2-5.68 2.03-.64 4.13-1.2 6.28-1.65 9.55-2.06 20.13-2.42 30.26-.99 8.18 1.14 22.36 5.93 22.52 5.93 1.13-6.62 4.2-11.89 7-17.6.01-.04.03-.08.06-.13l.63-1.34a.37.37 0 0 1 .05-.11 56.96 56.96 0 0 0 1.17-2.65c2.38-5.74 8.84-13.07 13.54-17.59-.4 1-.64 3.89-1.02 4.93-.1.3-3.16 8.16-4.7 16.68-1.34 7.36-1.86 15.17-2.03 18.63v.01c.2 2.75.63 6.45 1.06 8.67.5 2.5 1.08 5.02 1.65 7.45.86 3.6 1.71 7.33 2.28 11.14l-.18-.18c-.02.03-.07.03-.1 0-.96-.96-2-1.7-3.05-2.2-.15-.07-.3-.13-.47-.2-.2-.07-.4-.14-.6-.2h-.01a4.37 4.37 0 0 0-.49-.12 6.31 6.31 0 0 0-1.3-.14 6.58 6.58 0 0 0-1.32.14c-2.8.6-4.95 3.03-6.03 6.7l-.68-.18c-.23-.06-.45-.1-.68-.16a19.27 19.27 0 0 0-4.03-.44c-3.44 0-6.78.97-10 2.9-2.56 1.55-4.65 3.87-5.87 6.53-3.31 7.23-.57 14.78 7.73 21.25 3.03 2.37 5.04 5.76 5.66 9.54.46 2.8 2.1 5.4 4.8 7.77-.01.03-.02.05-.03.08.01.01.03.02.04.03.03.02.04.05.03.1-1.84 4.78-.07 10.35 4.3 13.18l.23.14a1.61 1.61 0 0 0 1.88-.12c.57-.46.77-1.2.52-1.9-.83-2.28-.82-4.72 0-6.94.01-.04.06-.06.1-.04a3.69 3.69 0 0 0 .29.13c1.47.7 3.3 1.43 5.32 2 .35.1.7.2 1.06.28.76.2 1.54.35 2.34.48 3.83.6 8.04.4 11.9-1.7.53-.3 1.06-.6 1.56-.95.03-.03.08-.02.11.01l.01.01c1.6 1.9 2.56 4.25 2.77 6.8a1.85 1.85 0 0 0 1.5 1.69c.01.01.03.02.05.02h.02c.79.13 1.57-.32 2-1a18.26 18.26 0 0 0 .53-.87c2.65-4.8 2.1-10.6-1.08-14.8-.01-.03-.02-.05-.01-.08 1.5-4.32 1.66-9.2 1.67-14.24l.26-9.3-.13-.07c.26-7.4.66-13.95 1.26-19.94 0-.04.03-.07.07-.07.14-.01.27-.02.4-.05a1.16 1.16 0 0 0 .2-.04 1.64 1.64 0 0 0 .11-.03c.1-.02.2-.06.3-.1.01 0 .03 0 .04-.01.33-.13.64-.3.91-.52.55-.45.89-1.06.96-1.72.07-.63-.13-1.28-.55-1.82-.01-.02-.02-.03-.03-.05-.36-.44-.83-.78-1.4-1-.12-.05-.24-.1-.36-.13-.04-.01-.06-.04-.06-.08.06-.5.12-1 .2-1.47 0-.04.04-.07.08-.07 2.04.24 3.76-.56 4-1.94a2.07 2.07 0 0 0 .03-.35c0-1.13-1.03-2.22-2.6-2.77-.05-.02-.1-.03-.14-.05l-.3-.1-.24-.06c-.04-.01-.07-.05-.06-.1a46.52 46.52 0 0 1 .201-1.3c.01-.04.05-.07.1-.06.07.01.15.03.22.04 2.05.34 3.92.1 5.02-.65.56-.38.91-.9 1-1.46.25-1.6-1.55-3.35-4.26-4.3-.17-.06-.35-.12-.53-.17l-.2-.06c-.04-.01-.07-.05-.06-.1l.3-1.32c2.18.5 4.2.3 5.34-.46.54-.37.86-.87.94-1.44.01-.08.01-.16.01-.24 0-1.6-1.94-3.34-4.75-4.26.1-.43.22-.86.34-1.28 1.94.4 3.67-.2 4.08-1.5.05-.18.08-.36.08-.54 0-.35-.1-.72-.28-1.08-.43-.8-1.3-1.5-2.36-1.93-.04-.02-.06-.06-.05-.1.83-2.78 1.82-5.54 3.24-8.07 2.54-4.58 5.7-7.83 9.35-9.66 1.23-.6 3.11-1.28 5.09-.95a5.12 5.12 0 0 1 2.01.78l.06.03c1.14.67 1.98 1.76 2.38 3.12.9 3.1.1 6.4-.7 9.58l-.62 2.65c-1.85 8.9-3.6 18.1-5.32 27.84-.34-.05-.67-.1-.98-.1-1.64 0-2.95.72-3.2 1.9-.25 1.2.7 2.45 2.28 3.13.1.04.19.07.29.1a5.41 5.41 0 0 0 .43.14c.1.03.18.05.27.07l-.2 1.27c-.1-.01-.2-.02-.28-.02-.01.01-.01.02-.01.03-.33-.03-.65-.04-.96-.04-.7 0-1.33.05-1.93.15a9.18 9.18 0 0 0-.61.14c-.15.04-.3.1-.44.13l-1.76 4.06c.05.06.1.12.17.2.08.08.16.15.24.23.01.01.02.02.04.03.92.78 2.34 1.4 4.06 1.74.04.01.07.04.06.08.1.02.2.04.3.06l-.22 1.33-.27-.03c-.01.01-.01.03-.01.04-.45-.05-.9-.08-1.32-.08s-.85.02-1.25.07c-.1.02-.22.03-.32.05-.16.02-.33.06-.48.1a4.26 4.26 0 0 0-.42.11c-.08.02-.15.04-.23.07-.18.06-.36.13-.52.2-1.07.48-1.72 1.2-1.83 2.05-.14.97.48 1.94 1.6 2.72.07.06.15.1.23.15.93.57 2.14 1 3.47 1.24.04.01.06.04.07.08.1.02.18.04.28.05l-.2 1.4a9.75 9.75 0 0 0-.53-.02c-1.13 0-2.2.23-3.05.68-1.1.56-1.72 1.4-1.8 2.34-.11 1.6 1.4 3 3.6 3.53l.43.1c.16.03.32.06.48.08l-.18 1.6h-.1c-1.98 0-3.6 1.03-3.87 2.57-.3 1.64 1.03 3.28 3.04 3.92.13-.03.3-.08.35-.08-.01.03-.08.06-.22.1.03.01.05.02.08.03l-.9 9.93c-.02.14-.1.97-.25 2.26l-.06 6.3c-.52 4.5 0 8.97.48 13.05 0 .02-.76.22-.78.24-2.3 2.1-4.03 4.86-4.63 7.82-.27 2.07-.05 4.23.74 6.3.14.38.3.74.47 1.1.12.24.28.44.47.6 0 0 .01.01.02.01.32.2.71.28 1.1.23.78-.1 1.4-.65 1.58-1.42.53-2.36 1.75-4.43 3.5-6 .03-.03.08-.03.1 0 .06.06.12.1.18.16l.05-.05a14.22 14.22 0 0 0 1.39 1.17c.2.14.38.27.57.4.13.1.27.18.4.26 6.3 3.77 14.1 2.25 18.6.85.04-.02.1.01.1.06.08.38.14.76.16 1.14l.03.32a9.56 9.56 0 0 1-1.11 5c-.16.3-.22.6-.2.9a1.55 1.55 0 0 0 .42.98c.46.5 1.17.65 1.8.38.1-.05.14-.07.2-.1 4.6-2.15 6.97-7.06 5.87-11.87-.01-.04.01-.07.04-.1 3-1.9 4.92-4.2 5.74-6.82a14.38 14.38 0 0 1 6.6-8.22c8.7-5.02 12.3-11.8 10.12-19.07-.8-2.68-2.46-5.15-4.7-6.96a20.71 20.71 0 0 0-1.73-1.27c-.02-.01-.04-.03-.07-.04-2.92-1.84-6.1-2.76-9.5-2.76a18.64 18.64 0 0 0-2.66.2l-.03-.2c-.05.01-.1.01-.14.02-.04.01-.08-.02-.08-.06-.46-2.88-1.68-5.1-3.48-6.33-.05-.04-.1-.08-.16-.1a5.83 5.83 0 0 0-.91-.43 6.25 6.25 0 0 0-2.09-.36c-.13 0-.27 0-.4.01-1.14.07-2.2.4-3.16.88.03-.1.07-.22.1-.34-.01 0-.01.01-.02.01-.06.03-.13-.02-.1-.1 1.9-6.46 4.09-13.84 6.59-21 .05-.18.05-.37-.03-.54-.01-.02-.01-.04 0-.06l1.2-2.94 2.64-6.35 4.94-12.63 2.55-6.32c1.19-3.39 2.24-6.8 3.1-10.2l.02-.12a8.03 8.03 0 0 0 .14-.53l.3.44.03-.12c4.13 6.37 7.4 12.45 9.96 18.47-.63.32-1.17.72-1.57 1.2-.62.74-.84 1.54-.6 2.26.2.64.73 1.12 1.5 1.37.08.03.16.06.25.07.63.15 1.37.15 2.14-.02.03-.01.06 0 .08.03.04 0 .1-.01.13-.02l.54 1.57c-3.31 1.14-5.37 3.22-4.86 5 .07.24.18.45.33.65a1.06 1.06 0 0 0 .1.12c.06.05.1.1.17.16.7.6 1.88.92 3.3.92.62 0 2.38-.45 3.08-.58.37.26-.18.56.2.8.08.32.3 1.05.4 1.38 0 .04-.36.22-.4.23-1.3.37-2.4 1.23-3.26 1.9-1.12.9-1.08 1.32-.87 2.27.37 1.72 2.68 2.23 5.86 1.74.08.42.2 1.3.3 1.74-1.5.42-2.55 1.3-3.2 2.3-.43.66-.68 1.05-.54 1.7.14.66.35.86 1 1.3.94.62 2.26 1 3.7.85.05 0 .42.26.43.3.1.65.15 1.53.24 2.18.01.02-.19.02-.35.01 0 .02.01.03.01.05-2 .48-3.34 1.9-3.2 3.5.13 1.72 1.96 2.98 4.18 3 .6 4.44 1.17 9 1.64 13.63 0 .02.01.04.01.06.2 2.94 1.18 16.6 2.8 21.5-3.2 4.15-3.64 9.96-.82 14.62a11.61 11.61 0 0 0 .67 1 1.79 1.79 0 0 0 .65.55.3.3 0 0 0 .1.04c.3.1.62.15.94.08a1.83 1.83 0 0 0 1.48-1.73c.1-2.4.93-4.68 2.36-6.54.03-.03.07-.04.1-.02.02.01.05.03.07.04a11.54 11.54 0 0 0 1.46.81 14.74 14.74 0 0 0 1.91.78c.3.1.6.2.9.27a12.13 12.13 0 0 0 1.67.36 7.69 7.69 0 0 0 .67.09c5.7.64 11.27-1.6 14.67-3.4.05-.02.1 0 .1.04a9.46 9.46 0 0 1 .24 6.53c-.2.68.02 1.4.6 1.82.54.4 1.26.42 1.83.03l.18-.12c4.05-2.87 5.55-8.24 3.64-12.73-.01-.03-.01-.06.02-.1 2.6-2.38 4.1-4.98 4.42-7.73a14.45 14.45 0 0 1 5.03-9.27c7.66-6.5 9.98-13.8 6.55-20.57-1.28-2.5-3.36-4.63-5.86-6-1.17-.64-2.37-1.16-3.6-1.55a18.78 18.78 0 0 0-1.23-.34c-.24-.05-.48-.1-.72-.15-.7-.14-1.4-.23-2.1-.27-.44-.04-.87-.06-1.3-.06-1.9 0-3.77.3-5.66.9h-.01c-.04.01-.08-.01-.1-.05-1.1-3.2-3.07-5.3-5.5-5.92-.12-.04-.23-.06-.35-.08h-.01c-.04-.01-.09-.02-.13-.03a5.86 5.86 0 0 0-1.02-.09 5.69 5.69 0 0 0-1.49.19c-1.64.4-2.7 1.34-3.92 2.3-.2.16-.38.32-.58.47.08-4.27 1.3-16.55-.43-31.24l-5.8-28.88c-.01-.01-.02-.01-.03-.02.01 0 .02 0 .03.01-.13-.39 5.4 5.51 9.57 10.8 5.02 6.36 9.4 23.68 9.47 23.68 6.86-3.57 14.78-5.9 23-7.05 10.13-1.43 20.7-1.07 30.26 1 2.15.46 4.25 1 6.28 1.65 3.9 1.23 13.44 6.53 13.5 6.53.12-.2 7.5-9.97 10.86-15.12l5.42-8.43c1.44-2.2 3.08-4.75 3.88-6.98"/></g><g clip-path="url(#B)"><g fill="#cbcbcb"><path d="M224.27 85.746c-.716-1.812-.993-3.678-.085-5.34 1.507-2.76 5.644-3.038 8.3-1.355s4.155 4.664 5.426 7.54c4.525 10.232 7.772 21.02 9.712 32.038a142.15 142.15 0 0 1 1.876 33.601c-.27 4.254-.825 8.473-1.335 12.694-.35 2.88-1 5.7-1.658 8.53l-.502 2.167c-.118.52-.14 1.585-.498 2-.934 1.058-1.008-.73-1.02-1.275l-.125-4.68c-.37-12.465-1.07-24.95-3.017-37.282l-.24-1.477c-1.88-11.3-4.862-22.47-9.516-32.955-1.083-2.44-2.293-4.822-3.558-7.173-1.247-2.316-2.794-4.575-3.76-7.025m-57.216-.904c.127-5.402-3.08-9.813-7.505-11.895a2.21 2.21 0 0 0-.636-.2c-.12-.075-.24-.13-.36-.186-3.14-1.375-6.842-.065-9.5 2.427s-4.476 6-6.038 9.526c-5.773 12.946-8.986 27.318-9.6 41.73-.283 6.7-.024 13.447.836 20.1a108.8 108.8 0 0 0 1.056 6.593 94.75 94.75 0 0 0 2.322 9.424c.467 1.55 1.072 3.068 1.505 4.622.423 1.515.684 3.08.87 4.64.13 1.094.224 2.2.324 3.286-.015-.17.555-.85.645-1.064a4.48 4.48 0 0 0 .327-1.432l.117-1.775a74.86 74.86 0 0 0 .1-3.73c.023-3.23-.048-6.46-.094-9.688-.098-6.938-.2-13.92.476-20.835 1.038-10.517 6.078-27.022 11.675-35.5 1.825-2.76 3.417-6.337 5.86-8.514 2.618-2.332 7.536-3.705 7.63-7.548m49.602 4.73c-.544-2.838-2.165-5.1-5.853-5.113-2.722-.003-5.257 1.697-6.758 3.968-2.9 4.385-2.152 10.068-2.418 15.065 0 12.957-2.376 25.767-5.73 38.24-1.737 6.46-3.753 12.838-5.813 19.2l-2.767 8.478c-.76 2.293-1.77 4.526-2.177 6.922-.35 2.077-.583 6.535 1.837 6.552 1.33.01 3.253-2.434 4.8-5.812 2.636-5.715 4.75-13.75 5-14.535 1.2-3.965 2.435-7.928 4-11.766 4.7-11.5 10.196-23.453 13.217-35.507 1.497-5.973.833-11.97 2.24-17.94.525-2.228.898-5.216.412-7.752m-7.79-33.355l-.13-3.3c-9.03-2.94-18.74-3.92-27.6-2.85-3.88.47-7.56 1.3-11.03 2.48a40.09 40.09 0 0 0-.16 3.66c0 15.9 8.72 28.8 19.46 28.8s19.46-12.88 19.46-28.8"/></g><g clip-path="url(#C)" class="C B"><path d="M234.24 55.198c-.053-1.04.385-1.907.98-1.937s1.118.788 1.17 1.827-.385 1.907-.98 1.937-1.118-.787-1.17-1.827"/></g><g clip-path="url(#D)" class="C B"><path d="M231.96 59.206c.263-.765.83-1.263 1.268-1.112s.577.892.314 1.657-.83 1.263-1.268 1.112-.577-.89-.314-1.657"/></g><g clip-path="url(#E)" class="C B"><path d="M232.783 49.826c-.267-.764-.13-1.506.307-1.658s1.006.344 1.273 1.107.128 1.507-.308 1.66-1.006-.343-1.272-1.108"/></g></g><g clip-path="url(#F)" class="D"><path d="M265.848 212.616c.288-.37.628-.7.997-.976 1.1-.824 2.427-1.248 3.727-1.658.277-.088.56-.177.85-.177s.593.103.773.336c.24.313.198.76.137 1.156-.307 2-.492 4.435-1.396 6.24-.82 1.633-1.5 2.825-3 3.845-.23.156-1.275.596-1.563.525-.266-.065-.662-.368-.698-.636-.05-.37.326-1.136.38-1.505.187-1.25.45-2.526.24-3.776-.056-.332-.358-.84-.376-1.173-.047-.926-.642-1.465-.07-2.2m-29.412.9c.045-1.477.965-2.487 1.284-3.965l.83-3.215c.575-.577 1.353-.897 2.193-.95 1.143-.074 2.4.33 3.435 1.197 1.472 1.245 2.045 3.077 1.533 4.545a2.99 2.99 0 0 1-.593 1.043c-.04.05-.1.1-.14.14l-.848.608c-.455.328-.88.667-1.07 1.055-.915 1.856-1.566 4.334-2.177 6.32-.14.466-.187 1.556-.428 1.964-.17.308-1.528-.478-1.822-.527-.314-.058-.225-.87-.368-1.168-.887-1.92-1.9-4.716-1.828-7.046m-43.218 16.205c.3-.376 1.205-.187 1.6-.466.565-.4 1.35-.625 2-.885.67-.27.638-.624 1.33-.834.3-.088.563-.322.868-.32s.666-.23.854.01c.254.32.212.776.15 1.18-.315 2.038-.322 4.1-1.263 5.945-.85 1.662-2.576 3.124-4.144 4.158-.24.158-.493.762-.795.7-.28-.07-.696-.378-.735-.652-.052-.376.337-1.157.394-1.532.24-1.6.707-3.4.615-5.037-.054-.943-1.458-1.506-.863-2.253m-72.43-17.54c-.1 1.62-.8 3.22-.57 4.83.06.37.45 1.15.4 1.53-.04.27-.45.58-.73.65-.3.07-.56-.53-.8-.7-1.56-1.03-2.78-2.54-3.63-4.2-.283-.555-.52-1.128-.73-1.7.197-.123.338-.34.34-.573 0-.933.008-1.867-.204-2.783-.003-.014-.014-.024-.018-.037v-1.04l-.002-.47.08-.077.663-.483c.017-.014.032-.03.05-.046 1.33.4 2.68.83 3.803 1.65a5.41 5.41 0 0 1 1.04.99c.6.74.38 1.52.32 2.46m43.816 13.157c.366-1.35 1.48-2.07 2.113-3.36l1.508-2.773c.685-.4 1.512-.515 2.34-.37 1.13.195 2.264.854 3.083 1.892 1.16 1.485 1.32 3.304.502 4.54-.198.32-.47.594-.804.825a.87.87 0 0 1-.168.096l-.958.365c-.513.2-1 .413-1.27.726-1.294 1.502-2.468 3.636-3.494 5.325-.238.398-.52 1.392-.845 1.712-.234.244-1.383-.8-1.658-.904-.293-.126-.03-.855-.104-1.16-.446-1.974-.833-4.786-.245-6.914m-13.593-15.007c-.056-1.537-.3-3.084-.656-4.622l-.923-3.342c-.634-.598-1.5-.928-2.413-.98-1.257-.072-2.636.35-3.77 1.26-1.613 1.3-2.236 3.208-1.668 4.735.133.392.355.753.656 1.083.044.052.1.103.155.144l.934.63c.5.34.968.7 1.18 1.093 1 1.93 2.635 3.507 3.314 5.57.155.485.2 1.62.478 2.042.2.32.778.495 1.1.444.344-.062.244-.908.4-1.217.967-2.002 1.312-4.416 1.212-6.84"/></g><g clip-path="url(#G)"><g class="D"><path d="M149.617 202.856c0-.01-.01-.02-.01-.03-.15-.5-.34-1.05-.73-1.3-.3-.2-.63-.17-.9-.03-.2.1-.37.25-.53.42.83.05 1.6.37 2.17.95m-16.49-7.486a12.16 12.16 0 0 0-.167-1.97c-.477-2.94-2.043-5.164-3.95-5.465a1.85 1.85 0 0 0-.467-.054c-2.544-.003-4.612 3.343-4.618 7.47-.006 4.135 2.04 7.487 4.584 7.5 2.543.003 4.6-3.344 4.618-7.48"/></g><path d="M128.544 188.39c.12.004.23.01.35.04 1.705.27 3.125 2.3 3.573 5.058.102.597.156 1.233.16 1.892-.016 3.85-1.86 6.978-4.114 6.978h-.003c-2.257-.012-4.1-3.152-4.084-7 .006-3.78 1.89-6.97 4.114-6.97zm.024-1c-.01 0-.028.002-.033 0-2.807 0-5.1 3.573-5.108 7.968-.007 4.472 2.225 7.986 5.08 8h.004c2.853 0 5.098-3.502 5.116-7.977v-.005c-.004-.715-.063-1.405-.174-2.052-.516-3.183-2.27-5.545-4.364-5.874a2.13 2.13 0 0 0-.522-.061" class="B"/><path d="M121.674 196.544a7.85 7.85 0 0 0-.059-1.042c-.246-2.624-1.472-4.722-3.04-5.32a2.47 2.47 0 0 0-.899-.169c-2.218-.003-4.02 2.915-4.026 6.52-.006 3.597 1.78 6.528 3.997 6.53s4.02-2.915 4.026-6.52" class="D"/><g class="B"><path d="M117.677 190.512c.25.047.48.045.72.137 1.402.535 2.494 2.504 2.72 4.9.04.3.06.63.058.993v.001c-.006 3.266-1.62 6.023-3.523 6.023h-.003c-.89-.001-1.746-.598-2.407-1.68-.706-1.156-1.094-2.7-1.09-4.352.005-3.265 1.62-6.022 3.525-6.022zm.008-1h-.012c-2.53 0-4.516 3.083-4.522 7.02-.003 1.833.437 3.563 1.238 4.875.85 1.39 2.006 2.155 3.26 2.157h.004c2.53 0 4.516-3.082 4.523-7.02.001-.41-.02-.772-.064-1.11-.262-2.79-1.58-5.044-3.356-5.72a2.98 2.98 0 0 0-1.07-.203"/><path d="M121.616 195.502c-.247-2.624-1.473-4.722-3.04-5.32-.68.646-1.127 1.836-1.137 3.197-.003 2.06 1.027 3.73 2.284 3.735.786-.002 1.483-.638 1.892-1.612m11.345-2.094c-.477-2.94-2.043-5.164-3.95-5.464-.56.78-.933 1.953-.93 3.256-.004 2.362 1.167 4.276 2.62 4.282.96.001 1.806-.826 2.262-2.074m-30.88-16.472c.8-.166 1.225-1.3.97-2.5s-1.103-2.075-1.894-1.9-1.224 1.3-.97 2.5 1.103 2.075 1.894 1.9"/><path d="M101.887 176.455c-.438 0-1-.587-1.2-1.532-.103-.5-.077-1 .07-1.367.07-.18.23-.5.513-.55s.555.16.7.298c.287.3.5.735.612 1.224.212 1.014-.137 1.824-.582 1.918a.48.48 0 0 1-.093.009m-.534-4.46a1.5 1.5 0 0 0-.298.031c-.545.114-.998.54-1.24 1.168-.218.563-.26 1.25-.116 1.933.317 1.513 1.408 2.524 2.485 2.297h.001c1.077-.226 1.673-1.6 1.356-3.102-.143-.683-.456-1.296-.88-1.723-.388-.393-.852-.604-1.307-.604m6.18 2.585c1.113-.282 1.66-1.9 1.223-3.64s-1.694-2.9-2.806-2.62-1.66 1.9-1.224 3.64 1.694 2.9 2.807 2.62m-.34-.46c-.4 0-.778-.278-.976-.463-.46-.43-.818-1.077-1.006-1.82-.363-1.433.03-2.82.86-3.03s1.836.825 2.2 2.257c.188.744.18 1.483-.02 2.08-.102.3-.346.826-.842.952h-.001a.89.89 0 0 1-.216.026m-.902-6.343a1.9 1.9 0 0 0-.465.059c-1.4.355-2.097 2.22-1.585 4.246.235.928.694 1.747 1.294 2.306.658.615 1.4.855 2.12.674s1.257-.748 1.544-1.6c.262-.778.276-1.716.04-2.645-.456-1.802-1.694-3.04-2.95-3.04m25.528 14.676a.692.692 0 1 0-1.383 0 .692.692 0 1 0 1.383 0m4.76-1.077c0-.595-.482-1.077-1.077-1.077s-1.076.482-1.076 1.077.482 1.077 1.076 1.077a1.08 1.08 0 0 0 1.077-1.077m-3.63-3.038c0-.594-.482-1.076-1.076-1.076s-1.077.482-1.077 1.076a1.08 1.08 0 0 0 1.077 1.077c.595 0 1.076-.482 1.076-1.077"/></g><path d="M253.705 199.47a11.74 11.74 0 0 1 .084-1.883c.343-2.814 1.75-4.99 3.552-5.35a1.82 1.82 0 0 1 .443-.07c2.42-.1 4.515 3.008 4.677 6.933.162 3.935-1.66 7.202-4.078 7.31-2.42.1-4.506-3.008-4.678-6.942" class="D"/><path d="M254.205 199.45a11.1 11.1 0 0 1 .08-1.799c.32-2.636 1.588-4.612 3.153-4.923.15-.04.252-.057.362-.06l.1-.002c2.074 0 3.925 2.922 4.07 6.455.15 3.65-1.465 6.696-3.6 6.792-2.123.09-3.996-2.812-4.155-6.463m3.695-7.784l-.136.002c-.19.007-.373.036-.562.1-1.95.384-3.536 2.707-3.91 5.768-.08.618-.1 1.278-.088 1.96v.005c.184 4.202 2.395 7.423 5.062 7.423l.136-.002c2.733-.123 4.734-3.563 4.558-7.832-.174-4.196-2.384-7.414-5.06-7.414" class="B"/><path d="M264.648 200.144a7.43 7.43 0 0 1 .017-.994c.135-2.506 1.222-4.55 2.69-5.177a2.35 2.35 0 0 1 .849-.196c2.1-.086 3.937 2.622 4.08 6.054.14 3.422-1.447 6.28-3.557 6.366s-3.937-2.622-4.08-6.053" class="D"/><g class="B"><path d="M264.648 200.144h.01zm3.982 5.556c-1.77 0-3.356-2.525-3.482-5.577h0a6.97 6.97 0 0 1 .015-.929c.125-2.297 1.085-4.204 2.39-4.76.223-.096.45-.148.67-.155 1.786-.093 3.434 2.477 3.562 5.573s-1.282 5.773-3.077 5.847l-.077.002m-.323-12.424l-.122.002c-.344.012-.7.09-1.026.236-1.672.713-2.848 2.915-2.993 5.61a7.63 7.63 0 0 0-.018 1.042c.154 3.7 2.1 6.535 4.48 6.535l.12-.002c2.418-.1 4.2-3.125 4.036-6.888-.154-3.698-2.11-6.534-4.477-6.534"/><path d="M264.665 199.15c.136-2.506 1.223-4.55 2.69-5.177.67.588 1.142 1.704 1.203 3 .08 1.96-.836 3.59-2.032 3.64-.748.028-1.436-.55-1.862-1.462"/><path d="M265.172 199.048c.14-2.047.955-3.774 2.084-4.462.457.554.758 1.442.804 2.4.073 1.793-.76 3.083-1.554 3.117-.472.02-.982-.377-1.334-1.064m2.277-5.658l-.3.123c-1.673.714-2.848 2.916-2.994 5.6l-.007.126.053.113c.53 1.13 1.358 1.804 2.334 1.75 1.504-.065 2.606-1.893 2.513-4.16-.067-1.406-.58-2.66-1.373-3.354zm-13.66 4.196c.342-2.814 1.748-5 3.552-5.35.564.723.962 1.824 1 3.063.092 2.248-.95 4.114-2.33 4.175-.915.036-1.75-.72-2.23-1.9"/><path d="M254.303 197.515c.322-2.395 1.434-4.223 2.83-4.704.422.666.68 1.56.717 2.5.08 1.934-.77 3.608-1.852 3.655l-.043.001c-.625 0-1.248-.552-1.653-1.46m3.243-5.827l-.303.06c-2 .395-3.577 2.717-3.95 5.78l-.015.13.048.12c.577 1.4 1.583 2.227 2.715 2.198 1.682-.074 2.915-2.137 2.8-4.695-.05-1.285-.457-2.506-1.116-3.35zm23.018-12.93c-.758-.127-1.214-1.18-1.017-2.35s.97-2.017 1.73-1.9 1.214 1.18 1.017 2.35-.97 2.016-1.73 1.9"/><path d="M280.563 178.76h.01zm.15-.487a.37.37 0 0 1-.067-.006h-.001c-.134-.023-.256-.1-.363-.26-.248-.35-.34-.93-.242-1.514.156-.93.73-1.562 1.154-1.48.415.07.767.816.606 1.775-.078.466-.27.895-.53 1.177-.182.198-.38.308-.557.308m.4-4.266c-.96 0-1.842.966-2.07 2.32-.143.85.012 1.695.414 2.26.263.37.614.6 1.013.667.536.087 1.1-.135 1.527-.612.392-.428.668-1.027.78-1.687.245-1.465-.382-2.75-1.428-2.927a1.46 1.46 0 0 0-.237-.02m-5.847 2.715c-1.07-.226-1.652-1.755-1.302-3.417s1.503-2.824 2.573-2.598 1.652 1.755 1.3 3.416-1.502 2.825-2.572 2.6m.106-.5c-.466-.1-.714-.58-.82-.858-.2-.55-.244-1.265-.097-1.965s.47-1.342.883-1.76c.2-.213.63-.552 1.096-.454s.714.58.82.858c.2.55.244 1.265.096 1.965-.288 1.364-1.2 2.372-1.98 2.213m.892-6.055c-.568 0-1.137.266-1.636.77-.552.558-.96 1.36-1.15 2.256s-.14 1.794.14 2.528c.3.8.858 1.335 1.547 1.48 1.367.288 2.75-1.025 3.165-2.985.2-.896.14-1.794-.14-2.528-.308-.8-.857-1.335-1.546-1.48a1.87 1.87 0 0 0-.379-.04m-21.818 16.94a.66.66 0 0 1 .632-.685.66.66 0 0 1 .684.633c.015.364-.268.67-.63.684a.66.66 0 0 1-.685-.632m-4.572-.844c-.022-.566.418-1.042.984-1.065s1.042.418 1.065.983-.418 1.043-.984 1.066-1.043-.418-1.065-.984m3.34-3.03c-.022-.566.418-1.043.983-1.065s1.043.418 1.066.983-.418 1.043-.984 1.065-1.043-.418-1.065-.983"/></g><path d="M184.037 214.6a11.57 11.57 0 0 1 .42-1.837c.84-2.708 2.613-4.598 4.452-4.627.154-.015.297-.013.448.01 2.4.336 3.904 3.767 3.36 7.658-.544 3.9-2.92 6.79-5.32 6.463-2.4-.335-3.894-3.766-3.36-7.667" class="D"/><path d="M184.532 214.68c.092-.62.227-1.21.4-1.756.787-2.536 2.387-4.254 3.983-4.28a1.38 1.38 0 0 1 .363.005c1 .137 1.84.92 2.403 2.202.598 1.363.79 3.1.54 4.89-.503 3.617-2.64 6.317-4.757 6.038-2.113-.295-3.428-3.48-2.932-7.1m4.563-7.045a2.15 2.15 0 0 0-.238.013c-1.986.03-3.963 2.03-4.878 4.975a12.05 12.05 0 0 0-.437 1.912v.005c-.58 4.24 1.08 7.854 3.785 8.23 2.728.365 5.295-2.658 5.885-6.89.275-1.973.057-3.9-.614-5.432-.708-1.612-1.834-2.603-3.172-2.8a2.24 2.24 0 0 0-.331-.025" class="B"/><path d="M194.683 217.233c.046-.338.108-.666.194-.975.582-2.442 2.017-4.257 3.574-4.612a2.37 2.37 0 0 1 .871-.04c2.09.292 3.403 3.284 2.93 6.685-.474 3.393-2.547 5.92-4.64 5.628s-3.404-3.285-2.93-6.686" class="D"/><g class="B"><path d="M197.942 223.44a1.91 1.91 0 0 1-.261-.018c-1.785-.25-2.93-3.053-2.503-6.12v-.002a7.08 7.08 0 0 1 .181-.91c.533-2.237 1.82-3.94 3.203-4.258.238-.052.47-.063.688-.032 1.788.25 2.933 3.054 2.505 6.12-.216 1.553-.786 2.955-1.603 3.948-.682.83-1.457 1.272-2.2 1.272m1.06-12.36a2.97 2.97 0 0 0-.662.076c-1.774.405-3.325 2.36-3.95 4.983-.082.296-.15.647-.202 1.024-.52 3.728.953 6.913 3.355 7.25 1.2.16 2.4-.406 3.38-1.6.933-1.133 1.58-2.712 1.822-4.444.52-3.73-.953-6.914-3.355-7.25a2.65 2.65 0 0 0-.389-.028m15.114-17.75c.375-.4.836-.632 1.294-.632a1.38 1.38 0 0 1 .232.02c.533.1.986.482 1.245 1.078.23.53.294 1.187.184 1.848-.247 1.467-1.28 2.483-2.306 2.3h-.001c-1.046-.177-1.673-1.463-1.426-2.927.1-.66.386-1.26.778-1.687m-26.397 8.694a.66.66 0 0 1 .561.745.66.66 0 0 1-.745.56.66.66 0 0 1-.561-.744.66.66 0 0 1 .745-.561m-3.932-1.96a1.03 1.03 0 0 1 .872 1.16c-.078.562-.598.95-1.16.872s-.95-.598-.872-1.16.598-.95 1.16-.872"/><path d="M187.624 197.692c.56.08.95.598.872 1.158s-.598.95-1.16.872a1.02 1.02 0 0 1-.87-1.158c.08-.56.597-.95 1.158-.872m22.942-8.812c.125 0 .25.013.377.04.7.146 1.238.672 1.547 1.482.28.734.33 1.63.14 2.528-.414 1.96-1.8 3.267-3.165 2.984-1.36-.288-2.1-2.05-1.687-4 .377-1.78 1.557-3.023 2.788-3.023m65.564-92.134l-.43.05c-1.93.2-4.06.2-6.38.01l-.75-.08c-4.8-.5-10.4-2.02-16.73-5.14-.36-.14-8.62-3.5-11.25-9.03l-.3-.63c-1.5-3.2-2.93-6.2-4.6-8.8-1.54-2.4-3.4-4.67-5.5-6.78-3.23 1.54-6.5 2.66-9.24 3.6-.4.13-.8-.08-.94-.46-.13-.4.08-.8.46-.94 3.04-1.03 5.92-2.06 8.57-3.28a21.58 21.58 0 0 0 1.45-.7c2.27-1.13 4.37-2.44 6.26-4.07 1.27-1.1 1.98-2.64 2.3-4.36.05-.26.1-.53.12-.8.13-1.16.1-2.4-.03-3.57l-.1-.65c0-.02 0-.04-.01-.06-.03-.22-.07-.44-.1-.66-.1-.6-.25-1.18-.4-1.73-1.52-5.23-8.26-13.3-12.35-16.86a1.09 1.09 0 0 1-.13-.17l-.7-.48a.65.65 0 0 1-.17-.92.65.65 0 0 1 .55-.3.68.68 0 0 1 .38.12l.68.46c.13.02.26.07.37.16a9.98 9.98 0 0 0 .33.31l1.1.72c3.4 2.23 5 .36 5.1.24.01-.02.03-.02.04-.03a.54.54 0 0 1 .16-.14.72.72 0 0 1 .24-.1c1.26-.17 2.05-.43 2.68-.65.82-.27 1.52-.5 2.58-.32.35.06.73.16 1.14.26 1.47.37 3.15.8 4.38-.22.6-.5 1.12-.9 1.56-1.2.57-.4 1-.72 1.35-1.12v-.01l.01-.01c.1-.1.12-.24.1-.37-.02-.06-.05-.14-.13-.2-.02-.02-.04-.03-.06-.04-.3-.12-.75-.13-1.28-.03-2 .37-3.4.5-4.22.36a21.64 21.64 0 0 1-1.17 1.18c-.83.74-2.2.95-3.94.6a.67.67 0 0 1-.53-.78c.07-.36.43-.6.78-.53 1.3.26 2.3.15 2.8-.3 1.05-.95 1.92-1.96 2.5-3.02.01-.02.03-.05.04-.07-.02 0-.03-.01-.05-.01-.62-.16-1.76-.4-2.7-.14-.6.16-1.35.55-2.06.94-.68.37-1.32.7-1.9.87-.4.12-.82.02-1.13-.24a1.14 1.14 0 0 1-.35-.49c-.1-.2-.13-.42-.1-.65.03-.26.01-.83-.45-1.8l-.36-.77c-.02-.04-.05-.06-.08-.07-.01-.01-.03-.02-.05-.02-.04-.01-.1 0-.14.04a6.14 6.14 0 0 1-2.08 1.41c-1.2.5-.63 2.74-.62 2.76a.66.66 0 0 1-.47.82c-.35.1-.72-.12-.8-.47-.12-.42-.2-.96-.2-1.52-2.6 1-10.33 3.62-15.62.8-.18-.1-.3-.13-.3-.16-.04.1-.1.47.1 1.2.5 1.7 2.1 3.88 4.57 4.93.4.17.72.52.88.95.17.47.14.98-.08 1.42-1.9 3.72-3.5 15.5-2.65 19.42l.12.5c.15.63.35 1.27.6 1.94.42 1.16 1 2.4 1.72 3.75.2.36.05.8-.3 1a.74.74 0 0 1-1-.3c-1.05-1.95-1.78-3.67-2.26-5.32-1.92-.88-3.93-1.66-6-2.34-.1-.04-.2-.07-.28-.1a60.95 60.95 0 0 0-2.19-.67c-3.38-.97-6.85-1.66-10.33-2.08-4.94-.6-9.9-.64-14.58-.1-.06.01-.12.01-.18.02a56.34 56.34 0 0 0-8.7 1.77c-.73.2-1.46.44-2.17.68-.1.03-.2.07-.3.1-1.67.57-3.32 1.22-4.93 1.96-.46 1.87-1.25 3.8-2.46 6.06a.73.73 0 0 1-1 .3.74.74 0 0 1-.3-1c.9-1.66 1.53-3.13 1.98-4.52a16.26 16.26 0 0 0 .46-1.68c.02-.07.03-.14.05-.22.23-1.3.23-3.4.06-5.72-.28-3.74-1-8.13-1.88-11.12-.28-.95-.58-1.76-.88-2.36-.23-.44-.25-.95-.08-1.42.15-.43.47-.78.87-.95 2.48-1.05 4.1-3.23 4.58-4.93.22-.8.12-1.16.16-1.17-.03 0-.16.01-.38.13-5.26 2.82-13 .23-15.62-.8 0 .57-.08 1.1-.2 1.53a.67.67 0 0 1-.82.46c-.36-.1-.57-.46-.47-.8.01-.03.6-2.27-.62-2.76a6.29 6.29 0 0 1-2.08-1.41c-.05-.05-.1-.05-.14-.05-.04.01-.1.03-.13.1l-.36.76c-.46.96-.48 1.54-.45 1.8.05.43-.12.85-.45 1.13-.3.27-.73.36-1.13.25-.57-.16-1.2-.5-1.9-.87-.7-.4-1.45-.78-2.06-.94-.98-.26-2.15-.02-2.8.23l.23.38c.56.94 1.2 2 2.2 2.53.62.33 1.77.1 2.7-.08l.15-.03c.36-.08.7.17.78.53a.67.67 0 0 1-.53.78l-.14.03c-1.13.22-2.54.5-3.57-.05-.66-.35-1.17-.84-1.6-1.36-.44-.02-.97-.08-1.54-.14-1.2-.14-3.43-.4-3.83.08-.06.07-.02.24 0 .33.23.84 2.54 2.3 3.86 2.77 1.18.4 2.14.18 3.37-.1a21.78 21.78 0 0 1 1.27-.27c1.3-.23 2.75.07 4.02.34a16.73 16.73 0 0 0 1.28.24l5.37.86a33.5 33.5 0 0 1 1.58-1.48c.14-.12.3-.18.48-.18a.75.75 0 0 1 .56.25c.27.3.24.78-.07 1.05-2.13 1.86-4.98 4.95-7.44 8.22-2.26 3-4.18 6.14-4.9 8.64a18.57 18.57 0 0 0-.73 4.71c-.06 2.74.58 5.47 2.5 7.12 1.77 1.53 3.73 2.78 5.84 3.86a24.04 24.04 0 0 0 1.44.71c2.78 1.3 5.8 2.38 9 3.48a.72.72 0 0 1 .46.94c-.13.38-.55.6-.94.46-2.85-.98-6.3-2.15-9.67-3.8-1.86 1.78-3.75 3.8-5.76 6.1a48.17 48.17 0 0 1-7.69 7.1c-6.1 4.54-13.5 7.9-21.33 9.72-3.6.82-7.87 1.6-12.25 1.02-3.35-.43-7.6-2.33-10.62-4.02l-1.34 17.25c.58.2 1.22.48 1.98.8 2.7 1.15 6.43 2.72 10.8 3.03 7.04.5 10.4-.66 15.07-2.27.16-.05.33-.1.5-.17 5.08-9.4 14.57-18.63 14.98-19.04a.94.94 0 0 1 .65-.26.91.91 0 0 1 .66.29c.15.15.22.35.24.55.2.22.27.54.14.83a82.02 82.02 0 0 0-2.3 5.6c-3.67 9.88-5.4 19.8-5.6 32.14-.03 1.76.56 8.2 1.2 11.43.48 2.48 1.07 4.98 1.64 7.4l1.37 6.02.63 3.16c.2 1 .3 2 .42 3.02.08.68.2 1.42.54 2.03.4.73.88 1.43 1.23 2.18l1.08 2.3.96 2.33c.34.85.74 1.7 1.16 2.6 1.02 2.2 2.07 4.48 2.32 6.9.37-.12.66-.33.86-.67.34-.57.4-1.32.4-2.1.1-2.5-.14-5.03-.37-7.48l-.34-4.2a173.34 173.34 0 0 1-.22-12.6 141.66 141.66 0 0 1 .58-10.52 34.58 34.58 0 0 0-3.8-.66l-1.56-.18c-.27-.03-.47-.28-.44-.56.03-.25.25-.44.5-.44h.06l1.56.18a34.63 34.63 0 0 1 3.78.66c.34-3.3.8-6.45 1.4-9.46.01-.1.03-.17.05-.26a31.58 31.58 0 0 0-5.6-1.15c-.28-.03-.47-.28-.44-.55a.49.49 0 0 1 .49-.45c.02 0 .04.01.06.01 1.97.22 3.9.6 5.7 1.17.73-3.4 1.6-6.45 2.62-9.24.03-.08.07-.17.1-.25-2-.72-4.27-1.25-6.66-1.52-.28-.03-.47-.28-.44-.55a.5.5 0 0 1 .5-.45c.02 0 .04.01.06.01 2.47.28 4.84.83 6.9 1.58a70.29 70.29 0 0 1 4.54-9.6c-1.35-.62-2.82-1.15-4.4-1.57a33.06 33.06 0 0 0-4.64-.92c-.27-.03-.47-.28-.44-.55.03-.26.25-.44.5-.44h.06c1.53.18 3.14.5 4.78.94 1.66.45 3.2 1 4.63 1.67a68.61 68.61 0 0 1 6.33-9.08c-1.23-.83-2.58-1.58-4.04-2.23-3.35-1.48-6.52-2.37-8.94-2.5a.5.5 0 0 1-.48-.52c.02-.27.24-.48.53-.47 2.58.14 5.8 1.03 9.3 2.6 1.54.68 2.97 1.5 4.27 2.37a57.11 57.11 0 0 1 7.76-7.58c-1.46-1.66-3.24-3.2-5.25-4.5-2.33-1.5-4.5-2.62-6.44-3.34a.5.5 0 0 1-.3-.64c.08-.2.27-.33.47-.33.06 0 .12.01.18.04 2 .74 4.24 1.9 6.63 3.43 2.1 1.36 3.98 2.98 5.5 4.72l1.2-.9c.78-.56 1.57-1.1 2.35-1.6.13-.08.26-.12.4-.12.25 0 .5.12.64.35.22.35.1.8-.24 1.03a43.57 43.57 0 0 0-2.27 1.55c-9.28 6.72-17.2 17.62-21.68 29.92-1.14 3.06-2.06 6.4-2.82 10.24-1.23 6.2-1.9 12.97-2.05 20.72a170.62 170.62 0 0 0 .22 12.5c.07 1.38.2 2.78.33 4.13.24 2.5.48 5.08.38 7.67-.03.94-.1 1.93-.62 2.8a3.04 3.04 0 0 1-1.91 1.43c-1.4.36-2.92-.13-3.8-.65-1.64-.96-2.86-2.52-3.98-3.94-1.34-1.72-2.97-3.2-4.4-4.45-3.13-2.72-6.17-4.6-9.32-5.78l-.92-.3c-5.2-1.66-10.2-1.06-14.88 1.76-2.3 1.4-4.2 3.48-5.3 5.88-4.04 8.82 2.84 15.97 7.3 19.44 3.33 2.6 5.54 6.32 6.22 10.48.43 2.57 2.02 5 4.73 7.23.01.01.01.03.03.04 1.57 1.3 3.55 2.53 5.88 3.68l.1.05c.01 0 .02 0 .03.01.06.02.1.05.12.06 4.4 2.14 12.83 5.18 19.86 1.37.44-.23.86-.5 1.26-.78a14.24 14.24 0 0 0-1.47-1.17c-.34-.23-.44-.7-.2-1.04.23-.34.7-.43 1.04-.2a14.44 14.44 0 0 1 2.2 1.83.63.63 0 0 1 .23.2c.03.03.04.06.05.1a13.55 13.55 0 0 1 3.56 8.13c.02.24.2.32.3.34.07.02.27.05.4-.15.2-.3.4-.62.58-.95a12.17 12.17 0 0 0-1.13-13.4l-.03-.03c-.66-.83-1.44-1.58-2.33-2.23a.74.74 0 0 1-.17-1.04.74.74 0 0 1 .61-.31.74.74 0 0 1 .44.14 14.52 14.52 0 0 1 1.67 1.44c-.07-.06.3-1.14.34-1.28a30.25 30.25 0 0 0 .3-1.37 38.79 38.79 0 0 0 .4-2.84c.17-1.7.24-3.44.27-5.16.04-1.96.2-3.9.27-5.86l.22-5.13.57-10.76.8-10.7c.3-3.28.62-6.55 1.05-9.8.25-1.9.52-3.77.86-5.63.95-5.22 2-9.87 3.24-14.23l.27-.96c1.13-4.02 2.3-8.18 4.4-11.93 2.7-4.85 6.05-8.3 9.98-10.26 1.17-.58 2.84-1.2 4.7-1.2.43 0 .87.03 1.3.1 2.58.43 4.65 2.27 5.4 4.8 1.03 3.5.16 7-.67 10.37a68.71 68.71 0 0 0-.61 2.59c-2.56 12.33-4.95 25.22-7.3 39.4-1.9 11.4-3.35 23.46-4.32 35.87-.62 5.28-1.58 15.7-1.2 20.47a12.99 12.99 0 0 1 1.25-.76.72.72 0 0 1 .35-.08c.27 0 .53.14.66.4.2.36.05.82-.3 1-5.12 2.7-7.42 8.83-5.36 14.25.13.33.27.65.42.97.1.17.25.18.33.17s.25-.05.3-.25a12.98 12.98 0 0 1 7.07-8.9c.38-.18.83-.02 1 .35.18.37.02.82-.35 1a11.72 11.72 0 0 0-1.5.87 15.29 15.29 0 0 0 1.07.89c6.03 4.45 14.22 2.82 18.63 1.4l.28-.1c.02-.01.04-.01.05-.02l.14-.04c2.36-.8 4.4-1.7 6.08-2.73 2.85-1.73 4.66-3.8 5.4-6.17a15.92 15.92 0 0 1 7.28-9.08c4.66-2.68 12.07-8.5 9.43-17.34-.7-2.4-2.2-4.6-4.2-6.22-4.04-3.28-8.67-4.5-13.77-3.63-.3.05-.6.1-.9.18-1.04.22-2.07.53-3.07.9-2.1.76-4.23 1.84-6.47 3.3-.7.46-1.6 1.06-2.5 1.72-.85.64-1.6 1.26-2.27 1.92-1.2 1.16-2.57 2.47-4.25 3.17-.88.36-1.93.5-2.82.34h-.04c-.02 0-.04-.02-.05-.02-1.17-.2-2.04-.84-2.44-1.83-.37-.9-.3-1.85-.2-2.75.88-8.64 3.27-17.05 5.5-24.14 5.34-17.1 10.35-33.86 12.9-51.1a134.92 134.92 0 0 0 .82-6.7c.58-6.24.18-12.23-1.2-18.32-.1-.4.16-.8.56-.9.06-.01.1-.01.17-.01.34 0 .65.23.73.58a58.43 58.43 0 0 1 1.24 18.79c-.2 2.15-.47 4.37-.83 6.8-2.57 17.35-7.6 34.18-12.96 51.33-2.2 7.02-4.56 15.34-5.43 23.85-.08.73-.13 1.44.1 2.02a1.4 1.4 0 0 0 .66.7c.56-2.24 1.84-4.23 3.1-6.17.5-.8 1-1.54 1.43-2.3 1.13-1.97 2.47-4.23 4.17-6.2a15.61 15.61 0 0 1 2.18-2.08v-.04l5.8-18.9a13.58 13.58 0 0 0-.54-.27c-1.13-.54-2.3-1.02-3.47-1.42a.49.49 0 0 1-.32-.63.52.52 0 0 1 .48-.34c.05 0 .1.01.16.03 1.2.4 2.42.9 3.66 1.5l.35.18c.95-2.84 1.93-5.63 2.93-8.3-.4-.2-.8-.4-1.15-.6-1.17-.55-2.37-1.04-3.57-1.45a.48.48 0 0 1-.3-.63.49.49 0 0 1 .47-.34c.05 0 .1.01.16.03 1.24.4 2.47.92 3.7 1.5a27.8 27.8 0 0 1 1.06.55l3.35-8.7c-.8-.47-1.6-.92-2.45-1.33a34.92 34.92 0 0 0-2.86-1.21.5.5 0 0 1-.3-.64c.08-.2.27-.32.47-.32a.38.38 0 0 1 .18.03c.97.35 1.96.77 2.94 1.23.83.4 1.62.84 2.4 1.3l2.73-6.92.96-2.38c-1.06-.68-2.25-1.36-3.58-2a32.65 32.65 0 0 0-3.53-1.44c-.26-.1-.4-.37-.3-.63a.49.49 0 0 1 .47-.34c.05 0 .1.01.16.03a30.84 30.84 0 0 1 3.64 1.48c1.3.63 2.48 1.3 3.53 1.96l1.3-3.2a91.63 91.63 0 0 0 2.25-6.15c-1.04-.68-2.15-1.32-3.36-1.9-1.77-.85-3.56-1.5-5.3-1.97-.27-.08-.43-.35-.36-.62.06-.22.26-.37.5-.37a.5.5 0 0 1 .12.02c1.8.48 3.64 1.17 5.47 2.03 1.16.56 2.23 1.17 3.24 1.8 1.18-3.8 2-7.4 2.53-10.78-1.87-1.14-4.16-2.14-6.7-2.9-1.15-.34-2.3-.62-3.42-.82-.2-.03-.4-.07-.58-.1-.28-.05-.46-.3-.42-.57.04-.25.25-.43.5-.43a.22.22 0 0 1 .08.01c.2.03.4.06.6.1 1.16.2 2.35.5 3.54.85 2.45.74 4.7 1.7 6.56 2.8.66-4.63.8-8.82.6-12.53-2.08-.94-4.8-1.67-7.92-2.1a19.71 19.71 0 0 0-1.9-.2c-.28-.02-.5-.26-.47-.53s.24-.47.5-.47h.04c.66.05 1.32.12 1.96.2 2.98.42 5.62 1.1 7.7 1.98-.22-3.05-.64-5.75-1.15-8.06a.75.75 0 0 1 .57-.89c.06-.01.1-.02.16-.02a.76.76 0 0 1 .74.59c1.5 6.8 2.3 16.8-.7 29.26 8.14 12.32 12.9 23.25 15.52 33.83 1.7 6.92 2.88 13.95 3.7 19.3.94 6 1.74 12.32 2.4 18.75a.31.31 0 0 0 .02.08c.15 2.26 1.2 15.24 2.5 20.34.34-.34.7-.67 1.08-.97a.8.8 0 0 1 .46-.16.74.74 0 0 1 .6.3c.26.33.2.8-.12 1.05a11.51 11.51 0 0 0-2.72 14.98 8.54 8.54 0 0 0 .6.88c.1.16.27.14.35.1.07-.02.23-.1.24-.3.17-4.02 2.13-7.67 5.38-10a.74.74 0 0 1 1.04.16.75.75 0 0 1-.16 1.05c-.48.34-.9.72-1.32 1.13a14.46 14.46 0 0 0 1.22.67c6.8 3.34 14.65.17 18.72-2.02l.1-.05c.02-.01.04-.03.07-.04l.12-.07c2.2-1.2 4.04-2.46 5.5-3.77 2.5-2.2 3.9-4.57 4.2-7.04a15.93 15.93 0 0 1 5.55-10.23c4.1-3.47 10.34-10.52 6.17-18.74-1.13-2.23-3-4.14-5.24-5.38-4.83-2.65-9.9-2.9-15.06-.77-.98.4-1.94.9-2.85 1.44-1.94 1.12-3.83 2.57-5.8 4.4-.88.84-1.54 1.5-2.13 2.13a23.87 23.87 0 0 0-1.9 2.31c-.98 1.35-2.1 2.9-3.6 3.87-.8.5-1.82.82-2.72.84h-.07c-1.18.03-2.17-.46-2.74-1.37-.53-.82-.64-1.77-.7-2.66-.28-3.7-.33-7.4-.37-11.02-.03-2.97-.06-6.05-.24-9.1l-.01-.26c-.93-16.55-4.52-34.1-10.4-50.7-2.03-5.75-5.3-14.23-10.27-21.48a.74.74 0 0 1 .19-1.04c.13-.1.28-.14.42-.14a.75.75 0 0 1 .62.33 66.42 66.42 0 0 1 3.39 5.55 29.31 29.31 0 0 1 3-1.27c2.33-.8 4.6-1.36 6.6-1.63h.06c.25 0 .47.18.5.43a.5.5 0 0 1-.43.56c-1.92.26-4.13.8-6.4 1.6-1 .34-1.94.75-2.87 1.2 1.96 3.67 3.56 7.37 4.84 10.66.68-.3 1.38-.58 2.08-.83 2.43-.83 4.8-1.4 6.85-1.66h.06a.49.49 0 0 1 .49.44.49.49 0 0 1-.43.55c-1.98.25-4.28.8-6.64 1.62a24.32 24.32 0 0 0-2.05.82 131.41 131.41 0 0 1 1.39 3.8 150.14 150.14 0 0 1 1.97 5.88 30.71 30.71 0 0 1 2.35-.52c1.9-.35 3.76-.54 5.52-.56a.51.51 0 0 1 .5.5c0 .28-.22.5-.5.5-1.7.02-3.5.2-5.36.54a33.87 33.87 0 0 0-2.22.5 191.26 191.26 0 0 1 2.75 9.7c2.18-.6 4.67-.98 7.28-1.05.27 0 .5.2.5.48a.5.5 0 0 1-.48.52c-2.53.07-4.95.43-7.06 1.02a184.48 184.48 0 0 1 2.11 9.41 32.17 32.17 0 0 1 5.79-.68c.2-.01.4-.01.62-.01.28 0 .5.22.5.5a.5.5 0 0 1-.5.5c-.2 0-.4 0-.6.01a31.4 31.4 0 0 0-5.62.66 187.87 187.87 0 0 1 1.68 10.28 34.56 34.56 0 0 1 4.54-.56c.27 0 .5.2.5.48a.5.5 0 0 1-.47.52c-1.57.08-3.05.28-4.44.55.5 4.03.9 8.02 1.1 11.96v.27c.18 3.07.2 6.16.24 9.16.04 3.57.1 7.27.37 10.9.05.74.13 1.44.47 1.97.18.28.45.47.77.58.15-2.3 1.06-4.5 1.95-6.63.37-.87.7-1.7 1-2.53.5-1.4 1.02-2.8 1.62-4.16.3-.64.63-1.22.97-1.82s.54-1.35.7-2.03c.4-1.73.5-3.54.68-5.3.38-3.74.8-7.48.9-11.24 0-.16 0-.32.01-.47.06-3.15-.02-6.3-.24-9.44-.57-8.07-2.76-16.5-5.08-25.4l-2.14-8.43a1.52 1.52 0 0 1 .75-1.72 1.55 1.55 0 0 1 .75-.19c.4 0 .8.17 1.1.48 3.3 3.44 6.2 7 8.67 10.66l1.45.48c4.9 1.65 8.42 2.83 15.8 2.37 4.6-.3 8.48-1.86 11.32-3a47.64 47.64 0 0 1 2.1-.8l-1.34-17.2c-2.26 1.34-6.06 3.02-11.3 3.6-.02 0-.04.01-.06.01m-98.85-47.92l-.82-.13c-.28 0-.56-.02-.84-.04l-.1-.01-.18.01-1.06.03-1.42.03-5.7.04c-.34 0-.93-.04-1.66-.1.13 1.8.15 3.48.04 4.77-.01.03-.01.06-.01.1 1.46-.64 2.94-1.2 4.45-1.72l.2-.06a54.84 54.84 0 0 1 9.3-2.23c-.7-.32-1.44-.56-2.2-.68m-88.4 71.5c8.03 1.1 15.36 3.1 21.22 5.86a.56.56 0 0 0 .5-.01c.1-.04.26-.16.3-.4.7-3.27 2.4-9.9 5.95-17.62l1-2.1c-4.5 1.55-7.97 2.64-14.94 2.14-4.55-.32-8.36-1.94-11.14-3.1a43.07 43.07 0 0 0-1.67-.68zm-33.4-18.3c3.35 1.43 7.02 2.5 10.92 3.15 8.77 1.5 17.23.7 22.6-2.13l.1-.05c.04-.02.08-.05.13-.07l1.3-16.85c-5.5 3.36-14.7 4.44-24.37 2.8-4.88-.83-9.5-2.3-13.46-4.3zm32.4 18.16l1.26-16.1c-5.6 2.8-14.1 3.57-22.93 2.07-3.75-.64-7.3-1.65-10.57-3l2.8 17.67c6.9-1.33 14.68-1.78 22.58-1.3a95.37 95.37 0 0 1 6.87.64m-45.38 6.38c3.74-2.38 8.9-4.3 14.95-5.53l-2.85-18.1c-3.14 2.7-6.9 5.2-10.92 7.2-4.84 2.4-9.78 4.02-14.4 4.7l9.55 14.67c1-1.04 2.22-2.04 3.67-2.96m-22.78-26.4l8.96 13.75c4.64-.63 9.65-2.23 14.55-4.67 4.1-2.05 7.95-4.6 11.15-7.43l.03-.03-2.65-16.78c-3.68 3.86-8.47 7.32-13.96 10.06-6.16 3.08-12.5 4.87-18.08 5.1m109.22 55.14c-.9-.74-1.97-1.34-3.2-1.58a4.86 4.86 0 0 0-2.01 0c-2.23.47-4 2.54-4.9 5.67a3.32 3.32 0 0 1 .29.1 25.27 25.27 0 0 1 2.69 1.18c.4-.9.97-1.53 1.7-1.9.4-.2.82-.28 1.26-.28a3.53 3.53 0 0 1 1.31.27c1.77.7 3.42 2.7 4.4 5.36a12.23 12.23 0 0 1 .77 3.55c.78.78 1.57 1.63 2.3 2.55 1.04 1.34 2.12 2.72 3.52 3.54.35.2.82.4 1.3.5-.24-2.16-1.23-4.28-2.18-6.34-.4-.88-.84-1.8-1.2-2.7-.86-2.14-1.9-4.6-3.3-6.77-.17-.26-.35-.52-.54-.78-.57-.77-1.3-1.64-2.22-2.38m-9.43 63.22l.2.12a.4.4 0 0 0 .21.07c.1 0 .2-.06.24-.1s.23-.22.13-.5c-.96-2.62-.93-5.43.08-8-1.82-.94-3.42-1.93-4.8-2.97-1.42 4.17.17 8.92 3.94 11.37m73.7 19.38c-.13.23.01.4.05.45.07.07.2.15.38.07l.2-.1a9.32 9.32 0 0 0 5.2-10.1c-1.4.78-3.03 1.5-4.84 2.12.6 2.55.25 5.2-1 7.55m5.27-61.17c-.62-.22-1.25-.32-1.9-.27-2.62.15-4.83 2.08-6.2 3.67-1.6 1.85-2.9 4.04-4 5.94-.46.8-.98 1.6-1.48 2.38-1.17 1.8-2.37 3.64-2.9 5.62.43-.03.87-.12 1.25-.28 1.42-.58 2.63-1.74 3.82-2.9a25.82 25.82 0 0 1 2.28-1.93c.2-1.17.63-2.37 1.24-3.5 1.28-2.37 3.1-4.05 4.88-4.5.3-.07.58-.1.86-.1a2.82 2.82 0 0 1 1.58.47c.67.45 1.14 1.2 1.38 2.15a23.75 23.75 0 0 1 2.77-.8c.08-.02.16-.03.25-.05-.45-3.03-1.83-5.2-3.84-5.92m68.27 43.9c-.08.25.08.4.14.43.08.07.22.12.38.01l.18-.13c3.47-2.45 4.8-7 3.32-10.87-1.24 1.02-2.7 2-4.38 2.96a10.7 10.7 0 0 1 .36 7.6m-5.76-61.13c-.65-.1-1.3-.08-1.9.08-2.56.6-4.38 2.9-5.46 4.72-1.25 2.12-2.13 4.5-2.86 6.56-.3.87-.68 1.75-1.04 2.6-.82 1.97-1.67 4-1.82 6.04a4.09 4.09 0 0 0 1.18-.49c1.28-.83 2.26-2.18 3.23-3.53.57-.8 1.22-1.58 2-2.4.02-.02.04-.05.06-.07.03-1.1.23-2.27.6-3.4.84-2.56 2.34-4.53 4-5.28.46-.2.92-.3 1.36-.3.4 0 .75.07 1.1.23.7.3 1.28.9 1.7 1.7.8-.45 1.63-.87 2.5-1.23l.24-.1c-1-2.9-2.73-4.78-4.84-5.15m28.66-49.54l.24.12c5.38 2.83 13.84 3.62 22.6 2.13 3.9-.66 7.58-1.73 10.9-3.15l2.76-17.43c-12.2 6.26-26.44 6.9-37.82 1.68zm-.88 1.47l-1.8.7c-2.9 1.17-6.9 2.77-11.65 3.07-7.57.5-11.2-.73-16.2-2.4a2.77 2.77 0 0 0-.16-.06c4.3 6.72 7.24 13.8 8.73 21.14 6.6-3 14.3-5.05 22.34-6.1zm34.46-1.22c-3.26 1.33-6.8 2.35-10.56 3-8.82 1.5-17.35.72-22.93-2.08l1.3 16.52c9.7-1.16 19.87-.9 29.3.9zm26.34 13.1a30.88 30.88 0 0 0 .88-1.31c-4.86-.6-10.12-2.26-15.25-4.82-4.03-2-7.8-4.5-10.92-7.2l-2.96 18.78a76.14 76.14 0 0 1 5.96 1.43c3.8 1.1 9.16 2.94 12.8 6.5l9.5-13.38m-8.5-21.2c-5.5-2.74-10.28-6.2-13.97-10.06l-2.64 16.77c.02.03.04.04.07.07 3.16 2.8 7 5.35 11.1 7.4 5.16 2.57 10.46 4.22 15.32 4.78.03 0 .05.01.07.02l8.8-13.88c-5.74-.1-12.34-1.9-18.75-5.1m20.73 5.36c-.48.67-2.4 3.73-4.45 6.97l-6.34 9.9-8.73 12.3c-.83 1.17-1.68 2.33-2.4 3.58l-1.1 1.9c-.13.22-.25.44-.4.63-.17.2-.4.24-.65.12-.27-.14-.3-.47-.32-.74-.06-.48-.03-.97-.03-1.46l-.03-2.17-.03-1.7v-.13c-3.24-2.46-7.4-3.9-10.52-4.78a78.2 78.2 0 0 0-4.39-1.1l-.64 1.27-1.47 2.96c-.1.2-.2.37-.36.5-.17.13-.4.18-.58.1-.35-.16-.33-.56-.35-.88l-.26-3.73-.05-.6c0-.02-.01-.36-.03-.37-2.53-.44-5.1-.77-7.65-1a92.56 92.56 0 0 0-7.81-.36c-2.6-.01-5.2.08-7.8.28l-2.3.18c-.08.01-.17.04-.22.1-.06.07-.08.15-.1.24l-.13.7-.5 2.32c-.08.36-.1.82-.27 1.15-.25.5-.88.58-1.13.04-.14-.3-.2-.63-.3-.94l-.35-1.06-.7-2.08c-.6.05-1.2.18-1.8.28a59.72 59.72 0 0 0-1.93.33c-1.27.23-2.55.5-3.8.8-2.36.55-4.7 1.2-6.98 1.96-1.5.5-3 1.05-4.45 1.67-.3.13-.68.2-.75.5-.07.33.1.88.12 1.23.04 1.24-.17 2.52-.3 3.75-.02.26-.22.47-.47.52-.82.15-1.03-1.02-1.3-1.6-.56-1.2-1.2-2.48-1.5-3.78-.9-3.73-1.8-7.45-3.24-11.04-1.66-4.14-3.8-8.08-6.28-11.78a74.71 74.71 0 0 0-3.75-5.08c-.68-.85-1.37-1.67-2.08-2.5l-1.07-1.2c-.2-.2-.37-.4-.55-.6-.13-.14-.52-.42-.56-.6l1.93 7.54c2.34 9 4.55 17.5 5.13 25.73.74 10.6-.24 18.24-.9 23.3l-.16 1.3c-.01.04-.01.1-.02.13 1.1-1.1 2.44-2.02 4.07-2.4a6.26 6.26 0 0 1 1.49-.18 7.12 7.12 0 0 1 1.02.08h.01c.12.02.23.04.35.08 2.5.57 4.5 2.73 5.6 5.97.01.02.02.05.03.07 2.34-.76 4.66-1.07 6.94-.9.7.04 1.4.13 2.1.27.24.04.48.1.72.15a18.78 18.78 0 0 1 1.23.34c1.25.38 2.5.9 3.72 1.6 2.5 1.38 4.6 3.5 5.86 6 3.44 6.77 1.1 14.08-6.55 20.57-2.8 2.35-4.57 5.65-5.02 9.27-.33 2.7-1.78 5.24-4.3 7.6 2.04 4.62.55 10.18-3.63 13.14l-.2.15c-.66.45-1.5.43-2.12-.05a1.86 1.86 0 0 1-.67-2.09 9.21 9.21 0 0 0-.26-6.42c-3.44 1.8-9 3.98-14.66 3.3a7.69 7.69 0 0 1-.67-.09 12.13 12.13 0 0 1-1.67-.36c-.3-.08-.6-.17-.9-.27a13.66 13.66 0 0 1-1.78-.74 14.96 14.96 0 0 1-1.56-.89c-.01.01-.02.03-.03.04-1.45 1.86-2.3 4.13-2.4 6.56-.03.8-.54 1.44-1.3 1.68-.43.13-.87.1-1.25-.07a.3.3 0 0 1-.1-.04 1.79 1.79 0 0 1-.65-.55 11.61 11.61 0 0 1-.67-1c-2.82-4.66-2.37-10.47.82-14.62-1.63-4.9-2.6-18.57-2.8-21.5 0-.02-.01-.04-.01-.06-.47-4.63-1.03-9.2-1.64-13.63-2.22-.03-4.05-1.3-4.18-3-.13-1.6 1.22-3.02 3.2-3.5 0-.02-.01-.03-.01-.05l-.34-2.1c-2.52.27-4.65-.68-5-2.37-.2-.93.2-1.9 1.08-2.75.7-.66 1.67-1.16 2.75-1.47-.07-.4-.15-.8-.23-1.2-3.2.5-5.9-.4-6.28-2.15-.22-.97.3-2 1.44-2.9.88-.7 2.07-1.25 3.4-1.62l-.26-1.1-.18-.7c-2.72.66-5.1.38-6.22-.67-.06-.05-.1-.1-.17-.16-.04-.04-.07-.08-.1-.12-.15-.2-.26-.4-.33-.65-.5-1.78 1.55-3.86 4.86-5l-.54-1.57a.69.69 0 0 1-.13.02c-.75.16-1.5.17-2.13.02-.03-.01-.06-.01-.1-.03-.1-.01-.17-.04-.25-.07-.76-.25-1.28-.73-1.5-1.37-.24-.72-.02-1.52.6-2.26.4-.47.94-.87 1.57-1.2-2.55-6.02-5.83-12.1-9.96-18.47l-.03.12a90.96 90.96 0 0 1-3.47 10.23c-.03.06-.05.13-.08.2l-2.55 6.32-4.94 12.63-1.54 4.04c-3.26 8.55-6.2 18.3-8.74 26.93-.03.12-.07.23-.1.34.97-.48 2.02-.8 3.16-.88.14-.01.28-.01.4-.01a6.25 6.25 0 0 1 2.09.36 5.83 5.83 0 0 1 .91.43c.06.02.1.06.16.1 1.9 1.16 3.22 3.4 3.7 6.37l.03.2a18.64 18.64 0 0 1 2.66-.2c3.4 0 6.58.92 9.5 2.76.03.01.05.03.07.04a20.53 20.53 0 0 1 2 1.44c2.22 1.8 3.88 4.27 4.68 6.95 2.17 7.3-1.42 14.06-10.12 19.07a14.42 14.42 0 0 0-6.6 8.22c-.8 2.6-2.7 4.84-5.58 6.7 1.18 4.9-1.3 10.1-5.92 12.28l-.24.1c-.73.32-1.54.15-2.08-.43a1.9 1.9 0 0 1-.5-1.32 1.96 1.96 0 0 1 .22-.86c.85-1.58 1.2-3.32 1.08-5.05l-.03-.32a8.33 8.33 0 0 0-.16-1c-4.57 1.42-12.43 2.87-18.7-1.05-.14-.08-.28-.17-.4-.26l-.57-.4c-.5-.36-.95-.75-1.4-1.17l-.05.05c-1.74 1.57-3 3.65-3.52 6.02-.17.77-.8 1.32-1.58 1.4a1.74 1.74 0 0 1-1.37-.39c-.01 0-.02-.01-.02-.01-.2-.16-.35-.36-.47-.6-.17-.36-.33-.72-.47-1.1-.8-2.06-1-4.22-.74-6.3a13.06 13.06 0 0 1 4.16-7.96c-.63-4.33.35-14.8.83-19.45l.25-2.26.9-9.93c-.03-.01-.05-.02-.08-.03h-.01l-.12-.03c-2-.64-3.34-2.28-3.04-3.92.28-1.54 1.9-2.57 3.87-2.57h.1l.18-1.6c-.16-.02-.32-.05-.48-.08l-.43-.1c-2.2-.54-3.7-1.94-3.6-3.53.07-.95.7-1.78 1.8-2.34.86-.45 1.92-.68 3.05-.68a9.75 9.75 0 0 1 .53.02l.2-1.4c-.1-.01-.2-.03-.28-.05-1.4-.25-2.62-.72-3.54-1.32-.08-.04-.16-.1-.23-.15-1.1-.78-1.73-1.75-1.6-2.72.1-.86.76-1.57 1.83-2.05.16-.07.34-.14.52-.2.08-.03.15-.05.23-.07a4.26 4.26 0 0 1 .42-.11l.48-.1c.1-.02.2-.03.32-.05a10.21 10.21 0 0 1 1.38-.09c.4 0 .8.02 1.2.06l.27.03c.08-.44.15-.9.22-1.33l-.3-.06c-1.76-.35-3.2-1-4.12-1.82-.02-.01-.03-.02-.04-.03-.08-.08-.16-.15-.24-.23-.06-.07-.12-.13-.17-.2-.46-.55-.68-1.16-.6-1.77.12-1.02 1-1.82 2.37-2.3l.44-.13a9.18 9.18 0 0 1 .61-.14 11.13 11.13 0 0 1 2.07-.19 8.02 8.02 0 0 1 .83.05 2.3 2.3 0 0 1 .28.02l.2-1.27a2.13 2.13 0 0 1-.27-.07 5.41 5.41 0 0 1-.43-.14c-.1-.04-.2-.07-.3-.1-1.58-.68-2.53-1.92-2.28-3.13.26-1.17 1.57-1.9 3.2-1.9.3 0 .64.04.98.1l5.32-27.84.62-2.65c.8-3.18 1.6-6.48.7-9.58-.4-1.36-1.24-2.45-2.38-3.12l-.06-.03c-.53-.3-1.12-.5-1.75-.62-1.97-.32-3.86.34-5.1.96-3.65 1.82-6.8 5.07-9.34 9.65-1.4 2.53-2.4 5.3-3.24 8.08 1.8.77 2.87 2.22 2.48 3.52-.23.73-.86 1.26-1.8 1.5-.64.17-1.37.18-2.12.04l-.35 1.3c2.86.98 4.8 2.8 4.6 4.45-.07.57-.4 1.07-.94 1.44-1.1.75-3.06.93-5.2.5l-.3 1.4c.18.05.36.1.53.17 2.78.93 4.65 2.72 4.4 4.34-.1.58-.43 1.1-1 1.47-1.13.76-3.07.98-5.16.6-.08.47-.15.97-.22 1.47v.01a3.53 3.53 0 0 1 .31.08c.04.02.1.03.14.05.7.22 1.33.56 1.8 1 .72.65 1.03 1.42.9 2.16-.14.75-.7 1.35-1.6 1.7-.64.25-1.4.33-2.2.27l-.18 1.7c-.01.02-.01.03-.01.05.58.22 1.08.56 1.43 1 .46.52.7 1.17.62 1.85-.08.75-.5 1.4-1.18 1.86a2.92 2.92 0 0 1-.76.35c-.01.01-.03.01-.04.01-.1.03-.2.07-.3.1-.03.01-.07.02-.1.03-.04 0-.1.01-.14.02-.02 0-.04.01-.06.02-.4.28-.32 2.63-.32 2.94-.17 8.15-.84 16.3-1.2 24.44-.2 4.32-.12 8.7-.98 12.95-.23 1.16-.53 2.3-.92 3.42 3.2 4.2 3.76 10 1.1 14.82-.2.37-.42.73-.65 1.07a1.85 1.85 0 0 1-2.01.76h-.02c-.02 0-.04-.01-.05-.02-.76-.22-1.3-.86-1.36-1.65a12.12 12.12 0 0 0-2.85-6.87c-.02.01-.04.03-.06.04a13.85 13.85 0 0 1-1.55.97c-3.92 2.13-8.2 2.3-12.04 1.67a24.84 24.84 0 0 1-2.34-.48l-1.06-.28a36.72 36.72 0 0 1-5.3-2.03c0 .01 0 .01-.01.02-.82 2.18-.84 4.57-.02 6.8.3.8.06 1.65-.6 2.18a1.88 1.88 0 0 1-2.19.14l-.23-.15c-3.67-2.38-5.53-6.66-5.04-10.8.08-.67.22-1.33.42-2h.01a7.16 7.16 0 0 1 .25-.74c.01-.03.02-.05.03-.08-2.72-2.37-4.35-4.98-4.8-7.77-.62-3.78-2.63-7.17-5.66-9.54-8.3-6.47-11.04-14.02-7.73-21.25 1.22-2.66 3.3-4.98 5.87-6.53 3.2-1.93 6.55-2.9 10-2.9a19.27 19.27 0 0 1 4.03.44c.23.05.45.1.68.16l.68.18c1.08-3.66 3.24-6.1 6.03-6.7a6.58 6.58 0 0 1 1.32-.14 6.31 6.31 0 0 1 1.3.14 4.37 4.37 0 0 1 .49.12h.01c.2.06.4.13.6.2.16.06.32.12.47.2 1.1.47 2.16 1.2 3.16 2.2l.18.18c-.57-3.8-1.42-7.53-2.28-11.14l-1.65-7.45c-.43-2.22-.85-5.92-1.06-8.67v-.01c-.1-1.35-.17-2.46-.16-3.06.2-12.53 1.96-22.6 5.7-32.64a95.64 95.64 0 0 1 1.16-2.96c-3.33 3.52-9.7 10.7-13.1 17.57-.2.37-.36.73-.53 1.1a.37.37 0 0 0-.05.11l-.46.95c-.06.13-.12.26-.17.4-.03.05-.05.1-.06.13-3.32 7.32-4.93 13.57-5.6 16.7-.13.6-.48 1.12-.98 1.47l-2.83 4.06-.3.33-.36-.1a.6.6 0 0 1-.4-.59l.24-4c-5.22-2.3-11.54-4-18.45-5.02l-1.54 4.4-.18.4-.38-.02c-.25-.01-.48-.2-.54-.46l-1.05-4.8a90.82 90.82 0 0 0-5.04-.42c-7.2-.44-14.27-.08-20.64 1l-.43 5.7-.08.43-.36.08c-.25.05-.52-.06-.65-.3l-2.55-5.08c-5.12 1.2-9.5 2.87-12.7 4.92a19.83 19.83 0 0 0-1.92 1.4l-.1 5.8a.58.58 0 0 1-.4.55l-.48.1-1.97-3.36-21.36-32.8a.69.69 0 0 0-.03-.08 1.22 1.22 0 0 1-.07-.17c-.01-.06-.03-.12-.03-.18 0-.03-.02-.06-.02-.1s.02-.05.02-.08c.01-.06.02-.12.04-.18s.04-.1.07-.16a.5.5 0 0 1 .1-.14c.04-.05.1-.1.14-.14.02-.01.04-.04.06-.06.03-.01.05-.01.08-.03a.67.67 0 0 1 .17-.07c.06-.01.12-.03.18-.03.02 0 .05-.02.1-.02 5.65.08 12.4-1.68 18.9-4.94 5.68-2.83 10.78-6.6 14.36-10.64.18-.2.43-.3.7-.3a.9.9 0 0 1 .6.24c.08.07.14.16.2.26 3.94 2.05 8.63 3.58 13.6 4.43 9.67 1.64 19.14.42 24.13-3.1l.4-.3.42.26c3.13 1.87 7.74 3.95 11 4.36 4.15.54 8.25-.2 11.72-1 7.64-1.77 14.83-5.05 20.77-9.46 2.77-2.05 5.27-4.36 7.45-6.88 1.9-2.2 3.72-4.14 5.5-5.85-2-1.07-3.96-2.32-5.7-3.8-1.92-1.65-2.78-4.15-2.97-6.76-3.77 4.28-6.04 9.8-9.84 14.2-6.72 7.76-17.96 10.33-26.33 3.46-3.02-2.45-5.18-5.92-6.13-9.68l-2.98.6c-.38.07-.72-.27-.6-.65l1.92-10.56c.14-.73 1.12-.92 1.52-.28l5.57 8.85c.24.42 0 .93-.47 1.03l-1.8.37.6 1.1.12.2c.83 1.5 1.7 2.93 3.02 4.06 1.43 1.23 3.17 2.08 5 2.48 3.48.76 7.12-.12 10-2.24 3.02-2.22 5.26-5.4 7.06-8.66 3.8-6.88 9.37-12.8 16-17a17.5 17.5 0 0 1 1.85-1.03 64.4 64.4 0 0 1 6.33-7.78l-4.43-.7-.15-.03c-.05-.01-.1-.01-.16-.03a11.85 11.85 0 0 1-.78-.15c-.1-.01-.17-.03-.26-.05-1.2-.26-2.45-.5-3.5-.33-.42.07-.8.16-1.2.25-1.26.3-2.57.6-4.1.06-1.05-.37-4.25-2-4.7-3.67-.2-.77.03-1.27.27-1.55.5-.57 1.37-.74 2.4-.74.8 0 1.7.1 2.58.2.14.02.28.04.42.05-.05-.08-.1-.17-.15-.24l-.23-.37a1.36 1.36 0 0 1-.1-1.24 1.37 1.37 0 0 1 .93-.82c.9-.25 2.23-.48 3.45-.16.77.2 1.57.63 2.35 1.05.56.3 1.1.6 1.5.73-.06-.7.14-1.5.58-2.43l.36-.77a1.51 1.51 0 0 1 1.1-.83c.1-.01.17-.02.25-.02a1.54 1.54 0 0 1 1.07.44 4.75 4.75 0 0 0 1.64 1.12c.56.23.92.6 1.2 1.06.04.01.08.02.12.04.1.04 9.56 4.23 15.2 1.2.9-.48 1.5-.3 1.85-.08.3.2.78.7.67 1.9-.16 1.8-1.83 5.23-5.6 6.82-.01.01-.04.04-.06.1-.03.08-.03.17.01.24.36.7.72 1.7 1.05 2.84l2.9-.34 5.65-.57 1.42-.1 1.05-.1.18-.01.24-.01 2-.03c.67.02 1.34.1 2 .16 5.32.73 10.42 3.48 13.68 7.75a19.03 19.03 0 0 1 2.87 5.32c4.46.5 8.92 1.44 13.2 2.83a1.26 1.26 0 0 1 .1.03c.05.01.1.02.14.04 1.85.6 3.66 1.28 5.4 2.04-.01-.05-.01-.1-.02-.15l-.03-.3-.03-.27c-.02-.17-.03-.34-.04-.52a30.24 30.24 0 0 1-.02-2.55l.03-.8c.06-1.06.15-2.18.27-3.33l.1-.9a1.1 1.1 0 0 1 .02-.18c.04-.34.1-.68.14-1.02a25.22 25.22 0 0 1 .18-1.21l.2-1.18.22-1.16a23.11 23.11 0 0 1 .2-.96c.47-2.2 1.05-4.13 1.65-5.3.01-.01.02-.03.01-.05.01-.02.01-.04.01-.06.01-.04 0-.1-.01-.13-.01-.02-.02-.04-.02-.05-.02-.03-.04-.04-.05-.04-3.03-1.3-4.7-3.76-5.32-5.6-.04-.12-.08-.23-.1-.34-.01-.05-.02-.1-.04-.14-.07-.27-.1-.52-.13-.74-.01-.1-.02-.18-.02-.27 0-.12.01-.22.02-.32.06-.78.44-1.15.68-1.3.34-.23.94-.4 1.84.08 5.64 3.03 15.1-1.16 15.2-1.2.04-.02.08-.02.12-.03h.01c.25-.45.62-.84 1.18-1.07a5.09 5.09 0 0 0 1.64-1.1c.3-.3.67-.45 1.07-.45.08 0 .16.01.25.02.48.1.9.4 1.1.84l.36.76c.44.92.64 1.74.58 2.44.42-.14.95-.43 1.5-.73.78-.42 1.58-.86 2.35-1.06 1.22-.32 2.55-.1 3.45.16a1.38 1.38 0 0 1 .93.83c.16.4.12.85-.1 1.23-.17.27-.36.55-.56.83.64-.04 1.6-.14 2.9-.38.3-.06.6-.1.9-.1.4 0 .78.07 1.1.2.5.2.87.62 1 1.15a1.74 1.74 0 0 1-.37 1.56c-.44.5-.94.88-1.58 1.35a24.91 24.91 0 0 0-1.5 1.15c-1.75 1.45-3.95.9-5.56.5-.37-.1-.72-.18-1.04-.24-.72-.13-1.15.02-1.92.28-.65.2-1.46.48-2.7.66-.5.48-1.85 1.5-4.05 1.02 3.87 4.2 8.22 10.06 9.44 14.25 1.23 4.24 1.4 10.28-2.22 13.38-1.86 1.6-3.96 2.92-6.12 4.04 2.04 2.08 3.84 4.3 5.35 6.66 1.73 2.7 3.18 5.75 4.7 8.98l.3.62c2.38 5 10.37 8.25 10.5 8.3 6.26 3.08 22.17 9.37 34.9 1.27l.36-.22.38.18c11.28 5.65 25.83 5.07 38.1-1.45a1.05 1.05 0 0 1 .2-.27.96.96 0 0 1 .6-.23.97.97 0 0 1 .7.3c3.58 4.03 8.68 7.8 14.35 10.64 6.4 3.2 13 4.94 18.6 4.94h.34c.5 0 .92.4.92.9 0 .03-.01.05-.01.07.26.3.3.75.07 1.1m-185.414-32.05c3.427-1.382 7.204-2.192 10.92-2.344a31.79 31.79 0 0 1 1.382-.03c4.3 0 8.625.856 12.56 2.498l.637.273a.5.5 0 0 1 .255.66.5.5 0 0 1-.659.254l-.613-.262c-4.225-1.763-8.903-2.6-13.52-2.394a32.13 32.13 0 0 0-10.589 2.272.5.5 0 1 1-.373-.928m29.142-15.336c-5.602-2.553-11.886-3.8-18.203-3.584-5.068.15-10.176 1.257-14.77 3.197a.5.5 0 0 1-.389-.922c4.707-1.987 9.938-3.12 15.128-3.275.465-.015.93-.022 1.395-.022 6 0 11.926 1.268 17.253 3.696a.5.5 0 0 1 .248.662c-.114.252-.4.36-.662.248M173.833 67a39.79 39.79 0 0 1 13.726-2.934 41.26 41.26 0 0 1 1.363-.023 39.28 39.28 0 0 1 15.685 3.262l.6.265a.501.501 0 1 1-.42.909l-.573-.258a38.15 38.15 0 0 0-16.613-3.155c-4.57.148-9.197 1.136-13.378 2.858-.256.107-.548-.016-.652-.272a.5.5 0 0 1 .271-.652M189.2 221.773a1.43 1.43 0 0 0 .298.031c.82-.718 1.544-1.768 2.077-3 .248-.547.452-1.15.608-1.776.142-.58.242-1.15.3-1.7-.356-.822-.938-1.406-1.686-1.555-1.497-.298-3.058 1.257-3.503 3.473-.433 2.207.42 4.247 1.916 4.545m9.965.76a1.74 1.74 0 0 0 .757-.031c.576-.694 1.06-1.568 1.417-2.576.122-.3.217-.62.302-.954a12.09 12.09 0 0 0 .263-1.551c-.27-.763-.777-1.308-1.437-1.438-1.232-.24-2.5 1.023-2.863 2.836-.36 1.813.34 3.475 1.56 3.714"/></g></g><g clip-path="url(#H)" class="B"><g clip-path="url(#I)" class="C"><path d="M146.172 159.772c.053-1.04-.385-1.907-.98-1.937s-1.118.787-1.17 1.827.385 1.907.98 1.938 1.118-.788 1.17-1.828"/></g><g clip-path="url(#J)" class="C"><path d="M150.192 151.208c.053-1.04-.385-1.907-.98-1.937s-1.118.788-1.17 1.828.385 1.906.98 1.937 1.118-.788 1.17-1.828"/></g><g clip-path="url(#K)" class="C"><path d="M131.844 208.638c-1.04-.042-1.903.406-1.926 1s.8 1.11 1.84 1.15 1.903-.406 1.926-1-.8-1.11-1.84-1.15"/></g><g clip-path="url(#L)" class="C"><path d="M127.626 208.384c-.504-.13-.973-.001-1.047.287s.275.626.78.756.973.001 1.047-.287-.275-.626-.78-.756"/></g><g clip-path="url(#M)" class="C"><path d="M136.582 209.175c-.52.006-.94.25-.937.55s.428.534.95.528.94-.252.936-.55-.427-.533-.948-.528"/></g><g clip-path="url(#N)" class="C"><path d="M182.7 226.635c-1.04-.004-1.887.474-1.9 1.07s.84 1.08 1.88 1.084 1.887-.474 1.89-1.07-.84-1.08-1.88-1.084"/></g><g clip-path="url(#O)" class="C"><path d="M179.04 225.96c-.51-.11-.973.034-1.036.324s.297.616.806.728.972-.034 1.036-.324-.298-.617-.806-.728"/></g><g clip-path="url(#P)" class="C"><path d="M187.444 227.002c-.52.024-.93.285-.916.582s.447.518.967.494.93-.285.916-.582-.447-.518-.967-.494"/></g><g clip-path="url(#Q)" class="C"><path d="M254.697 212.278c-1.023.193-1.762.824-1.652 1.408s1.03.9 2.052.707 1.763-.823 1.653-1.407-1.03-.9-2.053-.708"/></g><g clip-path="url(#R)" class="C"><path d="M250.53 212.98c-.52-.013-.948.218-.956.515s.41.548.93.56.948-.218.955-.515-.408-.548-.93-.56"/></g><g clip-path="url(#S)" class="C"><path d="M259.435 211.735c-.506.123-.86.457-.8.746s.538.423 1.043.3.86-.456.79-.745-.536-.424-1.042-.3"/></g><g clip-path="url(#T)" class="C"><path d="M148.075 144.205c.053-1.04-.385-1.907-.98-1.937s-1.118.788-1.17 1.827.385 1.907.98 1.938 1.118-.788 1.17-1.828"/></g><g clip-path="url(#U)" class="C"><path d="M152.583 137.305c.03-.6-.218-1.082-.555-1.1s-.634.447-.665 1.037.22 1.082.555 1.1.635-.447.665-1.037"/></g><g clip-path="url(#V)" class="C"><path d="M176.428 177.25c.25-1.01.92-1.715 1.497-1.572s.843 1.077.593 2.088-.92 1.714-1.496 1.572-.843-1.077-.594-2.088"/></g><g clip-path="url(#W)" class="C"><path d="M176.237 167.82c.22-1.018.87-1.74 1.452-1.614s.873 1.053.652 2.07-.87 1.74-1.452 1.613-.873-1.052-.652-2.07"/></g><g clip-path="url(#X)" class="C"><path d="M180.96 162.214c.23-1.016.884-1.733 1.464-1.603s.865 1.06.637 2.076-.885 1.733-1.465 1.602-.865-1.06-.636-2.075"/></g><g clip-path="url(#Y)" class="C"><path d="M179.67 154.03c.112-.58.472-.998.803-.934s.51.586.396 1.166-.47.998-.803.934-.508-.586-.396-1.166"/></g><g clip-path="url(#Z)" class="C"><path d="M238.417 170.895c-.035-1.04.42-1.9 1.013-1.92s1.104.808 1.14 1.848-.42 1.9-1.013 1.92-1.104-.807-1.14-1.848"/></g><g clip-path="url(#a)" class="C"><path d="M235.67 161.4c-.064-1.04.365-1.91.958-1.948s1.127.777 1.19 1.816-.365 1.91-.96 1.947-1.126-.776-1.2-1.815"/></g><g clip-path="url(#b)" class="C"><path d="M238.77 154.755c-.056-1.04.38-1.908.974-1.94s1.12.785 1.176 1.824-.38 1.908-.974 1.94-1.12-.785-1.176-1.825"/></g><g clip-path="url(#c)" class="C"><path d="M235.304 147.23c-.05-.588.183-1.09.52-1.117s.648.426.698 1.014-.183 1.09-.52 1.117-.65-.426-.698-1.014"/></g><g clip-path="url(#d)" class="C"><path d="M144.305 54.57c.053-1.04-.385-1.907-.98-1.937s-1.118.788-1.17 1.828.385 1.907.98 1.937 1.118-.788 1.17-1.828"/></g><g clip-path="url(#e)" class="C"><path d="M146.393 58.27c-.563-.58-1.29-.8-1.62-.47s-.144 1.054.42 1.634 1.288.8 1.62.47.143-1.054-.42-1.634"/></g><g clip-path="url(#f)" class="C"><path d="M144.93 49.826c.267-.764.13-1.506-.307-1.658s-1.006.344-1.273 1.107-.128 1.507.308 1.66 1.006-.343 1.272-1.108"/></g></g></g><path d="M318.326 269.882l-22.533-42.75c-8.634-16.005-14.32-22.954-24.007-28.64l-33.483 7.58v7.792c10.74 0 14.952 3.16 27.376 21.06l21.27 34.326c3.37 5.475 5.896 10.32 9.266 17.9v29.272c-.2 12.846-.42 16.215-1.895 17.7-1.264 1.264-3.16 1.895-8.213 2.316l-7.792.632v8.423l32.64-.632c7.58 0 14.952.2 32.852.632v-8.423l-7.792-.632c-4.843-.42-6.74-.842-8.002-2.106-1.685-1.685-1.895-4.633-2.106-17.9v-34.326c3.8-8.845 7.16-15.162 11.16-21.06l37.063-54.963v-4h-16.215zm73.6 70.758v4.843l32.852-.632c5.686 0 13.267.2 20.216.42 4.844.2 9.687.2 12.425.2 25.06 0 48.224-8.845 64.018-24.428 14.32-14.1 21.7-32.64 21.7-55.384 0-20.006-5.686-36.43-16.215-46.75-12.214-12.003-29.903-17.48-57.28-17.48l-28.64.42-22.112.2c-2.738 0-2.738 0-33.904-.632v7.792l7.792.632c9.687.842 9.898 1.685 10.108 20.637v94.343c-.2 7.58-1.053 10.108-4.212 12.003zm40.643-127.826c4.843-.632 8.002-.842 13.056-.842 14.74 0 31.377 2.738 40.222 6.74 4.212 2.106 8.213 4.844 11.793 8.423 9.476 9.266 13.9 23.586 13.9 44.434 0 21.48-5.054 37.274-15.373 47.382-10.53 10.32-25.48 14.952-49.277 14.952-5.686 0-9.055-.2-14.32-1.053zM563.237 337.06v8.423l32.64-.632c7.58 0 14.952.2 32.852.632v-8.423l-7.792-.632c-4.843-.42-6.74-.842-8.002-2.106-1.685-1.685-1.895-4.633-2.106-17.9V213.866c2.948-1.264 6.74-1.895 12.214-1.895 18.953 0 29.693 9.687 29.693 26.955 0 17.7-12.214 29.693-29.903 29.693h-3.8l-1.474 3.8 47.17 73.074 18.953-.632 20.427.632v-8.423c-7.58-1.474-9.687-2.738-14.74-9.476l-38.116-57.7c11.793-4.843 16.847-8.002 22.533-14.32 5.896-6.74 8.845-14.32 8.845-23.165 0-20.637-13.478-30.956-40-30.956-2.316 0-7.37 0-14.53.2-5.686.2-22.743.42-27.587.42-5.896 0-5.896 0-37.274-.632v7.792l7.792.632c9.687.842 9.898 1.685 10.108 20.637v85.92c-.2 12.635-.42 16.215-1.895 17.7-1.264 1.264-3.16 1.895-8.213 2.316zm250.07-35.6l9.476 24.007c.842 2.106 1.264 4.212 1.264 5.896 0 3.16-1.895 5.475-4.212 5.686l-11.16.632v7.792l32-.632c4 0 14.32.2 33.273.632v-7.792l-5.054-.632c-5.896-.842-8.845-3.16-11.582-9.266L802.78 200.388H787.83l-5.896 15.794c-2.948 8.213-5.054 13.688-6.107 16.005L737.7 324.424c-3.58 8.213-7.16 12.214-11.793 12.635l-6.318.632v7.792l23.796-.632a299.85 299.85 0 0 1 11.793.211c1.685.2 5.686.2 12.003.42V337.7l-10.53-.632c-3.58-.2-6.107-3.16-6.107-6.74 0-1.474.42-3.37 1.053-5.265l8.845-23.586zm-26.745-65.282l21.9 53.5h-42.96z" fill="#e88444" stroke="#ac5015" stroke-width="6"/><path d="M800.065 277.083c-1.425 2.426-2.558 5.026-3.246 7.748l-4.793-.98c-.61-.113-1.157.434-.98 1.045l3.088 16.98c.225 1.174 1.8 1.478 2.443.45l8.957-14.23c.386-.675 0-1.495-.756-1.656l-.963-.197-1.932-.397.965-1.754.05-.088z" class="B"/><path d="M880.56 329.847l2.785 2.727c-5.757.98-8.006.82-8.006.82l-.47.062c-.08.014-.176.015-.256.05l-1.256.24c-2.99.693-3.923 1.607-6.143 1.223-2.653-.466-6.75-2.3-9.744.162-2.348 1.962-3.747 2.668-4.824 3.904-.74.886-.482 2.238.596 2.656.595.24 1.447.352 2.62.11 3.586-.643 6.463-.836 6.945-.42h.017c-.82.918-1.51 1.835-2.074 2.75-.418.677-.082 1.53.674 1.723 1.254.352 3.25.724 4.986.258 2.074-.53 4.663-2.447 6.367-2.928.66-.177 1.27.402 1.19 1.076-.08.693.032 1.817.836 3.475l.58 1.22c.386.854 1.495 1.032 2.154.39a8.69 8.69 0 0 1 2.99-2.043c.322-.13.58-.3.805-.514 0 0 17.014-8.444 26.727-3.25 4.47 2.412 2.476-8.17-5.998-11.74-.69-.308-1.025-1.188-.762-1.95z" fill="#6ca6c0"/><path d="M880.017 329.847l2.22 2.422-7.123 1.14-.242.05c-.08.016-.175.017-.256.05l-1.256.24c-.145.016-.273.048-.418.08-1.93.418-3.94.82-5.645.53l-1.93-.402c-2.026-.482-4.13-.982-6.607-.098-1.688.595-6.835 3.217-7.56 5.902-.338 1.238.047 2.042.434 2.492.788.917 2.205 1.19 3.877 1.19 1.286 0 2.733-.162 4.148-.322l.674-.078-.24.385-.37.596a2.24 2.24 0 0 0-.178 1.994 2.2 2.2 0 0 0 1.496 1.318c1.447.402 3.585.772 5.547.258 1.238-.322 2.525-1.014 3.78-1.69.9-.5 1.752-.965 2.428-1.174-.096 1.1.226 2.43.934 3.908l.578 1.238c.338.707 1.014 1.205 1.77 1.334l.402.03c.643 0 1.254-.257 1.72-.707.772-.804 1.656-1.4 2.637-1.8.9-.37 1.478-.98 1.912-1.705.064-.016.13-.03.193-.062.16-.064 15.374-6.802 24.443-1.93 1.447.772 2.412.497 2.975.127.482-.322 1.253-1.14 1.076-3.055-.257-2.878-2.942-8.4-9.004-10.967-.016-.016-.065-.063-.098-.16-.048-.13-.048-.274.016-.387a15.7 15.7 0 0 0 .348-.748h-2.598a2.85 2.85 0 0 0 0 1.955c.24.69.755 1.254 1.398 1.527 3.988 1.688 6.577 5.194 7.365 7.928.354 1.27.193 1.865.258 1.88-.048 0-.258-.016-.61-.21-8.458-4.535-20.904-.37-25.117 1.287 0-.917-.13-1.785-.307-2.46-.16-.563-.756-.9-1.318-.74a1.05 1.05 0 0 0-.756 1.303c.016.048.95 3.65-.996 4.438-1.238.515-2.365 1.27-3.346 2.268-.08.08-.176.08-.225.08-.064-.016-.145-.047-.21-.16l-.578-1.223c-.74-1.544-.773-2.477-.725-2.895.08-.69-.192-1.366-.723-1.816-.5-.434-1.175-.58-1.818-.402-.917.257-1.946.82-3.04 1.398-1.142.627-2.332 1.254-3.312 1.512-1.576.418-3.457.033-4.486-.37l.37-.61c.9-1.512 1.913-3.2 3.537-4.068.997-.53 2.847-.16 4.326.13l.24.047c.58.13 1.14-.273 1.254-.852s-.273-1.14-.852-1.254l-.225-.05c-1.817-.354-4.086-.788-5.742.08-1.06.563-1.88 1.35-2.572 2.188-.707.032-1.56.128-2.477.225-1.93.225-5.515.627-6.158-.13-.097-.113-.032-.385 0-.53.37-1.35 4.084-3.683 6.207-4.455 1.897-.66 3.442-.3 5.42.16.66.16 1.334.307 2.04.436 2.107.37 4.423-.113 6.465-.547.707-.145 1.4-.3 2.06-.387l8.635-1.383c.884.884 1.753 1.69 2.54 2.38a1.18 1.18 0 0 0 .771.289c.338 0 .675-.145.9-.402.434-.5.385-1.253-.113-1.687-1.484-1.296-3.19-2.98-4.963-4.88z" class="B"/></svg>