<?xml version="1.0" encoding="UTF-8"?>
<svg version="1.1" viewBox="0 0 1223.2 351.24" xml:space="preserve" xmlns="http://www.w3.org/2000/svg" xmlns:cc="http://creativecommons.org/ns#" xmlns:dc="http://purl.org/dc/elements/1.1/" xmlns:rdf="http://www.w3.org/1999/02/22-rdf-syntax-ns#"><metadata><rdf:RDF><cc:Work rdf:about=""><dc:format>image/svg+xml</dc:format><dc:type rdf:resource="http://purl.org/dc/dcmitype/StillImage"/><dc:title/></cc:Work></rdf:RDF></metadata><defs><clipPath id="w"><path d="M 0,252.757 H 379.169 V 0 H 0 Z"/></clipPath><clipPath id="l"><path d="M 0,252.757 H 379.169 V 0 H 0 Z"/></clipPath><clipPath id="b"><path d="m234.23 57.027h2.159v-3.7669h-2.159z"/></clipPath><clipPath id="a"><path d="m231.83 60.89h1.847v-2.8234h-1.847z"/></clipPath><clipPath id="af"><path d="m232.65 50.962h1.851v-2.8209h-1.851z"/></clipPath><clipPath id="ae"><path d="M 0,252.757 H 379.169 V 0 H 0 Z"/></clipPath><clipPath id="ad"><path d="M 0,252.757 H 379.169 V 0 H 0 Z"/></clipPath><clipPath id="ac"><path d="M 0,252.757 H 379.169 V 0 H 0 Z"/></clipPath><clipPath id="ab"><path d="m144.02 161.6h2.159v-3.766h-2.159z"/></clipPath><clipPath id="aa"><path d="m148.04 153.04h2.159v-3.767h-2.159z"/></clipPath><clipPath id="z"><path d="m129.92 210.79h3.768v-2.157h-3.768z"/></clipPath><clipPath id="y"><path d="m126.57 209.48h1.845v-1.143h-1.845z"/></clipPath><clipPath id="x"><path d="m135.64 210.25h1.885v-1.077h-1.885z"/></clipPath><clipPath id="v"><path d="m180.8 228.79h3.77v-2.153h-3.77z"/></clipPath><clipPath id="u"><path d="m178 227.05h1.856v-1.127h-1.856z"/></clipPath><clipPath id="t"><path d="m186.53 228.08h1.884v-1.079h-1.884z"/></clipPath><clipPath id="s"><path d="m253.03 214.45h3.727v-2.229h-3.727z"/></clipPath><clipPath id="r"><path d="m249.58 214.06h1.884v-1.077h-1.884z"/></clipPath><clipPath id="q"><path d="m258.64 212.83h1.85v-1.137h-1.85z"/></clipPath><clipPath id="p"><path d="m145.92 146.03h2.159v-3.767h-2.159z"/></clipPath><clipPath id="o"><path d="m151.36 138.34h1.225v-2.137h-1.225z"/></clipPath><clipPath id="n"><path d="m176.34 179.36h2.277v-3.697h-2.277z"/></clipPath><clipPath id="m"><path d="m176.16 169.91h2.251v-3.713h-2.251z"/></clipPath><clipPath id="k"><path d="m180.88 164.3h2.258v-3.709h-2.258z"/></clipPath><clipPath id="j"><path d="m179.64 155.2h1.266v-2.113h-1.266z"/></clipPath><clipPath id="i"><path d="m238.42 172.74h2.156v-3.769h-2.156z"/></clipPath><clipPath id="h"><path d="m235.66 163.21h2.161v-3.766h-2.161z"/></clipPath><clipPath id="g"><path d="m238.77 156.58h2.16v-3.766h-2.16z"/></clipPath><clipPath id="f"><path d="m235.3 148.24h1.23v-2.134h-1.23z"/></clipPath><clipPath id="e"><path d="m142.15 56.399h2.159v-3.7669h-2.159z"/></clipPath><clipPath id="d"><path d="m144.61 60.053h2.367v-2.4038h-2.367z"/></clipPath><clipPath id="c"><path d="m143.22 50.962h1.852v-2.8209h-1.852z"/></clipPath>





</defs>

















<g transform="scale(.86291 1.1589)" fill="#e88444" stroke="#ac5015" stroke-width="6" style="font-feature-settings:normal;font-variant-caps:normal;font-variant-ligatures:normal;font-variant-numeric:normal" aria-label="H"><path d="m117.1 62.843v-14.613c-43.84 1.096-43.84 1.096-56.992 1.096-12.787 0-13.152 0-56.627-1.096v14.613l13.517 1.096c17.171 1.4613 17.171 1.4613 17.536 34.707v149.06c-0.36534 22.286-0.73067 28.131-3.288 30.688-2.192 2.192-5.48 3.288-14.248 4.0187l-13.517 1.096v14.613c30.688-0.73067 43.84-1.096 56.627-1.096 13.152 0 25.939 0.36534 56.992 1.096v-14.613l-13.517-1.096c-8.4027-0.73067-11.691-1.4613-13.883-3.6534-2.9227-2.9227-3.288-8.0374-3.6534-31.054v-69.414c8.7681-0.36533 16.075-0.73067 29.592-0.73067h53.339c13.152 0 20.824 0.36534 29.592 0.73067v69.414c-0.36534 22.286-0.73067 28.131-3.288 30.688-2.192 2.192-5.48 3.288-14.248 4.0187l-13.517 1.096v14.613c30.688-0.73067 43.84-1.096 56.627-1.096s25.939 0.36534 56.992 1.096v-14.613l-13.517-1.096c-8.4027-0.73067-11.691-1.4613-13.883-3.6534-2.9227-2.5574-3.288-8.0374-3.6534-31.054v-149.06c0.36533-22.286 0.73067-27.766 3.288-30.688 2.192-2.192 5.48-3.288 14.248-4.0187l13.517-1.096v-14.613c-43.84 1.096-43.84 1.096-56.992 1.096-12.787 0-13.152 0-56.627-1.096v14.613l13.517 1.096c17.171 1.4613 17.171 1.8267 17.536 34.707v57.723c-8.0374 0.36533-14.248 0.73067-29.592 0.73067h-53.339c-15.344 0-21.555-0.36534-29.592-0.73067v-57.723c0.36534-21.92 0.73067-27.766 3.288-30.688 2.192-2.192 5.48-3.288 14.248-4.0187z" fill="#e88444" stroke="#ac5015" stroke-width="6" style="font-feature-settings:normal;font-variant-caps:normal;font-variant-ligatures:normal;font-variant-numeric:normal"/></g>
<g transform="matrix(1.151 0 0 1.151 -1919 -1499)"><g transform="matrix(1.3971 0 0 -1.3971 2224.1 1637.7)"><g clip-path="url(#w)"><g transform="translate(248 100.74)"><path d="m0 0v0.01c0.08 0.05 0.15 0.09 0-0.01" fill="#6ca6c0"/></g><g transform="translate(360.26 106.81)"><path d="m0 0c0.021-0.06 0-0.13-0.07-0.13-5.54 0.04-12.36-1.63-19.19-5.04-6-2.99-11.05-6.82-14.59-10.8-0.03-0.03-0.06-0.04-0.1-0.02-2.37 1.28-5.08 2.39-8.05 3.27-0.14 0.04-0.28 0.09-0.42 0.13-1.83 0.53-3.75 0.97-5.75 1.31-5.62 0.95-10.98 0.961-15.5 0.18-3.4-0.58-6.33-1.6-8.54-3-0.22-0.129-0.44-0.28-0.64-0.42l-0.15 0.09c-1.4 0.83-3.04 1.68-4.72 2.41-2.21 0.96-4.47 1.71-6.35 1.96-0.02 0-0.04 0.01-0.06 0.01-0.14 0.02-0.29 0.03-0.43 0.05-2.12 0.24-4.26 0.22-6.38 0.01-0.24-0.02-0.49-0.05-0.75-0.079-3.93-0.471-7.81-1.591-11.47-3.011-5.37-2.08-12.87-5.27-15.8-10.52-1.84-3.31-3.37-6.18-5.1-9.54-1.44-2.78-2.05-5.219-4.22-7.5-0.4-0.429-0.82-0.83-1.24-1.24 2.041-1.08 3.99-2.32 5.74-3.82 1.44-1.23 2.23-3.02 2.56-4.98 0.05-0.259 0.09-0.53 0.12-0.799 0.13-1.17 0.1-2.38-0.03-3.571-0.03-0.22-0.06-0.429-0.09-0.65 0-0.02 0-0.04-9e-3 -0.06-0.031-0.219-0.071-0.44-0.111-0.66-0.11-0.6-0.25-1.18-0.41-1.729-0.01-0.051-0.02-0.111-0.04-0.161-1.6-5.5-6.09-12.16-9.98-15.58 3.35 1.62 4.97-0.509 4.97-0.509 2.9-0.401 3.42-1.281 5.06-0.981 1.65 0.29 4.19 1.43 6.06-0.1 1.451-1.22 2.33-1.66 2.99-2.43 0.12-0.14 0.2-0.3 0.24-0.47 0.04-0.2 0.03-0.4-0.029-0.58-0.091-0.26-0.281-0.49-0.571-0.6-0.38-0.15-0.9-0.22-1.64-0.08-2.23 0.41-4.01 0.52-4.31 0.27h-0.01c0.5-0.569 0.93-1.15 1.29-1.72 0.08-0.13 0.12-0.269 0.11-0.41 0-0.03 0-0.06-0.01-0.08-0.04-0.26-0.23-0.5-0.52-0.569-0.79-0.221-2.03-0.451-3.11-0.161-1.29 0.33-2.9 1.52-3.96 1.82-0.2 0.06-0.41-0.01-0.55-0.15-0.13-0.12-0.21-0.31-0.19-0.52 0.05-0.43-0.01-1.13-0.51-2.159l-0.29-0.601-0.08-0.17c-0.24-0.519-0.92-0.63-1.33-0.229-0.44 0.449-1.06 0.929-1.87 1.269-0.19 0.08-0.36 0.18-0.5 0.31l-0.18 0.091h-0.01c-1.45 0.689-10.87 4.919-16.42 1.939-0.839-0.45-1.32-0.17-1.42 0.521-0.01 0.099-0.02 0.199-0.02 0.319 0 0.09 0.01 0.17 0.02 0.27 0.01 0.22 0.06 0.48 0.13 0.741 0.02 0.049 0.03 0.089 0.04 0.139 0.03 0.111 0.07 0.22 0.11 0.34 0.65 1.72 2.27 3.87 4.86 4.97 0.27 0.12 0.46 0.38 0.51 0.681 0.02 0.059 0.03 0.12 0.03 0.179 0 0.02 0 0.04-0.01 0.06 0.01 0.02 0 0.04-0.01 0.051 0 0.129-0.03 0.259-0.09 0.379-0.56 1.11-1.1 2.88-1.56 4.93-0.07 0.311-0.14 0.63-0.2 0.96-0.07 0.38-0.15 0.771-0.22 1.16-0.07 0.39-0.13 0.781-0.2 1.18-0.07 0.4-0.13 0.81-0.18 1.21-0.05 0.34-0.1 0.681-0.14 1.02-0.01 0.06-0.02 0.121-0.02 0.18-0.04 0.3-0.08 0.61-0.11 0.91-0.12 1.151-0.21 2.27-0.27 3.33-0.01 0.281-0.02 0.55-0.03 0.81-0.03 0.94-0.02 1.801 0.02 2.551 0.01 0.179 0.02 0.349 0.04 0.519 0.01 0.09 0.02 0.191 0.03 0.27 0.01 0.1 0.02 0.2 0.03 0.29 0.01 0.051 0.01 0.1 0.02 0.15 0.01 0.03 0.02 0.06 0.02 0.09-1.85-0.74-3.73-1.38-5.56-2.17-0.04-0.01-0.07-0.019-0.11-0.03-0.04-0.01-0.08-0.01-0.12-0.01-0.13 0-0.26 0.03-0.37 0.11-5.01-1.589-10.2-2.58-15.44-2.95-1.51-0.12-3.03-0.17-4.54-0.17-0.56 0-1.13 0-1.68 0.02-1.899 0.04-3.79 0.17-5.63 0.39-3.65 0.451-7.21 1.23-10.6 2.34-0.08-0.05-0.169-0.09-0.27-0.09-0.03-0.02-0.07-0.02-0.1-0.02-0.08 0-0.16 0.011-0.24 0.04-1.47 0.5-2.9 1.05-4.3 1.67-0.23 0.09-0.46 0.2-0.69 0.301 0.431-4.741-1.05-15.191-2.87-18.771-0.26-0.5-0.05-1.139 0.42-1.349 5.27-2.221 6.51-8.801 3.73-7.301-6.04 3.23-16.62-2.02-16.62-2.02-0.14-0.139-0.3-0.24-0.5-0.32-0.81-0.33-1.43-0.819-1.86-1.27-0.41-0.4-1.1-0.29-1.34 0.241l-0.36 0.759c-0.5 1.031-0.57 1.73-0.52 2.161 0.05 0.419-0.33 0.779-0.74 0.669-1.06-0.299-2.67-1.49-3.96-1.82-1.08-0.29-2.32-0.059-3.1 0.16-0.47 0.12-0.68 0.65-0.42 1.071 0.35 0.569 0.78 1.139 1.29 1.71h-0.01c-0.3 0.259-2.09 0.139-4.32-0.261-0.73-0.15-1.26-0.08-1.63 0.07-0.67 0.26-0.83 1.1-0.37 1.651 0.67 0.769 1.54 1.209 3 2.429 1.861 1.531 4.41 0.39 6.06 0.1 1.38-0.239 1.96 0.33 3.82 0.761 0.26 0.059 0.53 0.109 0.78 0.149 0.05 0.021 0.11 0.021 0.16 0.03 0.09 0.01 0.19 0.031 0.291 0.04 0 0 1.399-0.1 4.979 0.51-3.9 3.42-8.39 10.08-9.99 15.59-1.21 4.17-1.27 9.79 2 12.601 1.72 1.479 3.63 2.709 5.64 3.769-3.05 3.01-5.86 6.4-8.379 10.16-3.811 2.72-11.891 8.53-12.311 8.8-0.01 0.01-0.01 0.01-0.03 0.021-4.1 2.04-8.45 3.599-12.88 4.62-3.93 0.899-7.96 1.529-11.98 1.009-1.89-0.24-4.18-1-6.42-1.969-1.67-0.731-3.31-1.58-4.71-2.41-0.05-0.031-0.1-0.061-0.15-0.09-0.2 0.139-0.42 0.289-0.64 0.42-2.21 1.399-5.14 2.42-8.54 3-4.52 0.779-9.88 0.769-15.5-0.181-2-0.34-3.92-0.779-5.75-1.31-0.14-0.04-0.28-0.089-0.42-0.13-2.97-0.879-5.68-1.99-8.06-3.27-0.03-0.02-0.07-0.01-0.09 0.02-3.55 3.98-8.6 7.81-14.59 10.8-6.83 3.41-13.65 5.08-19.2 5.04-0.06 0-0.1 0.071-0.06 0.13 1.43 2.21 2.86 4.41 4.31 6.611 1.84 2.83 3.69 5.669 5.53 8.5 3.36 5.149 6.72 10.299 10.07 15.469 0.02 0.02 0.03 0.03 0.04 0.05 0.12 0.19 0.25 0.38 0.37 0.57l0.06 0.09c0.06 0 0.13-0.01 0.19-0.01 0.011 0 0.02-0.01 0.03-0.01 0.11 0 0.21-0.01 0.33-0.02 0.61-0.05 1.25-0.09 1.91-0.15 0.04 0 0.08-0.04 0.08-0.08l0.03-1.59c-0.16 0.08-0.32 0.16-0.47 0.25 3.14-2.77 7.28-4.449 11.19-5.68 2.03-0.639 4.13-1.19 6.28-1.65 9.55-2.06 20.131-2.42 30.26-0.989 8.18 1.139 22.36 5.929 22.52 5.929 1.13-6.62 4.21-11.889 6.99-17.61 0.01-0.04 0.03-0.08 0.06-0.13 0.21-0.45 0.42-0.89 0.63-1.34 0.01-0.04 0.03-0.08 0.05-0.11 0.41-0.869 0.8-1.75 1.17-2.65 2.38-5.74 8.84-13.07 13.54-17.589-0.41 1-0.64 3.889-1.02 4.929-0.1 0.29-3.16 8.16-4.71 16.68-1.34 7.36-1.859 15.17-2.03 18.63v0.01c0.21 2.75 0.63 6.45 1.06 8.67 0.49 2.5 1.08 5.02 1.65 7.45 0.86 3.61 1.711 7.33 2.28 11.14l-0.18-0.18c-0.02 0.03-0.07 0.03-0.11 0-0.96-0.96-1.99-1.69-3.05-2.19-0.15-0.07-0.31-0.13-0.47-0.19-0.2-0.07-0.4-0.14-0.61-0.2h-0.01c-0.16-0.05-0.33-0.09-0.49-0.12-0.43-0.09-0.86-0.14-1.3-0.14s-0.88 0.05-1.32 0.14c-2.79 0.59-4.95 3.03-6.029 6.69-0.231-0.06-0.451-0.12-0.681-0.18s-0.45-0.11-0.68-0.16c-1.36-0.29-2.7-0.44-4.03-0.44-3.44 0-6.78 0.97-9.99 2.9-2.56 1.55-4.65 3.87-5.869 6.53-3.311 7.23-0.571 14.78 7.729 21.25 3.03 2.37 5.04 5.76 5.66 9.54 0.46 2.79 2.09 5.4 4.81 7.77-0.01 0.03-0.02 0.05-0.03 0.08 0.01 0.01 0.03 0.02 0.04 0.03 0.03 0.02 0.041 0.05 0.03 0.09-1.84 4.78-0.07 10.35 4.3 13.18l0.23 0.14c0.59 0.37 1.33 0.32 1.88-0.12 0.57-0.46 0.77-1.21 0.52-1.9-0.83-2.28-0.82-4.72 0-6.94 0.01-0.04 0.06-0.06 0.1-0.04 0.1 0.05 0.19 0.09 0.29 0.13 1.47 0.69 3.29 1.43 5.32 2.01 0.35 0.1 0.7 0.19 1.06 0.28 0.76 0.19 1.54 0.35 2.34 0.48 3.83 0.6 8.04 0.39 11.91-1.71 0.53-0.29 1.061-0.6 1.561-0.95 0.029-0.03 0.079-0.02 0.109 0.01l0.01 0.01c1.59 1.89 2.56 4.25 2.77 6.79 0.07 0.85 0.66 1.52 1.5 1.69 0.01 0.01 0.03 0.02 0.05 0.02h0.02c0.791 0.13 1.57-0.32 2-0.99 0.18-0.28 0.36-0.57 0.53-0.87 2.65-4.8 2.09-10.61-1.08-14.79-0.01-0.03-0.02-0.05-0.01-0.08 1.49-4.32 1.66-9.19 1.67-14.24l0.26-9.3-0.13-0.07c0.26-7.41 0.66-13.95 1.26-19.94 0-0.04 0.03-0.07 0.07-0.07 0.14-0.01 0.27-0.02 0.4-0.05 0.071-0.01 0.14-0.02 0.2-0.04 0.04-0.01 0.08-0.02 0.11-0.03 0.11-0.02 0.21-0.06 0.31-0.09 0.01 0 0.03 0 0.04-0.01 0.33-0.13 0.64-0.3 0.911-0.52 0.549-0.45 0.889-1.06 0.959-1.72 0.07-0.63-0.13-1.28-0.55-1.82-0.01-0.02-0.02-0.03-0.03-0.05-0.36-0.44-0.83-0.78-1.39-0.99-0.12-0.05-0.239-0.1-0.36-0.13-0.04-0.01-0.06-0.04-0.06-0.08 0.06-0.5 0.12-0.99 0.2-1.47 0-0.04 0.04-0.07 0.08-0.07 2.04 0.24 3.76-0.56 4.01-1.94 0.02-0.12 0.03-0.23 0.03-0.35 0-1.13-1.03-2.22-2.59-2.77-0.049-0.02-0.1-0.03-0.14-0.05-0.1-0.03-0.2-0.06-0.31-0.09l-0.24-0.06c-0.04-0.01-0.07-0.05-0.06-0.09 0.06-0.44 0.13-0.87 0.201-1.3 9e-3 -0.04 0.049-0.07 0.099-0.06 0.07 0.01 0.151 0.03 0.22 0.04 2.05 0.34 3.92 0.1 5.02-0.65 0.56-0.38 0.911-0.89 0.99-1.46 0.25-1.59-1.55-3.35-4.26-4.31-0.17-0.06-0.35-0.12-0.53-0.17l-0.21-0.06c-0.04-0.01-0.07-0.05-0.06-0.09 0.1-0.45 0.19-0.88 0.29-1.32 2.18 0.49 4.21 0.31 5.34-0.46 0.54-0.37 0.86-0.87 0.94-1.44 0.01-0.08 0.01-0.16 0.01-0.24 0-1.6-1.94-3.34-4.75-4.26 0.1-0.43 0.22-0.86 0.34-1.28 1.94 0.41 3.67-0.21 4.08-1.51 0.05-0.18 0.08-0.36 0.08-0.54 0-0.35-0.099-0.72-0.28-1.08-0.43-0.8-1.3-1.5-2.36-1.93-0.04-0.02-0.06-0.06-0.05-0.1 0.83-2.779 1.82-5.54 3.24-8.069 2.54-4.581 5.69-7.831 9.351-9.661 1.229-0.61 3.109-1.28 5.089-0.95 0.74 0.12 1.42 0.39 2.01 0.78l0.06 0.03c1.14 0.671 1.98 1.761 2.38 3.12 0.91 3.1 0.1 6.4-0.69 9.58-0.22 0.891-0.43 1.77-0.62 2.65-1.85 8.89-3.6 18.09-5.32 27.84-0.34-0.05-0.67-0.09-0.98-0.09-1.64 0-2.95 0.72-3.21 1.89-0.25 1.21 0.7 2.45 2.281 3.13 0.099 0.04 0.189 0.07 0.289 0.11 0.14 0.05 0.28 0.1 0.43 0.14 0.09 0.03 0.18 0.05 0.27 0.07-0.07 0.42-0.14 0.85-0.21 1.27-0.09-0.01-0.19-0.02-0.279-0.02-0.011 0.01-0.011 0.02-0.011 0.03-0.33-0.03-0.65-0.04-0.96-0.04-0.69 0-1.33 0.05-1.93 0.15-0.21 0.04-0.42 0.09-0.61 0.14-0.15 0.04-0.3 0.09-0.44 0.13l-1.76 4.06c0.05 0.06 0.11 0.12 0.17 0.19 0.08 0.08 0.16 0.15 0.24 0.23 0.01 0.01 0.02 0.02 0.04 0.03 0.92 0.78 2.34 1.4 4.06 1.74 0.04 0.01 0.07 0.04 0.06 0.08 0.09 0.02 0.19 0.04 0.29 0.06-0.07 0.44-0.14 0.89-0.22 1.33-0.09-0.01-0.179-0.02-0.27-0.03-0.01 0.01-0.01 0.03-0.01 0.04-0.45-0.05-0.89-0.08-1.32-0.08s-0.85 0.02-1.25 0.07c-0.11 0.02-0.22 0.03-0.32 0.05-0.16 0.02-0.33 0.06-0.48 0.09s-0.29 0.07-0.42 0.11c-0.08 0.02-0.15 0.04-0.23 0.07-0.18 0.06-0.36 0.13-0.52 0.2-1.07 0.48-1.72 1.19-1.83 2.05-0.14 0.97 0.48 1.94 1.59 2.72 0.07 0.06 0.15 0.11 0.23 0.15 0.93 0.57 2.14 1.01 3.47 1.24 0.04 0.01 0.06 0.04 0.07 0.08 0.09 0.02 0.18 0.04 0.28 0.05-0.06 0.46-0.12 0.92-0.19 1.39-0.18-0.01-0.36-0.02-0.53-0.02-1.13 0-2.19 0.23-3.05 0.68-1.09 0.56-1.72 1.39-1.79 2.34-0.109 1.59 1.4 2.99 3.6 3.53 0.14 0.03 0.28 0.06 0.43 0.09 0.16 0.03 0.32 0.06 0.48 0.08-0.06 0.53-0.119 1.06-0.18 1.59h-0.09c-1.98 0-3.59 1.03-3.87 2.57-0.3 1.64 1.03 3.28 3.04 3.92 0.13-0.03 0.31-0.08 0.35-0.08-0.01 0.03-0.08 0.06-0.22 0.11 0.03 0.01 0.05 0.02 0.08 0.03-0.33 3.28-0.63 6.59-0.9 9.93-0.02 0.14-0.11 0.97-0.25 2.26l-0.06 6.3c-0.519 4.51 0 8.97 0.481 13.05 0 0.02-0.761 0.22-0.781 0.24-2.31 2.1-4.03 4.86-4.63 7.82-0.27 2.07-0.05 4.23 0.74 6.29 0.14 0.38 0.3 0.74 0.47 1.1 0.12 0.24 0.28 0.44 0.47 0.6 0 0 0.01 0.01 0.02 0.01 0.32 0.19 0.711 0.28 1.11 0.23 0.78-0.09 1.4-0.65 1.58-1.42 0.53-2.36 1.75-4.43 3.49-6.01 0.031-0.03 0.08-0.03 0.11 0 0.06 0.06 0.12 0.11 0.18 0.16l0.05-0.05c0.441 0.42 0.9 0.81 1.39 1.17 0.19 0.14 0.38 0.27 0.57 0.4 0.13 0.09 0.27 0.18 0.41 0.26 6.29 3.77 14.11 2.25 18.6 0.85 0.04-0.02 0.09 0.01 0.1 0.06 0.08 0.38 0.14 0.76 0.16 1.14 0.01 0.1 0.02 0.21 0.03 0.32 0.09 1.73-0.29 3.47-1.11 5-0.16 0.29-0.22 0.61-0.19 0.91 0.02 0.36 0.16 0.7 0.42 0.98 0.46 0.5 1.17 0.65 1.8 0.38 0.09-0.05 0.14-0.07 0.19-0.09 4.59-2.15 6.97-7.06 5.87-11.87-0.01-0.04 0.01-0.07 0.04-0.09 3-1.9 4.92-4.19 5.74-6.82 1.08-3.48 3.43-6.4 6.6-8.22 8.7-5.02 12.29-11.79 10.12-19.07-0.799-2.68-2.46-5.15-4.69-6.96-0.56-0.46-1.14-0.88-1.73-1.27-0.02-0.01-0.04-0.03-0.07-0.04-2.92-1.84-6.1-2.76-9.5-2.76-0.87 0-1.76 0.07-2.66 0.2l-0.03-0.21c-0.05 0.01-0.09 0.01-0.14 0.02-0.04 0.01-0.08-0.02-0.08-0.06-0.46-2.88-1.68-5.1-3.48-6.33-0.05-0.04-0.1-0.08-0.16-0.1-0.29-0.17-0.59-0.31-0.91-0.43-0.68-0.24-1.38-0.36-2.09-0.36-0.13 0-0.27 0-0.41 0.01-1.14 0.07-2.19 0.4-3.16 0.88 0.03-0.11 0.07-0.22 0.1-0.34-0.01 0-0.01 0.01-0.02 0.01-0.06 0.03-0.13-0.02-0.11-0.09 1.89-6.46 4.091-13.84 6.591-21 0.049-0.18 0.049-0.37-0.031-0.54-0.01-0.02-0.01-0.04 0-0.06l1.21-2.94c0.86-2.1 1.75-4.22 2.64-6.35 1.7-4.41 3.32-8.57 4.94-12.63 0.84-2.11 1.69-4.21 2.55-6.319 1.191-3.391 2.24-6.801 3.1-10.21l0.02-0.121c0.05-0.169 0.1-0.35 0.14-0.53 0.1 0.151 0.19 0.29 0.29 0.441 0.01-0.04 0.02-0.08 0.03-0.121 4.13 6.371 7.41 12.45 9.96 18.47-0.63 0.32-1.17 0.72-1.57 1.19-0.62 0.74-0.84 1.54-0.6 2.26 0.21 0.64 0.73 1.12 1.49 1.37 0.081 0.03 0.16 0.06 0.25 0.07 0.63 0.15 1.37 0.15 2.14-0.02 0.03-0.01 0.06 0 0.08 0.03 0.04 0 0.09-0.01 0.13-0.02 0.18 0.53 0.36 1.05 0.54 1.57-3.309 1.14-5.37 3.22-4.86 5 0.07 0.24 0.18 0.45 0.33 0.65 0.03 0.04 0.06 0.08 0.1 0.12 0.06 0.05 0.11 0.11 0.17 0.16 0.71 0.6 1.88 0.92 3.3 0.92 0.62 0 2.38-0.45 3.08-0.58 0.37 0.26-0.179 0.56 0.2 0.81 0.08 0.32 0.31 1.05 0.39 1.38 0 0.04-0.36 0.22-0.4 0.23-1.29 0.37-2.41 1.23-3.26 1.91-1.12 0.89-1.08 1.32-0.87 2.27 0.37 1.72 2.68 2.23 5.86 1.74 0.08 0.42 0.2 1.31 0.29 1.74-1.49 0.42-2.55 1.29-3.21 2.29-0.429 0.66-0.679 1.05-0.54 1.7 0.14 0.66 0.35 0.86 1 1.29 0.94 0.62 2.26 1.01 3.69 0.85 0.05 0 0.421 0.26 0.43 0.3 0.1 0.65 0.15 1.53 0.241 2.18 9e-3 0.02-0.191 0.02-0.351 0.01 0 0.02 0.01 0.03 0.01 0.05-1.99 0.48-3.34 1.91-3.21 3.5 0.13 1.72 1.96 2.98 4.18 3.01 0.61 4.44 1.17 9 1.64 13.63 0 0.02 0.01 0.04 0.01 0.06 0.2 2.94 1.18 16.61 2.81 21.51-3.19 4.15-3.64 9.96-0.82 14.62 0.21 0.35 0.43 0.68 0.67 1 0.18 0.24 0.4 0.43 0.65 0.55 0.03 0.02 0.06 0.03 0.1 0.04 0.3 0.11 0.62 0.15 0.94 0.08 0.86-0.18 1.44-0.88 1.48-1.73 0.1-2.41 0.93-4.68 2.36-6.54 0.031-0.03 0.07-0.04 0.11-0.02 0.02 0.01 0.05 0.03 0.07 0.04 0.47 0.31 0.95 0.57 1.46 0.81 0.63 0.31 1.27 0.57 1.91 0.78 0.3 0.1 0.6 0.19 0.9 0.27 0.55 0.16 1.11 0.28 1.67 0.36 0.22 0.04 0.45 0.07 0.67 0.09 5.69 0.64 11.27-1.61 14.67-3.4 0.05-0.02 0.09 0 0.11 0.04 0.85 2.07 0.94 4.37 0.24 6.53-0.21 0.68 0.02 1.39 0.59 1.82 0.54 0.41 1.26 0.42 1.83 0.03l0.18-0.12c4.05-2.87 5.55-8.24 3.64-12.73-0.01-0.03-0.01-0.06 0.02-0.09 2.59-2.38 4.09-4.98 4.42-7.73 0.45-3.62 2.24-6.91 5.03-9.27 7.66-6.49 9.98-13.79 6.55-20.57-1.28-2.5-3.36-4.63-5.86-6.01-1.17-0.64-2.37-1.16-3.59-1.55-0.41-0.13-0.82-0.24-1.23-0.34-0.24-0.05-0.48-0.11-0.72-0.15-0.7-0.14-1.4-0.23-2.11-0.27-0.44-0.04-0.87-0.06-1.31-0.06-1.89 0-3.77 0.3-5.66 0.9h-0.01c-0.04 0.01-0.08-0.01-0.1-0.05-1.1-3.19-3.07-5.29-5.5-5.92-0.12-0.04-0.23-0.06-0.35-0.08h-0.01c-0.04-0.01-0.089-0.02-0.13-0.03-0.34-0.06-0.68-0.09-1.02-0.09-0.51 0-1.01 0.06-1.49 0.19-1.64 0.4-2.71 1.34-3.92 2.31-0.19 0.16-0.38 0.32-0.58 0.47 0.08-4.27 1.301-16.55-0.43-31.24l-5.8-28.88c-0.01-9e-3 -0.02-9e-3 -0.03-0.02 0.01 0 0.02 0 0.03 0.011-0.13-0.391 5.39 5.509 9.57 10.799 5.02 6.36 9.41 23.68 9.47 23.68 6.86-3.57 14.78-5.9 23.01-7.05 10.13-1.43 20.71-1.07 30.26 0.99 2.15 0.46 4.25 1.01 6.28 1.65 3.9 1.23 13.441 6.53 13.51 6.53 0.12-0.19 7.5-9.97 10.86-15.12 1.84-2.83 3.58-5.599 5.42-8.43 1.44-2.2 3.08-4.75 3.88-6.98" fill="#6ca6c0"/></g></g></g><g transform="matrix(1.3971 0 0 -1.3971 2224.1 1637.7)"><g clip-path="url(#l)"><g transform="translate(224.27 85.746)"><path d="m0 0c-0.716-1.812-0.993-3.678-0.085-5.34 1.507-2.759 5.644-3.038 8.301-1.355 2.657 1.681 4.155 4.664 5.426 7.54 4.525 10.232 7.772 21.021 9.712 32.038 1.952 11.073 2.585 22.379 1.876 33.601-0.269 4.254-0.825 8.473-1.335 12.694-0.349 2.879-1.001 5.709-1.658 8.53-0.168 0.723-0.337 1.444-0.502 2.167-0.118 0.519-0.141 1.585-0.498 1.991-0.934 1.058-1.008-0.73-1.021-1.275-0.037-1.56-0.079-3.12-0.125-4.679-0.37-12.465-1.069-24.951-3.017-37.282-0.077-0.492-0.157-0.985-0.239-1.477-1.88-11.299-4.862-22.469-9.516-32.955-1.083-2.44-2.293-4.822-3.558-7.173-1.247-2.316-2.794-4.575-3.761-7.025" fill="#cbcbcb"/></g><g transform="translate(167.05 84.841)"><path d="m0 0c0.127-5.402-3.081-9.813-7.505-11.895-0.214-0.1-0.419-0.169-0.636-0.2-0.12-0.075-0.24-0.131-0.361-0.186-3.141-1.375-6.842-0.065-9.511 2.427-2.669 2.493-4.476 5.999-6.038 9.526-5.773 12.946-8.986 27.318-9.6 41.73-0.283 6.71-0.024 13.447 0.836 20.109 0.285 2.207 0.636 4.407 1.056 6.593 0.605 3.149 1.389 6.33 2.322 9.424 0.467 1.549 1.072 3.068 1.505 4.622 0.423 1.515 0.684 3.08 0.869 4.641 0.129 1.094 0.224 2.19 0.324 3.286-0.015-0.17 0.555-0.851 0.645-1.064 0.192-0.458 0.293-0.939 0.327-1.432 0.042-0.59 0.082-1.182 0.117-1.775 0.071-1.242 0.092-2.487 0.101-3.731 0.023-3.229-0.048-6.459-0.094-9.688-0.098-6.938-0.2-13.919 0.476-20.835 1.038-10.517 6.078-27.022 11.675-35.49 1.825-2.761 3.417-6.337 5.861-8.514 2.618-2.332 7.536-3.705 7.631-7.548" fill="#cbcbcb"/></g><g transform="translate(216.66 89.561)"><path d="m0 0c-0.544-2.838-2.165-5.109-5.853-5.113-2.722-3e-3 -5.257 1.697-6.758 3.968-2.899 4.385-2.152 10.068-2.418 15.065 0 12.957-2.376 25.767-5.731 38.241-1.737 6.459-3.753 12.838-5.813 19.199-0.917 2.827-1.834 5.656-2.767 8.478-0.759 2.293-1.771 4.526-2.177 6.922-0.351 2.077-0.583 6.535 1.837 6.552 1.331 0.01 3.253-2.434 4.811-5.812 2.636-5.715 4.751-13.751 4.99-14.535 1.209-3.965 2.435-7.928 4.009-11.766 4.71-11.49 10.196-23.453 13.217-35.507 1.497-5.973 0.833-11.969 2.241-17.94 0.525-2.228 0.898-5.216 0.412-7.752" fill="#cbcbcb"/></g><g transform="translate(208.88 56.205)"><path d="m0 0c0-1.109-0.04-2.21-0.13-3.29-9.03-2.939-18.74-3.92-27.6-2.85-3.88 0.47-7.56 1.31-11.03 2.48-0.11 1.2-0.16 2.42-0.16 3.66 0 15.91 8.72 28.79 19.46 28.79s19.46-12.88 19.46-28.79" fill="#cbcbcb"/></g><g clip-path="url(#b)" opacity=".39"><g transform="translate(234.24 55.198)"><path d="M 0,0 C -0.053,-1.04 0.385,-1.907 0.979,-1.937 1.573,-1.968 2.097,-1.149 2.15,-0.11 2.203,0.93 1.765,1.797 1.171,1.827 0.578,1.857 0.053,1.04 0,0" fill="#006577"/></g></g><g clip-path="url(#a)" opacity=".39"><g transform="translate(231.96 59.206)"><path d="m0 0c0.263-0.765 0.831-1.263 1.268-1.112 0.437 0.15 0.577 0.892 0.314 1.657-0.264 0.765-0.831 1.263-1.268 1.112-0.437-0.15-0.577-0.891-0.314-1.657" fill="#006577"/></g></g><g clip-path="url(#af)" opacity=".39"><g transform="translate(232.78 49.826)"><path d="m0 0c-0.267-0.764-0.129-1.506 0.307-1.658 0.436-0.153 1.006 0.344 1.273 1.107 0.266 0.764 0.128 1.507-0.308 1.659s-1.006-0.343-1.272-1.108" fill="#006577"/></g></g></g></g><g transform="matrix(1.3971 0 0 -1.3971 2224.1 1637.7)"><g clip-path="url(#ae)"><g transform="translate(265.85 212.62)"><path d="m0 0c0.288-0.37 0.628-0.701 0.997-0.976 1.101-0.824 2.427-1.248 3.727-1.658 0.277-0.088 0.561-0.177 0.851-0.177 0.29 1e-3 0.593 0.103 0.773 0.336 0.24 0.313 0.198 0.76 0.137 1.156-0.307 2.001-0.492 4.435-1.396 6.239-0.819 1.633-1.501 2.825-3.001 3.845-0.23 0.156-1.275 0.596-1.563 0.525-0.266-0.065-0.662-0.368-0.698-0.636-0.049-0.369 0.326-1.136 0.381-1.505 0.187-1.249 0.45-2.526 0.239-3.776-0.056-0.332-0.358-0.839-0.376-1.173-0.047-0.926-0.642-1.465-0.071-2.2" fill="#fff"/></g><g transform="translate(236.44 213.52)"><path d="m0 0c0.045-1.477 0.965-2.487 1.284-3.965 0.229-1.082 0.509-2.153 0.829-3.215 0.575-0.577 1.353-0.897 2.193-0.949 1.143-0.074 2.4 0.329 3.435 1.197 1.472 1.245 2.045 3.077 1.533 4.545-0.12 0.377-0.321 0.725-0.593 1.043-0.04 0.05-0.091 0.099-0.141 0.139-0.263 0.209-0.565 0.409-0.848 0.608-0.455 0.328-0.879 0.667-1.069 1.055-0.915 1.856-1.566 4.334-2.177 6.319-0.14 0.466-0.187 1.556-0.428 1.964-0.171 0.308-1.528-0.478-1.822-0.527-0.314-0.058-0.225-0.871-0.368-1.168-0.887-1.92-1.911-4.716-1.828-7.046" fill="#fff"/></g><g transform="translate(193.22 229.72)"><path d="m0 0c0.3-0.376 1.205-0.187 1.59-0.466 0.565-0.411 1.351-0.625 2-0.885 0.671-0.269 0.638-0.624 1.329-0.834 0.291-0.088 0.563-0.322 0.868-0.321 0.303 2e-3 0.666-0.229 0.854 9e-3 0.254 0.32 0.212 0.776 0.15 1.179-0.315 2.038-0.322 4.11-1.263 5.945-0.85 1.662-2.576 3.124-4.144 4.158-0.24 0.158-0.493 0.762-0.795 0.689-0.279-0.069-0.696-0.378-0.735-0.652-0.052-0.376 0.337-1.157 0.394-1.532 0.241-1.611 0.707-3.411 0.615-5.037-0.054-0.943-1.458-1.506-0.863-2.253" fill="#fff"/></g><g transform="translate(120.79 212.19)"><path d="m0 0c-0.09 1.62-0.81 3.22-0.57 4.83 0.06 0.37 0.45 1.15 0.39 1.53-0.04 0.27-0.45 0.58-0.73 0.65-0.3 0.07-0.56-0.53-0.8-0.69-1.56-1.03-2.78-2.54-3.63-4.2-0.283-0.555-0.52-1.128-0.73-1.711 0.197-0.123 0.338-0.339 0.339-0.573 0-0.933 8e-3 -1.867-0.204-2.783-3e-3 -0.014-0.014-0.024-0.018-0.037v-1.041c0-0.155 0-0.312-2e-3 -0.469 0.027-0.025 0.052-0.053 0.08-0.077 0.222-0.16 0.453-0.305 0.663-0.483 0.017-0.014 0.032-0.031 0.049-0.046 1.329 0.401 2.68 0.83 3.803 1.65 0.38 0.28 0.74 0.61 1.04 0.99 0.59 0.74 0.38 1.52 0.32 2.46" fill="#fff"/></g><g transform="translate(164.63 225.34)"><path d="m0 0c0.366-1.351 1.481-2.07 2.113-3.359 0.459-0.944 0.965-1.868 1.508-2.773 0.685-0.4 1.512-0.515 2.34-0.371 1.129 0.195 2.264 0.854 3.083 1.892 1.161 1.485 1.32 3.304 0.502 4.541-0.198 0.32-0.47 0.594-0.804 0.825-0.05 0.037-0.11 0.071-0.168 0.096-0.301 0.132-0.639 0.246-0.958 0.365-0.513 0.199-1 0.413-1.27 0.726-1.294 1.502-2.468 3.636-3.494 5.325-0.238 0.398-0.521 1.392-0.845 1.712-0.234 0.244-1.383-0.791-1.658-0.904-0.293-0.126-0.03-0.855-0.104-1.161-0.446-1.974-0.833-4.786-0.245-6.914" fill="#fff"/></g><g transform="translate(151.03 210.33)"><path d="m0 0c-0.056-1.537-0.3-3.084-0.656-4.622-0.256-1.124-0.567-2.238-0.923-3.342-0.634-0.598-1.49-0.928-2.413-0.98-1.257-0.072-2.636 0.351-3.77 1.259-1.613 1.3-2.236 3.208-1.668 4.735 0.133 0.392 0.355 0.753 0.656 1.083 0.044 0.052 0.1 0.103 0.155 0.144 0.289 0.217 0.623 0.423 0.934 0.63 0.501 0.34 0.968 0.691 1.18 1.093 1.011 1.929 2.635 3.507 3.314 5.571 0.155 0.485 0.211 1.619 0.478 2.042 0.189 0.32 0.778 0.495 1.101 0.444 0.344-0.062 0.244-0.908 0.4-1.217 0.967-2.002 1.312-4.416 1.212-6.84" fill="#fff"/></g></g></g><g transform="matrix(1.3971 0 0 -1.3971 2224.1 1637.7)" clip-path="url(#ad)"><g transform="translate(149.62 202.86)"><path d="m0 0c0-0.01-0.01-0.02-0.01-0.03-0.15-0.5-0.34-1.05-0.73-1.31-0.29-0.19-0.63-0.17-0.9-0.03-0.2 0.1-0.37 0.25-0.53 0.42 0.83 0.05 1.6 0.37 2.17 0.95" fill="#fff"/></g><g transform="translate(133.13 195.38)"><path d="m0 0c-4e-3 -0.681-0.06-1.345-0.167-1.971-0.477-2.939-2.043-5.164-3.95-5.465-0.158-0.038-0.307-0.056-0.467-0.054-2.544-3e-3 -4.612 3.343-4.618 7.469-6e-3 4.135 2.041 7.487 4.584 7.5 2.543 3e-3 4.601-3.344 4.618-7.479" fill="#fff"/></g><g transform="translate(128.54 188.39)"><path d="m0 0c0.121 4e-3 0.23 0.011 0.351 0.041 1.705 0.27 3.125 2.299 3.573 5.058 0.102 0.597 0.156 1.233 0.16 1.892-0.016 3.849-1.861 6.978-4.114 6.978h-3e-3c-2.257-0.012-4.09-3.152-4.084-6.999 6e-3 -3.78 1.889-6.97 4.114-6.97zm0.024-1c-0.011 0-0.028 2e-3 -0.033 0-2.807 0-5.101 3.573-5.108 7.968-7e-3 4.472 2.225 7.986 5.081 8.001h4e-3c2.853 0 5.098-3.502 5.116-7.977v-5e-3c-4e-3 -0.715-0.063-1.405-0.174-2.052-0.516-3.183-2.27-5.545-4.364-5.874-0.157-0.04-0.334-0.061-0.522-0.061" fill="#006577"/></g><g transform="translate(121.67 196.54)"><path d="m0 0c1e-3 -0.358-0.015-0.708-0.059-1.042-0.246-2.624-1.472-4.722-3.039-5.32-0.291-0.111-0.593-0.171-0.899-0.169-2.218-3e-3 -4.021 2.915-4.026 6.521-6e-3 3.597 1.779 6.528 3.997 6.531 2.217 3e-3 4.021-2.915 4.026-6.521" fill="#fff"/></g><g transform="translate(117.68 190.51)"><path d="m0 0c0.251 0.047 0.481 0.045 0.721 0.137 1.402 0.535 2.494 2.504 2.719 4.899 0.041 0.31 0.059 0.629 0.058 0.993v1e-3c-6e-3 3.266-1.619 6.023-3.523 6.023h-3e-3c-0.891-1e-3 -1.746-0.598-2.407-1.679-0.706-1.156-1.094-2.701-1.091-4.352 5e-3 -3.265 1.619-6.022 3.525-6.022zm8e-3 -1h-0.012c-2.529 0-4.516 3.083-4.522 7.021-3e-3 1.833 0.437 3.563 1.238 4.875 0.85 1.389 2.006 2.155 3.259 2.157h4e-3c2.53 0 4.516-3.082 4.523-7.02 1e-3 -0.409-0.019-0.772-0.064-1.109-0.262-2.791-1.58-5.044-3.356-5.721-0.352-0.135-0.712-0.203-1.07-0.203" fill="#006577"/></g><g transform="translate(121.62 195.5)"><path d="m0 0c-0.247-2.624-1.473-4.722-3.039-5.32-0.68 0.646-1.127 1.836-1.137 3.197-3e-3 2.061 1.027 3.73 2.284 3.735 0.786-2e-3 1.483-0.638 1.892-1.612" fill="#006577"/></g><g transform="translate(132.96 193.41)"><path d="m0 0c-0.477-2.939-2.043-5.164-3.95-5.464-0.561 0.781-0.933 1.953-0.931 3.256-4e-3 2.362 1.167 4.276 2.619 4.282 0.961 1e-3 1.806-0.826 2.262-2.074" fill="#006577"/></g><g transform="translate(102.08 176.94)"><path d="m0 0c0.791-0.166 1.225-1.289 0.969-2.509-0.255-1.22-1.103-2.075-1.894-1.91-0.79 0.165-1.224 1.289-0.969 2.509s1.103 2.075 1.894 1.91" fill="#006577"/></g><g transform="translate(101.89 176.46)"><path d="m0 0c-0.438 0-1.011-0.587-1.209-1.532-0.103-0.49-0.077-0.989 0.069-1.367 0.07-0.18 0.229-0.491 0.513-0.55 0.284-0.058 0.555 0.161 0.69 0.298 0.287 0.289 0.51 0.735 0.612 1.224 0.212 1.014-0.137 1.824-0.582 1.918-0.031 6e-3 -0.061 9e-3 -0.093 9e-3m-0.534-4.459c-0.1 0-0.199 0.011-0.298 0.031-0.545 0.114-0.998 0.539-1.24 1.168-0.218 0.563-0.259 1.249-0.116 1.933 0.317 1.513 1.408 2.524 2.485 2.297h1e-3c1.077-0.226 1.673-1.589 1.356-3.102-0.143-0.683-0.456-1.296-0.881-1.723-0.388-0.393-0.852-0.604-1.307-0.604" fill="#006577"/></g><g transform="translate(107.54 174.58)"><path d="m0 0c1.113-0.282 1.66-1.911 1.223-3.639s-1.694-2.901-2.806-2.619c-1.113 0.281-1.661 1.911-1.224 3.639s1.694 2.901 2.807 2.619" fill="#006577"/></g><g transform="translate(107.2 174.12)"><path d="m0 0c-0.411 0-0.778-0.278-0.976-0.463-0.461-0.43-0.818-1.077-1.006-1.821-0.363-1.433 0.031-2.82 0.861-3.031 0.83-0.206 1.836 0.825 2.199 2.257 0.188 0.744 0.181 1.483-0.019 2.08-0.102 0.301-0.346 0.826-0.842 0.952h-1e-3c-0.072 0.018-0.145 0.026-0.216 0.026m-0.902-6.343c-0.155 0-0.31 0.02-0.465 0.059-1.401 0.355-2.097 2.22-1.585 4.246 0.235 0.928 0.694 1.747 1.294 2.306 0.658 0.615 1.411 0.855 2.12 0.674 0.709-0.178 1.257-0.748 1.544-1.601 0.262-0.778 0.276-1.716 0.041-2.645-0.456-1.802-1.694-3.039-2.949-3.039" fill="#006577"/></g><g transform="translate(131.83 182.45)"><path d="m0 0c0-0.382-0.31-0.692-0.691-0.692-0.383 0-0.692 0.31-0.692 0.692s0.309 0.692 0.692 0.692c0.381 0 0.691-0.31 0.691-0.692" fill="#006577"/></g><g transform="translate(136.59 181.38)"><path d="m0 0c0-0.595-0.482-1.077-1.077-1.077-0.594 0-1.076 0.482-1.076 1.077s0.482 1.077 1.076 1.077c0.595 0 1.077-0.482 1.077-1.077" fill="#006577"/></g><g transform="translate(132.96 178.34)"><path d="m0 0c0-0.594-0.482-1.076-1.076-1.076-0.595 0-1.077 0.482-1.077 1.076 0 0.595 0.482 1.077 1.077 1.077 0.594 0 1.076-0.482 1.076-1.077" fill="#006577"/></g><g transform="translate(253.7 199.47)"><path d="m0 0c-0.021-0.648 6e-3 -1.282 0.084-1.883 0.343-2.814 1.749-4.991 3.552-5.349 0.149-0.042 0.291-0.065 0.443-0.07 2.421-0.099 4.515 3.008 4.677 6.933 0.162 3.935-1.659 7.202-4.078 7.311-2.421 0.1-4.506-3.008-4.678-6.942" fill="#fff"/></g><g transform="translate(254.21 199.45)"><path d="m0 0c-0.021-0.626 6e-3 -1.231 0.08-1.799 0.32-2.636 1.588-4.612 3.153-4.923 0.15-0.041 0.252-0.057 0.362-0.06 0.03-2e-3 0.06-2e-3 0.09-2e-3 2.074 0 3.925 2.922 4.071 6.455 0.15 3.649-1.465 6.696-3.601 6.792-2.123 0.089-3.996-2.812-4.155-6.463m3.695-7.784c-0.046 0-0.091 1e-3 -0.136 2e-3 -0.189 7e-3 -0.373 0.036-0.562 0.09-1.949 0.384-3.536 2.707-3.909 5.768-0.081 0.618-0.11 1.278-0.088 1.96v5e-3c0.184 4.202 2.395 7.423 5.062 7.423 0.045 0 0.09-1e-3 0.136-2e-3 2.733-0.123 4.734-3.563 4.558-7.832-0.174-4.196-2.384-7.414-5.061-7.414" fill="#006577"/></g><g transform="translate(264.65 200.14)"><path d="m0 0c-0.015-0.341-0.012-0.675 0.017-0.994 0.135-2.506 1.222-4.55 2.691-5.177 0.272-0.118 0.558-0.185 0.849-0.196 2.11-0.086 3.937 2.622 4.079 6.054 0.14 3.422-1.447 6.279-3.557 6.366-2.111 0.087-3.937-2.622-4.079-6.053" fill="#fff"/></g><g transform="translate(264.65 200.14)"><path d="m0 0h0.01zm3.982 5.556c-1.769 0-3.356-2.525-3.482-5.577-0.014-0.319-0.012-0.63 0.015-0.929 0.125-2.297 1.085-4.204 2.389-4.761 0.223-0.096 0.449-0.148 0.67-0.155 1.786-0.093 3.434 2.477 3.562 5.573s-1.282 5.773-3.077 5.847c-0.026 1e-3 -0.051 2e-3 -0.077 2e-3m-0.323-12.424c-0.04 0-0.081 1e-3 -0.122 2e-3 -0.344 0.012-0.69 0.091-1.026 0.236-1.672 0.713-2.848 2.915-2.993 5.609-0.029 0.308-0.035 0.655-0.018 1.042 0.154 3.699 2.11 6.535 4.479 6.535 0.04 0 0.08-1e-3 0.121-2e-3 2.418-0.1 4.19-3.125 4.036-6.888-0.154-3.698-2.109-6.534-4.477-6.534" fill="#006577"/></g><g transform="translate(264.66 199.15)"><path d="m0 0c0.136-2.506 1.223-4.55 2.691-5.177 0.671 0.588 1.142 1.704 1.203 2.999 0.081 1.961-0.836 3.589-2.032 3.64-0.748 0.028-1.436-0.551-1.862-1.462" fill="#006577"/></g><g transform="translate(265.17 199.05)"><path d="m0 0c0.141-2.047 0.955-3.774 2.084-4.462 0.457 0.554 0.758 1.442 0.804 2.409 0.073 1.793-0.76 3.083-1.554 3.117-0.472 0.02-0.982-0.377-1.334-1.064m2.277-5.658-0.289 0.123c-1.673 0.714-2.848 2.916-2.994 5.609l-7e-3 0.126 0.053 0.113c0.529 1.131 1.358 1.804 2.334 1.751 1.504-0.065 2.606-1.893 2.513-4.161-0.067-1.406-0.579-2.659-1.373-3.354z" fill="#006577"/></g><g transform="translate(253.79 197.59)"><path d="m0 0c0.342-2.814 1.748-4.991 3.552-5.349 0.564 0.723 0.962 1.824 1.01 3.063 0.092 2.248-0.95 4.114-2.331 4.175-0.915 0.036-1.75-0.719-2.231-1.889" fill="#006577"/></g><g transform="translate(254.3 197.51)"><path d="m0 0c0.322-2.395 1.434-4.223 2.831-4.704 0.422 0.666 0.681 1.56 0.717 2.509 0.08 1.934-0.769 3.608-1.852 3.655-0.014 1e-3 -0.029 1e-3 -0.043 1e-3 -0.625 0-1.248-0.552-1.653-1.461m3.243-5.827-0.303 0.059c-1.99 0.395-3.577 2.717-3.95 5.779l-0.015 0.13 0.048 0.121c0.577 1.399 1.583 2.227 2.715 2.198 1.682-0.074 2.915-2.137 2.81-4.695-0.05-1.285-0.457-2.506-1.116-3.35z" fill="#006577"/></g><g transform="translate(280.56 178.76)"><path d="m0 0c-0.758-0.127-1.214-1.18-1.017-2.351s0.971-2.017 1.73-1.889c0.758 0.127 1.214 1.18 1.017 2.351s-0.971 2.016-1.73 1.889" fill="#006577"/></g><g transform="translate(280.56 178.76)"><path d="m0 0h0.01zm0.15-0.487c-0.023 0-0.045-2e-3 -0.067-6e-3h-1e-3c-0.134-0.023-0.256-0.111-0.363-0.261-0.248-0.349-0.341-0.929-0.242-1.514 0.156-0.93 0.731-1.562 1.154-1.479 0.415 0.07 0.767 0.816 0.606 1.775-0.078 0.466-0.271 0.895-0.53 1.177-0.182 0.198-0.381 0.308-0.557 0.308m0.409-4.266c-0.959 0-1.842 0.966-2.069 2.319-0.143 0.85 0.012 1.695 0.414 2.26 0.263 0.369 0.614 0.6 1.013 0.667 0.536 0.087 1.09-0.135 1.527-0.612 0.392-0.428 0.668-1.027 0.78-1.687 0.245-1.465-0.382-2.751-1.428-2.927-0.079-0.013-0.158-0.02-0.237-0.02" fill="#006577"/></g><g transform="translate(275.28 176.72)"><path d="m0 0c-1.069-0.226-1.652-1.755-1.302-3.417 0.351-1.661 1.503-2.824 2.573-2.598 1.069 0.225 1.652 1.755 1.301 3.416-0.351 1.662-1.502 2.825-2.572 2.599" fill="#006577"/></g><g transform="translate(275.38 176.23)"><path d="m0 0c-0.466-0.099-0.714-0.58-0.819-0.858-0.209-0.549-0.244-1.265-0.097-1.965 0.148-0.7 0.47-1.342 0.883-1.759 0.21-0.213 0.629-0.552 1.096-0.454 0.466 0.099 0.714 0.58 0.82 0.858 0.209 0.549 0.244 1.265 0.096 1.965-0.288 1.364-1.189 2.372-1.979 2.213m0.892-6.055c-0.568 0-1.137 0.266-1.636 0.769-0.552 0.558-0.961 1.359-1.151 2.256-0.189 0.896-0.139 1.794 0.141 2.528 0.309 0.81 0.858 1.335 1.547 1.481 1.367 0.288 2.751-1.025 3.165-2.985 0.189-0.896 0.14-1.794-0.141-2.528-0.308-0.81-0.857-1.335-1.546-1.481-0.126-0.026-0.252-0.04-0.379-0.04" fill="#006577"/></g><g transform="translate(254.45 187.12)"><path d="m0 0c-0.015-0.363 0.269-0.67 0.632-0.685 0.364-0.014 0.67 0.269 0.684 0.633 0.015 0.364-0.268 0.67-0.631 0.684-0.364 0.015-0.671-0.268-0.685-0.632" fill="#006577"/></g><g transform="translate(249.88 186.28)"><path d="M 0,0 C -0.022,-0.566 0.418,-1.042 0.984,-1.065 1.549,-1.088 2.026,-0.647 2.049,-0.082 2.071,0.484 1.631,0.961 1.065,0.984 0.5,1.006 0.022,0.566 0,0" fill="#006577"/></g><g transform="translate(253.22 183.25)"><path d="m0 0c-0.022-0.566 0.418-1.043 0.983-1.065 0.566-0.023 1.043 0.418 1.066 0.983 0.022 0.566-0.418 1.043-0.984 1.065-0.566 0.023-1.043-0.418-1.065-0.983" fill="#006577"/></g><g transform="translate(184.04 214.61)"><path d="m0 0c0.095-0.642 0.235-1.261 0.42-1.837 0.841-2.708 2.613-4.598 4.452-4.627 0.154-0.015 0.297-0.013 0.448 0.01 2.399 0.336 3.904 3.767 3.36 7.658-0.544 3.901-2.921 6.789-5.321 6.463-2.399-0.335-3.894-3.766-3.359-7.667" fill="#fff"/></g><g transform="translate(184.53 214.68)"><path d="m0 0c0.092-0.62 0.227-1.211 0.401-1.756 0.787-2.536 2.387-4.254 3.983-4.279 0.154-0.013 0.258-0.013 0.363 5e-3 0.99 0.137 1.841 0.92 2.403 2.202 0.598 1.363 0.789 3.1 0.539 4.891-0.503 3.617-2.639 6.317-4.757 6.038-2.113-0.295-3.428-3.481-2.932-7.101m4.563-7.045c-0.078 0-0.157 4e-3 -0.238 0.013-1.986 0.029-3.963 2.03-4.878 4.975-0.19 0.593-0.338 1.239-0.437 1.912v5e-3c-0.581 4.239 1.081 7.854 3.785 8.231 2.728 0.365 5.295-2.658 5.885-6.889 0.275-1.973 0.057-3.901-0.614-5.432-0.708-1.612-1.834-2.603-3.172-2.79-0.108-0.016-0.217-0.025-0.331-0.025" fill="#006577"/></g><g transform="translate(194.68 217.23)"><path d="m0 0c0.046-0.338 0.108-0.666 0.194-0.975 0.582-2.442 2.017-4.257 3.574-4.612 0.29-0.066 0.583-0.082 0.871-0.04 2.091 0.292 3.403 3.284 2.929 6.685-0.474 3.393-2.547 5.92-4.639 5.628-2.092-0.293-3.404-3.285-2.929-6.686" fill="#fff"/></g><g transform="translate(197.94 223.44)"><path d="m0 0c-0.087 0-0.174-6e-3 -0.261-0.018-1.785-0.25-2.93-3.053-2.503-6.121v-2e-3c0.043-0.315 0.102-0.622 0.181-0.91 0.533-2.237 1.819-3.941 3.203-4.258 0.238-0.052 0.471-0.063 0.688-0.032 1.788 0.25 2.933 3.054 2.505 6.121-0.216 1.553-0.786 2.955-1.603 3.948-0.682 0.829-1.457 1.272-2.21 1.272m1.06-12.359c-0.217 0-0.439 0.025-0.662 0.076-1.774 0.405-3.325 2.361-3.95 4.983-0.082 0.296-0.151 0.647-0.202 1.024-0.52 3.728 0.953 6.913 3.355 7.249 1.189 0.161 2.39-0.406 3.381-1.61 0.933-1.133 1.58-2.712 1.822-4.444 0.52-3.73-0.953-6.914-3.355-7.25-0.128-0.019-0.258-0.028-0.389-0.028" fill="#006577"/></g><g transform="translate(214.12 193.34)"><path d="m0 0c0.375-0.409 0.836-0.632 1.294-0.632 0.078 0 0.156 7e-3 0.232 0.02 0.533 0.089 0.986 0.482 1.245 1.078 0.229 0.531 0.294 1.187 0.184 1.848-0.247 1.467-1.28 2.483-2.306 2.3h-1e-3c-1.046-0.177-1.673-1.463-1.426-2.927 0.11-0.661 0.386-1.259 0.778-1.687" fill="#006577"/></g><g transform="translate(187.73 202.03)"><path d="m0 0c0.36 0.051 0.611 0.384 0.561 0.745-0.052 0.36-0.385 0.611-0.745 0.56s-0.611-0.384-0.561-0.744c0.051-0.361 0.385-0.612 0.745-0.561" fill="#006577"/></g><g transform="translate(183.8 200.07)"><path d="m0 0c0.561 0.079 0.951 0.598 0.872 1.159-0.079 0.56-0.598 0.951-1.159 0.872-0.56-0.079-0.951-0.598-0.872-1.159 0.079-0.56 0.598-0.951 1.159-0.872" fill="#006577"/></g><g transform="translate(187.62 197.69)"><path d="m0 0c0.561 0.079 0.951 0.598 0.872 1.158-0.079 0.561-0.598 0.951-1.159 0.872-0.56-0.079-0.95-0.597-0.871-1.158s0.597-0.951 1.158-0.872" fill="#006577"/></g><g transform="translate(210.57 188.88)"><path d="m0 0c0.125 0 0.251 0.013 0.377 0.039 0.689 0.146 1.238 0.672 1.547 1.482 0.28 0.734 0.33 1.631 0.14 2.528-0.414 1.96-1.799 3.267-3.165 2.984-1.36-0.288-2.101-2.05-1.687-4.01 0.377-1.779 1.557-3.023 2.788-3.023" fill="#006577"/></g><g transform="translate(276.13 96.757)"><path d="m0 0c-0.14 0.02-0.29 0.03-0.43 0.05-1.93 0.19-4.06 0.21-6.38 0.01-0.24-0.02-0.49-0.05-0.75-0.08-4.81-0.51-10.4-2.02-16.73-5.14-0.36-0.14-8.62-3.49-11.25-9.03l-0.3-0.63c-1.51-3.19-2.93-6.19-4.61-8.81-1.54-2.41-3.39-4.67-5.5-6.78-3.23 1.54-6.51 2.66-9.24 3.59-0.39 0.13-0.81-0.08-0.94-0.46-0.13-0.39 0.08-0.81 0.46-0.94 3.04-1.03 5.92-2.06 8.57-3.28 0.49-0.22 0.98-0.45 1.45-0.7 2.27-1.13 4.37-2.44 6.26-4.07 1.27-1.09 1.98-2.64 2.3-4.36 0.05-0.26 0.09-0.53 0.12-0.8 0.13-1.16 0.11-2.39-0.03-3.57-0.03-0.22-0.06-0.43-0.09-0.65 0-0.02 0-0.04-0.01-0.06-0.03-0.22-0.07-0.44-0.11-0.66-0.11-0.6-0.25-1.18-0.41-1.73-1.52-5.23-8.26-13.29-12.35-16.86-0.05-0.05-0.09-0.11-0.13-0.17-0.31-0.21-0.54-0.36-0.7-0.48-0.31-0.21-0.38-0.62-0.17-0.92 0.13-0.19 0.34-0.29 0.55-0.29 0.13 0 0.26 0.04 0.38 0.12 0.16 0.11 0.38 0.26 0.68 0.46 0.13 0.02 0.26 0.07 0.37 0.16 0.1 0.1 0.22 0.21 0.33 0.31 0.32 0.21 0.68 0.44 1.11 0.72 3.4 2.23 5 0.36 5.1 0.24 0.01-0.02 0.03-0.02 0.04-0.03 0.04-0.06 0.09-0.11 0.16-0.14 0.07-0.05 0.16-0.08 0.24-0.09 1.26-0.17 2.05-0.43 2.68-0.65 0.82-0.27 1.52-0.51 2.58-0.32 0.35 0.06 0.73 0.16 1.14 0.26 1.47 0.37 3.15 0.8 4.38-0.22 0.61-0.51 1.12-0.89 1.56-1.21 0.57-0.41 1-0.72 1.35-1.12v-0.01l0.01-0.01c0.09-0.1 0.12-0.24 0.09-0.37-0.02-0.06-0.05-0.14-0.13-0.19-0.02-0.02-0.04-0.03-0.06-0.04-0.31-0.12-0.75-0.13-1.28-0.03-2 0.37-3.41 0.49-4.22 0.36-0.37 0.4-0.75 0.79-1.17 1.18-0.83 0.74-2.19 0.95-3.94 0.61-0.36-0.07-0.6-0.42-0.53-0.78s0.43-0.6 0.78-0.53c1.31 0.26 2.3 0.15 2.79-0.29 1.05-0.95 1.92-1.96 2.5-3.02 0.01-0.02 0.03-0.05 0.04-0.07-0.02 0-0.03-0.01-0.05-0.01-0.62-0.16-1.76-0.39-2.71-0.14-0.61 0.16-1.35 0.55-2.06 0.94-0.68 0.37-1.32 0.71-1.89 0.87-0.39 0.12-0.82 0.02-1.13-0.24-0.16-0.13-0.28-0.3-0.35-0.49-0.09-0.2-0.13-0.42-0.1-0.65 0.03-0.26 0.01-0.83-0.45-1.79l-0.36-0.77c-0.02-0.04-0.05-0.06-0.08-0.07-0.01-0.01-0.03-0.02-0.05-0.02-0.04-0.01-0.09 0-0.14 0.04-0.61 0.62-1.31 1.1-2.08 1.41-1.2 0.49-0.63 2.74-0.62 2.76 0.09 0.35-0.11 0.72-0.47 0.82-0.35 0.09-0.72-0.12-0.81-0.47-0.12-0.42-0.2-0.96-0.2-1.52-2.59 1.01-10.33 3.62-15.62 0.79-0.18-0.1-0.3-0.13-0.31-0.16-0.04 0.1-0.11 0.47 0.1 1.2 0.49 1.7 2.09 3.88 4.57 4.93 0.4 0.17 0.72 0.52 0.88 0.95 0.17 0.47 0.14 0.98-0.08 1.42-1.89 3.72-3.5 15.51-2.65 19.42l0.12 0.51c0.15 0.63 0.35 1.27 0.6 1.94 0.42 1.16 0.99 2.39 1.72 3.75 0.19 0.36 0.05 0.81-0.31 1s-0.81 0.06-1-0.3c-1.05-1.95-1.78-3.67-2.26-5.32-1.92-0.88-3.93-1.66-6-2.34-0.09-0.04-0.19-0.07-0.28-0.1-0.73-0.24-1.46-0.46-2.19-0.67-3.38-0.97-6.85-1.66-10.33-2.08-4.94-0.6-9.89-0.64-14.58-0.09-0.06 0.01-0.12 0.01-0.18 0.02-2.98 0.37-5.9 0.96-8.71 1.77-0.73 0.21-1.46 0.44-2.17 0.68-0.1 0.03-0.2 0.07-0.3 0.11-1.67 0.57-3.32 1.22-4.93 1.96-0.46 1.87-1.25 3.81-2.46 6.06-0.19 0.36-0.64 0.5-1 0.3-0.36-0.19-0.49-0.64-0.3-1 0.89-1.66 1.53-3.13 1.98-4.52 0.19-0.57 0.34-1.13 0.46-1.68 0.02-0.07 0.03-0.14 0.05-0.22 0.23-1.31 0.23-3.39 0.06-5.72-0.28-3.74-1-8.13-1.88-11.12-0.28-0.95-0.58-1.76-0.88-2.36-0.23-0.44-0.25-0.95-0.08-1.42 0.15-0.43 0.47-0.78 0.87-0.95 2.48-1.05 4.09-3.23 4.58-4.93 0.22-0.79 0.12-1.16 0.16-1.17-0.03 0-0.16 0.01-0.38 0.13-5.26 2.82-13 0.23-15.62-0.8 0 0.57-0.08 1.11-0.19 1.53-0.1 0.35-0.47 0.56-0.82 0.46-0.36-0.09-0.57-0.46-0.47-0.81 0.01-0.03 0.59-2.27-0.62-2.76-0.77-0.32-1.47-0.79-2.08-1.41-0.05-0.05-0.11-0.05-0.14-0.05-0.04 0.01-0.09 0.03-0.13 0.1l-0.36 0.76c-0.46 0.96-0.48 1.54-0.45 1.8 0.05 0.43-0.12 0.85-0.45 1.13-0.31 0.27-0.73 0.36-1.13 0.25-0.57-0.16-1.21-0.51-1.89-0.87-0.71-0.39-1.45-0.78-2.06-0.94-0.98-0.26-2.15-0.02-2.79 0.23l0.23 0.38c0.56 0.94 1.19 1.99 2.2 2.53 0.62 0.33 1.77 0.1 2.69-0.08l0.15-0.03c0.36-0.08 0.71 0.17 0.78 0.53s-0.17 0.71-0.53 0.78l-0.14 0.03c-1.13 0.22-2.54 0.49-3.57-0.05-0.66-0.35-1.17-0.84-1.6-1.36-0.44-0.02-0.97-0.08-1.54-0.14-1.2-0.14-3.43-0.39-3.83 0.08-0.06 0.07-0.02 0.24 0 0.33 0.23 0.84 2.54 2.29 3.86 2.77 1.18 0.41 2.14 0.18 3.37-0.1 0.41-0.1 0.83-0.19 1.27-0.27 1.31-0.23 2.75 0.07 4.02 0.34 0.44 0.09 0.87 0.18 1.28 0.24 0 0 5.36 0.86 5.37 0.86 0.55-0.55 1.09-1.05 1.58-1.48 0.14-0.12 0.31-0.18 0.48-0.18 0.21 0 0.42 0.09 0.56 0.25 0.27 0.31 0.24 0.78-0.07 1.05-2.13 1.86-4.98 4.95-7.44 8.22-2.26 2.99-4.18 6.14-4.91 8.64-0.41 1.42-0.7 3.07-0.73 4.71-0.06 2.74 0.58 5.47 2.5 7.12 1.77 1.53 3.73 2.78 5.84 3.86 0.47 0.25 0.95 0.49 1.44 0.71 2.78 1.31 5.79 2.38 9 3.48 0.39 0.13 0.59 0.55 0.46 0.94-0.13 0.38-0.55 0.59-0.94 0.46-2.85-0.98-6.3-2.15-9.67-3.79-1.86 1.78-3.75 3.8-5.76 6.11-2.26 2.6-4.84 4.99-7.69 7.1-6.11 4.54-13.49 7.9-21.33 9.72-3.6 0.82-7.87 1.59-12.25 1.02-3.35-0.43-7.6-2.33-10.62-4.02l-1.34 17.25c0.58 0.21 1.22 0.48 1.98 0.8 2.71 1.15 6.43 2.72 10.81 3.03 7.04 0.51 10.41-0.66 15.07-2.27 0.16-0.05 0.33-0.11 0.49-0.17 5.08-9.39 14.57-18.63 14.98-19.04 0.18-0.17 0.41-0.26 0.65-0.26s0.48 0.1 0.66 0.29c0.15 0.15 0.22 0.35 0.24 0.55 0.2 0.22 0.27 0.54 0.14 0.83-0.82 1.81-1.6 3.69-2.3 5.59-3.67 9.88-5.4 19.79-5.6 32.14-0.03 1.76 0.56 8.2 1.19 11.43 0.48 2.48 1.07 4.98 1.64 7.39 0.47 2 0.95 4 1.37 6.02 0.22 1.05 0.44 2.1 0.63 3.16 0.19 1 0.31 2.01 0.42 3.02 0.08 0.68 0.2 1.42 0.54 2.03 0.4 0.73 0.88 1.43 1.23 2.18 0.36 0.77 0.74 1.52 1.08 2.3 0.33 0.77 0.65 1.55 0.96 2.33 0.34 0.85 0.74 1.71 1.16 2.61 1.02 2.2 2.07 4.48 2.32 6.9 0.37-0.12 0.66-0.33 0.86-0.67 0.34-0.57 0.39-1.32 0.41-2.1 0.1-2.5-0.14-5.03-0.37-7.48-0.13-1.37-0.26-2.78-0.34-4.19-0.23-4.31-0.3-8.56-0.22-12.61 0.07-3.71 0.27-7.2 0.58-10.52-1.22-0.28-2.49-0.51-3.8-0.66l-1.56-0.18c-0.27-0.03-0.47-0.28-0.44-0.56 0.03-0.25 0.25-0.44 0.5-0.44h0.06l1.56 0.18c1.3 0.15 2.56 0.38 3.78 0.66 0.34-3.31 0.8-6.45 1.4-9.46 0.01-0.09 0.03-0.17 0.05-0.26-1.78-0.54-3.66-0.93-5.6-1.15-0.28-0.03-0.47-0.28-0.44-0.55 0.02-0.26 0.24-0.45 0.49-0.45 0.02 0 0.04 0.01 0.06 0.01 1.97 0.22 3.89 0.61 5.7 1.17 0.73-3.4 1.59-6.45 2.62-9.24 0.03-0.08 0.07-0.17 0.1-0.25-2-0.72-4.27-1.25-6.66-1.52-0.28-0.03-0.47-0.28-0.44-0.55 0.03-0.26 0.24-0.45 0.49-0.45 0.02 0 0.04 0.01 0.06 0.01 2.47 0.28 4.84 0.83 6.91 1.58 1.28-3.33 2.81-6.55 4.54-9.61-1.35-0.62-2.82-1.15-4.39-1.57-1.59-0.43-3.15-0.74-4.64-0.92-0.27-0.03-0.47-0.28-0.44-0.55 0.03-0.26 0.25-0.44 0.5-0.44h0.06c1.53 0.18 3.14 0.5 4.78 0.94 1.66 0.45 3.21 1.01 4.63 1.67 1.89-3.24 4.02-6.28 6.33-9.08-1.23-0.83-2.58-1.58-4.04-2.23-3.35-1.48-6.52-2.37-8.94-2.51-0.28-0.01-0.49-0.25-0.48-0.52 0.02-0.27 0.24-0.48 0.53-0.47 2.58 0.14 5.79 1.03 9.3 2.59 1.54 0.68 2.97 1.49 4.27 2.37 2.41-2.83 5.02-5.38 7.76-7.58-1.46-1.66-3.24-3.2-5.25-4.5-2.33-1.49-4.49-2.62-6.44-3.34-0.26-0.09-0.39-0.38-0.3-0.64 0.08-0.2 0.27-0.33 0.47-0.33 0.06 0 0.12 0.01 0.18 0.04 2.01 0.74 4.24 1.9 6.63 3.43 2.1 1.36 3.98 2.98 5.49 4.72 0.4-0.31 0.8-0.62 1.2-0.91 0.78-0.56 1.57-1.1 2.35-1.59 0.13-0.08 0.26-0.12 0.4-0.12 0.25 0 0.49 0.12 0.64 0.35 0.22 0.35 0.11 0.81-0.24 1.03-0.75 0.48-1.52 1-2.27 1.55-9.28 6.72-17.19 17.62-21.68 29.92-1.14 3.06-2.06 6.41-2.82 10.24-1.23 6.2-1.9 12.97-2.05 20.72-0.08 4.02-0.01 8.22 0.22 12.5 0.07 1.38 0.2 2.78 0.33 4.13 0.24 2.5 0.48 5.08 0.38 7.67-0.03 0.94-0.1 1.93-0.62 2.81-0.41 0.71-1.07 1.21-1.91 1.43-1.39 0.36-2.92-0.13-3.81-0.65-1.64-0.96-2.86-2.52-3.98-3.94-1.34-1.72-2.97-3.21-4.39-4.45-3.13-2.72-6.17-4.61-9.32-5.78-0.31-0.11-0.62-0.21-0.92-0.31-5.19-1.66-10.2-1.06-14.88 1.76-2.31 1.4-4.19 3.48-5.29 5.88-4.04 8.82 2.84 15.97 7.29 19.44 3.33 2.6 5.54 6.32 6.22 10.48 0.43 2.57 2.02 5.01 4.73 7.23 0.01 0.01 0.01 0.03 0.03 0.04 1.57 1.29 3.55 2.53 5.88 3.68l0.09 0.05c0.01 0 0.02 0 0.03 0.01 0.06 0.02 0.11 0.05 0.12 0.06 4.4 2.14 12.83 5.18 19.86 1.37 0.44-0.23 0.86-0.5 1.26-0.78-0.46-0.42-0.94-0.81-1.47-1.17-0.34-0.23-0.44-0.69-0.21-1.04 0.23-0.34 0.7-0.43 1.04-0.21 0.81 0.54 1.54 1.16 2.2 1.83 0.09 0.05 0.17 0.11 0.23 0.2 0.03 0.03 0.04 0.06 0.05 0.1 2.04 2.21 3.31 5.04 3.56 8.13 0.02 0.24 0.21 0.32 0.3 0.34 0.07 0.02 0.27 0.05 0.41-0.15 0.2-0.31 0.4-0.62 0.58-0.95 2.41-4.37 1.84-9.65-1.13-13.39l-0.03-0.03c-0.66-0.83-1.44-1.58-2.33-2.23-0.34-0.24-0.41-0.71-0.17-1.04 0.15-0.21 0.38-0.31 0.61-0.31 0.15 0 0.3 0.04 0.44 0.14 0.6 0.44 1.16 0.93 1.67 1.44-0.07-0.06 0.31-1.14 0.34-1.28 0.11-0.45 0.21-0.91 0.3-1.37 0.17-0.94 0.3-1.89 0.4-2.84 0.17-1.71 0.24-3.44 0.27-5.16 0.04-1.96 0.2-3.91 0.27-5.86 0.07-1.71 0.14-3.42 0.22-5.13 0.16-3.59 0.35-7.18 0.57-10.76 0.22-3.57 0.48-7.15 0.8-10.71 0.29-3.28 0.62-6.55 1.05-9.8 0.25-1.89 0.52-3.77 0.86-5.63 0.95-5.22 2.01-9.87 3.24-14.23l0.27-0.96c1.13-4.02 2.3-8.18 4.39-11.93 2.7-4.85 6.05-8.3 9.98-10.26 1.17-0.58 2.84-1.2 4.7-1.2 0.43 0 0.87 0.03 1.31 0.11 2.58 0.43 4.65 2.27 5.39 4.81 1.03 3.5 0.16 6.99-0.67 10.37-0.22 0.87-0.43 1.74-0.61 2.59-2.56 12.33-4.95 25.22-7.3 39.41-1.89 11.4-3.35 23.46-4.32 35.87-0.62 5.28-1.58 15.7-1.19 20.47 0.4-0.27 0.81-0.53 1.25-0.76 0.11-0.06 0.23-0.08 0.35-0.08 0.27 0 0.53 0.14 0.66 0.4 0.19 0.36 0.05 0.82-0.31 1.01-5.12 2.7-7.42 8.83-5.36 14.25 0.13 0.33 0.27 0.65 0.42 0.97 0.09 0.17 0.25 0.18 0.33 0.17s0.25-0.05 0.3-0.25c0.88-3.92 3.46-7.16 7.07-8.89 0.38-0.18 0.83-0.02 1 0.35 0.18 0.37 0.02 0.82-0.35 1-0.53 0.25-1.02 0.55-1.49 0.87 0.34 0.31 0.7 0.61 1.07 0.89 6.03 4.45 14.22 2.82 18.63 1.41l0.28-0.09c0.02-0.01 0.04-0.01 0.05-0.02l0.14-0.04c2.36-0.79 4.4-1.7 6.08-2.73 2.85-1.73 4.66-3.8 5.4-6.17 1.2-3.85 3.79-7.07 7.28-9.08 4.66-2.68 12.07-8.5 9.43-17.34-0.71-2.39-2.2-4.6-4.19-6.22-4.04-3.28-8.67-4.5-13.77-3.63-0.3 0.05-0.61 0.11-0.91 0.18-1.04 0.22-2.07 0.53-3.07 0.9-2.11 0.76-4.23 1.84-6.47 3.3-0.69 0.46-1.6 1.06-2.49 1.72-0.85 0.64-1.59 1.26-2.27 1.92-1.21 1.16-2.57 2.47-4.25 3.17-0.88 0.36-1.93 0.49-2.82 0.34h-0.04c-0.02 0-0.04-0.02-0.05-0.02-1.17-0.19-2.04-0.84-2.44-1.83-0.37-0.9-0.31-1.85-0.21-2.75 0.88-8.64 3.27-17.05 5.49-24.14 5.34-17.09 10.35-33.86 12.91-51.1 0.35-2.4 0.62-4.59 0.82-6.71 0.58-6.24 0.18-12.23-1.21-18.32-0.1-0.4 0.16-0.8 0.56-0.9 0.06-0.01 0.11-0.01 0.17-0.01 0.34 0 0.65 0.23 0.73 0.58 1.43 6.24 1.84 12.39 1.24 18.79-0.2 2.15-0.47 4.37-0.83 6.79-2.57 17.35-7.6 34.18-12.96 51.33-2.2 7.02-4.56 15.34-5.43 23.85-0.08 0.73-0.13 1.44 0.11 2.02 0.13 0.31 0.35 0.54 0.66 0.7 0.56-2.24 1.84-4.23 3.1-6.17 0.51-0.79 1-1.54 1.43-2.3 1.13-1.97 2.47-4.23 4.17-6.19 0.59-0.68 1.33-1.42 2.18-2.08v-0.04c1.75-5.97 3.69-12.53 5.79-18.9-0.17-0.09-0.35-0.18-0.54-0.27-1.13-0.54-2.3-1.02-3.47-1.42-0.27-0.08-0.41-0.37-0.32-0.63 0.07-0.21 0.27-0.34 0.48-0.34 0.05 0 0.1 0.01 0.16 0.03 1.21 0.41 2.42 0.9 3.66 1.49 0.12 0.06 0.23 0.12 0.35 0.18 0.95-2.84 1.93-5.63 2.93-8.31-0.39-0.21-0.79-0.41-1.15-0.59-1.17-0.55-2.37-1.04-3.57-1.45-0.26-0.08-0.4-0.37-0.31-0.63 0.07-0.21 0.26-0.34 0.47-0.34 0.05 0 0.11 0.01 0.16 0.03 1.24 0.41 2.47 0.92 3.69 1.49 0.33 0.16 0.69 0.35 1.06 0.55 1.15-3.01 2.26-5.9 3.35-8.69-0.79-0.47-1.6-0.92-2.45-1.33-0.95-0.45-1.91-0.86-2.86-1.21-0.26-0.09-0.39-0.38-0.3-0.64 0.08-0.2 0.27-0.32 0.47-0.32 0.06 0 0.12 0 0.18 0.03 0.97 0.35 1.96 0.77 2.94 1.23 0.83 0.4 1.62 0.84 2.39 1.29 0.92-2.35 1.82-4.66 2.73-6.92 0.31-0.8 0.64-1.59 0.96-2.38-1.06-0.68-2.25-1.36-3.58-2.01-1.15-0.55-2.33-1.03-3.53-1.44-0.26-0.09-0.4-0.37-0.31-0.63 0.07-0.21 0.26-0.34 0.47-0.34 0.05 0 0.11 0.01 0.16 0.03 1.23 0.41 2.46 0.91 3.64 1.48 1.3 0.63 2.48 1.29 3.53 1.96 0.43-1.06 0.85-2.13 1.29-3.2 0.86-2.11 1.6-4.16 2.25-6.15-1.04-0.68-2.15-1.32-3.36-1.89-1.77-0.85-3.56-1.51-5.29-1.97-0.27-0.08-0.43-0.35-0.36-0.62 0.06-0.22 0.26-0.37 0.49-0.37 0.04 0 0.08 0.01 0.12 0.02 1.8 0.48 3.64 1.17 5.47 2.03 1.16 0.56 2.23 1.17 3.24 1.81 1.18-3.8 2-7.4 2.53-10.78-1.87-1.14-4.16-2.14-6.69-2.91-1.15-0.34-2.3-0.62-3.42-0.82-0.2-0.03-0.39-0.07-0.58-0.09-0.28-0.05-0.46-0.3-0.42-0.57 0.04-0.25 0.25-0.43 0.49-0.43 0.03 0 0.05 0 0.08 0.01 0.2 0.03 0.4 0.06 0.6 0.1 1.16 0.2 2.35 0.49 3.54 0.85 2.45 0.74 4.69 1.7 6.56 2.79 0.66-4.63 0.79-8.82 0.59-12.53-2.08-0.94-4.79-1.67-7.92-2.11-0.62-0.09-1.26-0.16-1.89-0.2-0.28-0.02-0.49-0.26-0.47-0.53s0.24-0.47 0.5-0.47h0.04c0.66 0.05 1.32 0.12 1.96 0.21 2.98 0.42 5.62 1.1 7.71 1.98-0.22-3.05-0.64-5.75-1.15-8.06-0.09-0.4 0.17-0.8 0.57-0.89 0.06-0.01 0.11-0.02 0.16-0.02 0.35 0 0.66 0.24 0.74 0.59 1.5 6.79 2.3 16.81-0.7 29.26 8.14 12.32 12.9 23.25 15.52 33.83 1.71 6.92 2.88 13.95 3.7 19.29 0.94 6.01 1.74 12.32 2.4 18.75 0 0.02 0.01 0.05 0.02 0.08 0.15 2.26 1.21 15.24 2.49 20.34 0.34-0.34 0.7-0.67 1.08-0.97 0.14-0.1 0.3-0.16 0.46-0.16 0.23 0 0.45 0.1 0.59 0.29 0.26 0.33 0.2 0.8-0.12 1.05-4.55 3.58-5.72 10.02-2.72 14.98 0.18 0.3 0.38 0.6 0.59 0.88 0.11 0.16 0.27 0.14 0.35 0.11 0.07-0.02 0.23-0.09 0.24-0.3 0.17-4.02 2.13-7.67 5.38-10.01 0.33-0.25 0.8-0.17 1.04 0.16 0.25 0.34 0.17 0.81-0.16 1.05-0.48 0.34-0.91 0.72-1.32 1.13 0.4 0.24 0.8 0.47 1.22 0.67 6.79 3.34 14.65 0.17 18.72-2.02l0.1-0.05c0.02-0.01 0.04-0.03 0.07-0.04l0.12-0.07c2.19-1.19 4.04-2.46 5.5-3.77 2.49-2.21 3.9-4.57 4.2-7.04 0.5-3.99 2.47-7.63 5.55-10.23 4.09-3.47 10.34-10.52 6.17-18.74-1.13-2.23-2.99-4.14-5.24-5.38-4.83-2.65-9.9-2.91-15.06-0.77-0.98 0.41-1.94 0.9-2.85 1.44-1.94 1.12-3.83 2.57-5.79 4.41-0.88 0.84-1.54 1.49-2.13 2.13-0.73 0.79-1.34 1.53-1.9 2.31-0.98 1.35-2.09 2.89-3.61 3.87-0.8 0.51-1.82 0.82-2.72 0.84h-0.07c-1.18 0.03-2.17-0.46-2.74-1.37-0.53-0.82-0.64-1.77-0.71-2.66-0.28-3.69-0.33-7.41-0.37-11.02-0.03-2.97-0.06-6.05-0.24-9.09l-0.01-0.26c-0.93-16.55-4.52-34.09-10.39-50.71-2.03-5.75-5.31-14.23-10.27-21.48-0.24-0.34-0.15-0.81 0.19-1.04 0.13-0.09 0.28-0.14 0.42-0.14 0.24 0 0.48 0.12 0.62 0.33 1.23 1.8 2.36 3.67 3.39 5.55 0.97-0.48 1.98-0.91 3.01-1.27 2.33-0.8 4.61-1.36 6.59-1.63h0.06c0.25 0 0.47 0.18 0.5 0.43 0.04 0.27-0.16 0.53-0.43 0.56-1.92 0.26-4.13 0.81-6.39 1.59-0.99 0.34-1.94 0.75-2.87 1.2 1.96 3.67 3.56 7.37 4.84 10.66 0.68-0.3 1.38-0.58 2.08-0.83 2.43-0.83 4.8-1.41 6.85-1.66h0.06c0.25 0 0.46 0.18 0.49 0.44 0.04 0.27-0.16 0.52-0.43 0.55-1.98 0.25-4.28 0.8-6.64 1.62-0.7 0.24-1.38 0.52-2.05 0.82 0.52 1.35 0.98 2.63 1.39 3.8 0.69 1.95 1.35 3.91 1.97 5.88 0.77-0.2 1.56-0.38 2.35-0.52 1.9-0.35 3.76-0.54 5.52-0.56 0.27 0 0.5 0.23 0.5 0.5 0 0.28-0.22 0.5-0.49 0.5-1.7 0.02-3.5 0.2-5.36 0.54-0.74 0.14-1.49 0.31-2.22 0.5 1 3.21 1.92 6.45 2.75 9.69 2.18-0.6 4.67-0.98 7.28-1.05 0.27 0 0.5 0.21 0.5 0.48 0.01 0.28-0.2 0.51-0.48 0.52-2.53 0.07-4.95 0.43-7.06 1.02 0.79 3.13 1.49 6.27 2.11 9.41 1.86-0.39 3.8-0.63 5.79-0.68 0.2-0.01 0.41-0.01 0.62-0.01 0.28 0 0.5 0.22 0.5 0.5 0 0.27-0.22 0.5-0.5 0.5-0.2 0-0.4 0-0.6 0.01-1.93 0.05-3.81 0.28-5.62 0.66 0.66 3.44 1.22 6.87 1.68 10.28 1.42-0.27 2.93-0.47 4.54-0.56 0.27 0 0.49 0.21 0.5 0.48 0.02 0.27-0.2 0.51-0.47 0.52-1.57 0.08-3.05 0.28-4.44 0.55 0.51 4.03 0.89 8.02 1.11 11.96l0.01 0.27c0.18 3.07 0.21 6.16 0.24 9.16 0.04 3.57 0.09 7.27 0.37 10.91 0.05 0.74 0.13 1.44 0.47 1.97 0.18 0.28 0.45 0.47 0.77 0.58 0.15-2.31 1.06-4.5 1.95-6.63 0.37-0.87 0.71-1.7 1-2.53 0.5-1.4 1.02-2.8 1.62-4.16 0.29-0.64 0.63-1.22 0.97-1.82 0.34-0.61 0.54-1.35 0.69-2.03 0.4-1.73 0.5-3.54 0.68-5.3 0.38-3.74 0.79-7.48 0.89-11.24 0-0.16 0-0.32 0.01-0.47 0.06-3.15-0.02-6.3-0.24-9.44-0.57-8.07-2.76-16.49-5.08-25.4-0.72-2.76-1.46-5.61-2.14-8.43-0.17-0.69 0.13-1.38 0.75-1.72 0.24-0.13 0.49-0.19 0.75-0.19 0.4 0 0.8 0.17 1.11 0.48 3.31 3.44 6.19 7 8.67 10.66 0.5 0.16 0.98 0.33 1.45 0.48 4.89 1.65 8.42 2.83 15.79 2.37 4.6-0.3 8.48-1.86 11.32-3 0.8-0.32 1.49-0.59 2.1-0.8l-1.34-17.19c-2.26 1.34-6.06 3.02-11.29 3.59-0.02 0-0.04 0.01-0.06 0.01m-98.85-47.92-0.82-0.13c-0.28 0-0.56-0.02-0.84-0.04l-0.11-0.01-0.18 0.01-0.35 0.01-0.71 0.02-1.42 0.03-5.69 0.04c-0.34 0-0.93-0.04-1.66-0.1 0.13 1.81 0.15 3.48 0.04 4.77-0.01 0.03-0.01 0.06-0.01 0.09 1.46-0.64 2.94-1.21 4.45-1.72 0.07-0.02 0.13-0.04 0.2-0.06 2.98-1 6.1-1.75 9.31-2.23-0.7-0.32-1.44-0.56-2.21-0.68m-88.28 71.47c8.03 1.09 15.36 3.11 21.22 5.86 0.22 0.1 0.41 0.04 0.5-0.01 0.09-0.04 0.26-0.16 0.31-0.4 0.7-3.27 2.4-9.91 5.95-17.62 0.33-0.69 0.66-1.38 1.01-2.09-4.51 1.55-7.97 2.64-14.94 2.14-4.55-0.32-8.36-1.94-11.14-3.11-0.63-0.27-1.17-0.49-1.67-0.68zm-33.41-18.3c3.35 1.43 7.02 2.49 10.92 3.15 8.77 1.49 17.23 0.7 22.61-2.13l0.11-0.05c0.04-0.02 0.08-0.05 0.13-0.07l1.31-16.85c-5.51 3.36-14.7 4.44-24.37 2.81-4.88-0.83-9.5-2.31-13.46-4.29zm32.42 18.16 1.26-16.09c-5.59 2.79-14.11 3.57-22.93 2.07-3.75-0.64-7.29-1.65-10.57-2.99l2.79 17.67c6.89-1.33 14.68-1.78 22.58-1.3 2.45 0.14 4.71 0.36 6.87 0.64m-45.38 6.38c3.74-2.38 8.9-4.29 14.95-5.53l-2.85-18.09c-3.14 2.71-6.9 5.2-10.92 7.2-4.84 2.41-9.78 4.02-14.4 4.71l9.55 14.67c0.99-1.04 2.22-2.04 3.67-2.96m-22.78-26.39 8.96 13.75c4.64-0.63 9.65-2.23 14.55-4.67 4.11-2.05 7.95-4.61 11.15-7.43l0.03-0.03-2.65-16.78c-3.68 3.86-8.47 7.32-13.96 10.06-6.16 3.08-12.51 4.87-18.08 5.1m109.22 55.14c-0.91-0.74-1.97-1.34-3.19-1.58-0.66-0.14-1.34-0.14-2.01 0-2.23 0.47-4 2.54-4.91 5.67 0.1 0.03 0.19 0.06 0.29 0.1 0.9 0.33 1.8 0.73 2.69 1.18 0.39-0.89 0.97-1.53 1.69-1.89 0.4-0.19 0.82-0.28 1.26-0.28 0.42 0 0.86 0.09 1.31 0.27 1.77 0.71 3.42 2.71 4.4 5.36 0.44 1.17 0.69 2.38 0.77 3.55 0.78 0.78 1.57 1.63 2.29 2.55 1.04 1.34 2.12 2.72 3.52 3.54 0.35 0.21 0.82 0.39 1.31 0.49-0.24-2.16-1.23-4.28-2.18-6.34-0.41-0.88-0.84-1.79-1.19-2.69-0.86-2.14-1.89-4.6-3.29-6.77-0.17-0.26-0.35-0.52-0.54-0.78-0.57-0.77-1.31-1.64-2.22-2.38m-9.43 63.22 0.19 0.12c0.08 0.05 0.15 0.07 0.21 0.07 0.1 0 0.19-0.06 0.24-0.1s0.23-0.22 0.13-0.5c-0.96-2.62-0.93-5.43 0.08-7.99-1.82-0.94-3.42-1.93-4.79-2.97-1.42 4.17 0.17 8.92 3.94 11.37m73.71 19.38c-0.13 0.23 0.01 0.4 0.05 0.45 0.07 0.07 0.2 0.15 0.38 0.07l0.2-0.09c3.85-1.79 5.97-6.02 5.21-10.1-1.41 0.78-3.03 1.49-4.84 2.12 0.6 2.55 0.25 5.2-1 7.55m5.27-61.17c-0.62-0.22-1.25-0.32-1.9-0.27-2.62 0.15-4.83 2.08-6.21 3.67-1.61 1.85-2.9 4.04-3.99 5.94-0.46 0.8-0.98 1.6-1.48 2.38-1.17 1.8-2.37 3.64-2.89 5.62 0.43-0.03 0.87-0.12 1.25-0.28 1.42-0.58 2.63-1.74 3.82-2.89 0.67-0.64 1.42-1.28 2.28-1.93 0.21-1.17 0.63-2.37 1.24-3.49 1.28-2.37 3.11-4.05 4.88-4.49 0.3-0.07 0.58-0.11 0.86-0.11 0.58 0 1.11 0.16 1.58 0.47 0.67 0.45 1.14 1.2 1.38 2.15 0.9-0.32 1.83-0.59 2.77-0.8 0.08-0.02 0.16-0.03 0.25-0.05-0.45-3.03-1.83-5.19-3.84-5.92m68.27 43.9c-0.08 0.25 0.08 0.39 0.14 0.43 0.08 0.07 0.22 0.12 0.38 0.01l0.18-0.13c3.47-2.45 4.8-6.99 3.32-10.87-1.24 1.02-2.71 2.01-4.38 2.96 1.04 2.4 1.18 5.07 0.36 7.6m-5.76-61.13c-0.65-0.1-1.29-0.08-1.91 0.08-2.56 0.61-4.38 2.91-5.46 4.72-1.25 2.12-2.13 4.5-2.86 6.56-0.31 0.87-0.68 1.75-1.04 2.61-0.82 1.97-1.67 4-1.82 6.04 0.41-0.1 0.83-0.27 1.18-0.49 1.28-0.83 2.26-2.18 3.23-3.53 0.57-0.79 1.22-1.58 1.99-2.41 0.02-0.02 0.04-0.05 0.06-0.07 0.03-1.11 0.23-2.27 0.59-3.39 0.84-2.56 2.34-4.53 4-5.28 0.46-0.21 0.92-0.31 1.36-0.31 0.39 0 0.75 0.07 1.1 0.23 0.71 0.3 1.28 0.89 1.69 1.71 0.8-0.45 1.63-0.87 2.49-1.23l0.24-0.09c-0.99-2.91-2.73-4.78-4.84-5.15m28.66-49.54 0.24 0.12c5.38 2.83 13.84 3.62 22.61 2.13 3.91-0.66 7.58-1.73 10.91-3.15l2.76-17.43c-12.19 6.26-26.44 6.89-37.82 1.68zm-0.88 1.47c-0.53 0.19-1.13 0.43-1.79 0.7-2.91 1.17-6.89 2.77-11.65 3.07-7.57 0.49-11.19-0.73-16.2-2.41-0.05-0.02-0.11-0.04-0.16-0.06 4.31 6.72 7.24 13.79 8.73 21.14 6.6-3.01 14.29-5.05 22.34-6.11zm34.46-1.22c-3.26 1.33-6.8 2.35-10.56 2.99-8.82 1.5-17.35 0.72-22.93-2.08l1.29 16.52c9.69-1.16 19.87-0.9 29.31 0.91zm26.34 13.1c0.2-0.28 0.51-0.73 0.88-1.31-4.86-0.61-10.12-2.26-15.25-4.82-4.03-2.01-7.81-4.51-10.92-7.2l-2.96 18.78c2.02 0.41 4.02 0.88 5.96 1.43 3.81 1.1 9.16 2.94 12.8 6.5 2.55-3.59 8.29-11.69 9.49-13.38m-8.49-21.2c-5.49-2.74-10.28-6.21-13.97-10.06l-2.64 16.77c0.02 0.03 0.04 0.04 0.07 0.07 3.16 2.79 7 5.35 11.11 7.4 5.16 2.57 10.46 4.22 15.32 4.78 0.03 0 0.05 0.01 0.07 0.02 1.3-2.01 3.13-4.92 4.82-7.59 1.67-2.67 3.16-5.03 3.97-6.28-5.74-0.09-12.34-1.91-18.75-5.11m20.73 5.36c-0.48 0.67-2.41 3.73-4.45 6.97-2.55 4.04-5.43 8.62-6.34 9.9-0.28 0.39-0.55 0.78-0.83 1.17-0.43 0.61-0.87 1.22-1.3 1.83-0.53 0.75-1.07 1.51-1.6 2.26-0.58 0.82-1.16 1.63-1.74 2.45-0.58 0.81-1.15 1.62-1.72 2.43-0.52 0.72-1.03 1.44-1.54 2.17-0.83 1.17-1.68 2.33-2.41 3.58-0.37 0.63-0.73 1.27-1.1 1.9-0.13 0.22-0.25 0.44-0.41 0.63-0.17 0.19-0.41 0.24-0.65 0.12-0.27-0.14-0.29-0.47-0.32-0.74-0.06-0.48-0.03-0.97-0.03-1.46-0.01-0.73-0.01-1.45-0.03-2.17-0.01-0.57-0.02-1.13-0.03-1.7v-0.13c-3.24-2.46-7.41-3.89-10.52-4.78-1.44-0.41-2.91-0.77-4.39-1.1-0.21 0.42-0.43 0.85-0.64 1.27-0.49 0.99-1 1.96-1.47 2.96-0.09 0.19-0.2 0.37-0.36 0.49-0.17 0.13-0.4 0.18-0.58 0.1-0.35-0.16-0.33-0.56-0.35-0.88-0.08-1.24-0.17-2.49-0.26-3.73-0.02-0.2-0.03-0.39-0.05-0.59 0-0.02-0.01-0.36-0.03-0.37-2.53-0.44-5.09-0.77-7.65-0.99-2.6-0.23-5.2-0.35-7.81-0.36-2.6-0.01-5.21 0.08-7.81 0.28-0.77 0.06-1.55 0.12-2.31 0.18-0.08 0.01-0.17 0.04-0.22 0.1-0.06 0.07-0.08 0.15-0.09 0.24-0.04 0.23-0.08 0.47-0.13 0.7-0.08 0.38-0.17 0.76-0.25 1.14-0.09 0.39-0.17 0.78-0.26 1.18-0.08 0.36-0.1 0.82-0.27 1.15-0.25 0.5-0.88 0.58-1.13 0.04-0.14-0.29-0.21-0.63-0.31-0.94-0.11-0.35-0.23-0.7-0.35-1.06-0.23-0.69-0.46-1.39-0.7-2.08-0.6 0.05-1.2 0.18-1.79 0.28-0.65 0.1-1.29 0.21-1.93 0.33-1.27 0.23-2.55 0.5-3.81 0.79-2.36 0.55-4.69 1.2-6.98 1.96-1.5 0.5-2.99 1.05-4.45 1.67-0.3 0.13-0.68 0.2-0.75 0.5-0.07 0.33 0.11 0.88 0.12 1.23 0.04 1.24-0.17 2.52-0.31 3.75-0.02 0.26-0.22 0.47-0.47 0.52-0.82 0.15-1.03-1.02-1.3-1.59-0.56-1.21-1.19-2.48-1.5-3.78-0.89-3.73-1.8-7.45-3.24-11.04-1.66-4.14-3.79-8.08-6.28-11.78-1.18-1.75-2.43-3.44-3.75-5.08-0.68-0.85-1.37-1.67-2.08-2.49-0.36-0.4-0.71-0.8-1.07-1.2-0.19-0.2-0.37-0.4-0.55-0.6-0.13-0.14-0.52-0.42-0.56-0.59 0.62 2.52 1.29 5.07 1.93 7.54 2.34 9 4.55 17.5 5.13 25.73 0.74 10.59-0.24 18.24-0.9 23.31-0.05 0.46-0.11 0.89-0.16 1.31-0.01 0.04-0.01 0.09-0.02 0.13 1.1-1.09 2.44-2.02 4.07-2.41 0.49-0.12 0.99-0.18 1.49-0.18 0.34 0 0.67 0.03 1.02 0.08h0.01c0.12 0.02 0.23 0.04 0.35 0.08 2.49 0.57 4.49 2.73 5.61 5.97 0.01 0.02 0.02 0.05 0.03 0.07 2.34-0.76 4.66-1.07 6.94-0.91 0.71 0.04 1.41 0.13 2.11 0.27 0.24 0.04 0.48 0.1 0.72 0.15 0.41 0.1 0.82 0.21 1.23 0.34 1.25 0.38 2.49 0.91 3.72 1.59 2.51 1.38 4.59 3.51 5.86 6.01 3.44 6.77 1.11 14.08-6.55 20.57-2.79 2.35-4.57 5.65-5.02 9.27-0.33 2.69-1.78 5.24-4.29 7.59 2.04 4.62 0.55 10.18-3.63 13.14l-0.21 0.15c-0.66 0.45-1.49 0.43-2.12-0.05-0.66-0.49-0.92-1.31-0.67-2.09 0.69-2.13 0.59-4.39-0.26-6.42-3.44 1.79-9.01 3.98-14.66 3.29-0.22-0.02-0.45-0.05-0.67-0.09-0.56-0.08-1.12-0.2-1.67-0.36-0.3-0.08-0.6-0.17-0.9-0.27-0.6-0.21-1.19-0.45-1.78-0.74-0.54-0.26-1.06-0.57-1.56-0.89-0.01 0.01-0.02 0.03-0.03 0.04-1.45 1.86-2.31 4.13-2.41 6.56-0.03 0.79-0.54 1.44-1.3 1.68-0.43 0.13-0.87 0.1-1.25-0.07-0.04-0.01-0.07-0.02-0.1-0.04-0.25-0.12-0.47-0.31-0.65-0.55-0.24-0.32-0.46-0.65-0.67-1-2.82-4.66-2.37-10.47 0.82-14.62-1.63-4.9-2.61-18.57-2.81-21.51 0-0.02-0.01-0.04-0.01-0.06-0.47-4.63-1.03-9.19-1.64-13.63-2.22-0.03-4.05-1.29-4.18-3.01-0.13-1.59 1.22-3.02 3.21-3.5 0-0.02-0.01-0.03-0.01-0.05-0.11-0.68-0.22-1.38-0.34-2.1-2.52 0.27-4.65-0.68-5-2.37-0.19-0.93 0.19-1.91 1.08-2.75 0.7-0.66 1.67-1.16 2.75-1.47-0.07-0.41-0.15-0.81-0.23-1.21-3.21 0.49-5.9-0.39-6.28-2.15-0.22-0.97 0.3-2.01 1.44-2.91 0.88-0.7 2.07-1.25 3.39-1.62-0.09-0.37-0.17-0.74-0.26-1.1l-0.18-0.69c-2.72 0.66-5.1 0.38-6.22-0.67-0.06-0.05-0.11-0.11-0.17-0.16-0.04-0.04-0.07-0.08-0.1-0.12-0.15-0.2-0.26-0.41-0.33-0.65-0.51-1.78 1.55-3.86 4.86-5-0.18-0.52-0.36-1.04-0.54-1.57-0.04 0.01-0.09 0.02-0.13 0.02-0.75 0.16-1.49 0.17-2.13 0.02-0.03-0.01-0.06-0.01-0.09-0.03-0.09-0.01-0.17-0.04-0.25-0.07-0.76-0.25-1.28-0.73-1.49-1.37-0.24-0.72-0.02-1.52 0.6-2.26 0.4-0.47 0.94-0.87 1.57-1.19-2.55-6.02-5.83-12.1-9.96-18.47l-0.03 0.12c-0.89 3.25-2.02 6.66-3.47 10.23-0.03 0.06-0.05 0.13-0.08 0.19-0.86 2.11-1.71 4.21-2.55 6.32-1.62 4.06-3.24 8.22-4.94 12.63-0.5 1.32-1.02 2.67-1.54 4.04-3.26 8.55-6.2 18.29-8.74 26.93-0.03 0.12-0.07 0.23-0.1 0.34 0.97-0.48 2.02-0.81 3.16-0.88 0.14-0.01 0.28-0.01 0.41-0.01 0.71 0 1.41 0.12 2.09 0.36 0.32 0.12 0.62 0.26 0.91 0.43 0.06 0.02 0.11 0.06 0.16 0.1 1.91 1.16 3.22 3.4 3.7 6.37l0.03 0.21c0.9-0.13 1.79-0.2 2.66-0.2 3.4 0 6.58 0.92 9.5 2.76 0.03 0.01 0.05 0.03 0.07 0.04 0.68 0.43 1.35 0.91 2 1.44 2.22 1.8 3.88 4.27 4.68 6.95 2.17 7.29-1.42 14.06-10.12 19.07-3.17 1.82-5.51 4.74-6.6 8.22-0.81 2.59-2.69 4.84-5.58 6.71 1.18 4.91-1.29 10.11-5.92 12.28l-0.24 0.11c-0.73 0.32-1.54 0.15-2.08-0.43-0.34-0.37-0.51-0.85-0.5-1.32 0.01-0.3 0.08-0.59 0.22-0.86 0.85-1.58 1.21-3.32 1.08-5.05-0.01-0.11-0.02-0.22-0.03-0.32-0.03-0.34-0.09-0.67-0.16-1-4.57 1.42-12.43 2.87-18.7-1.05-0.14-0.08-0.28-0.17-0.41-0.26-0.19-0.13-0.38-0.26-0.57-0.4-0.49-0.36-0.95-0.75-1.39-1.17l-0.05 0.05c-1.74 1.57-2.99 3.65-3.52 6.02-0.17 0.77-0.8 1.32-1.58 1.41-0.52 0.07-1-0.08-1.37-0.39-0.01 0-0.02-0.01-0.02-0.01-0.19-0.16-0.35-0.36-0.47-0.6-0.17-0.36-0.33-0.72-0.47-1.1-0.79-2.06-1.01-4.22-0.74-6.29 0.4-3.03 1.85-5.86 4.16-7.96-0.63-4.33 0.35-14.81 0.83-19.45 0.14-1.29 0.23-2.12 0.25-2.26 0.27-3.34 0.57-6.65 0.9-9.93-0.03-0.01-0.05-0.02-0.08-0.03h-0.01l-0.12-0.03c-2.01-0.64-3.34-2.28-3.04-3.92 0.28-1.54 1.89-2.57 3.87-2.57h0.09l0.18-1.59c-0.16-0.02-0.32-0.05-0.48-0.08-0.15-0.03-0.29-0.06-0.43-0.09-2.2-0.54-3.71-1.94-3.6-3.53 0.07-0.95 0.7-1.78 1.79-2.34 0.86-0.45 1.92-0.68 3.05-0.68 0.17 0 0.35 0.01 0.53 0.02 0.07-0.47 0.13-0.93 0.19-1.39-0.1-0.01-0.19-0.03-0.28-0.05-1.4-0.25-2.62-0.72-3.54-1.32-0.08-0.04-0.16-0.09-0.23-0.15-1.11-0.78-1.73-1.75-1.59-2.72 0.11-0.86 0.76-1.57 1.83-2.05 0.16-0.07 0.34-0.14 0.52-0.2 0.08-0.03 0.15-0.05 0.23-0.07 0.13-0.04 0.27-0.08 0.42-0.11s0.32-0.07 0.48-0.09c0.1-0.02 0.21-0.03 0.32-0.05 0.44-0.06 0.9-0.09 1.38-0.09 0.39 0 0.8 0.02 1.2 0.06 0.09 0.01 0.18 0.02 0.27 0.03 0.08-0.44 0.15-0.89 0.22-1.33-0.1-0.02-0.2-0.04-0.29-0.06-1.76-0.35-3.21-1-4.12-1.82-0.02-0.01-0.03-0.02-0.04-0.03-0.08-0.08-0.16-0.15-0.24-0.23-0.06-0.07-0.12-0.13-0.17-0.19-0.46-0.55-0.68-1.16-0.61-1.77 0.12-1.02 1.01-1.82 2.37-2.29 0.14-0.04 0.29-0.09 0.44-0.13 0.19-0.05 0.4-0.1 0.61-0.14 0.63-0.12 1.33-0.19 2.07-0.19 0.26 0 0.55 0.02 0.83 0.05 0.09 0 0.19 0.01 0.28 0.02 0.07-0.42 0.14-0.85 0.21-1.27-0.09-0.02-0.18-0.04-0.27-0.07-0.15-0.04-0.29-0.09-0.43-0.14-0.1-0.04-0.19-0.07-0.29-0.11-1.58-0.68-2.53-1.92-2.28-3.13 0.26-1.17 1.57-1.89 3.21-1.89 0.31 0 0.64 0.04 0.98 0.09 1.72-9.75 3.47-18.95 5.32-27.84 0.19-0.88 0.4-1.76 0.62-2.65 0.79-3.18 1.6-6.48 0.69-9.58-0.4-1.36-1.24-2.45-2.38-3.12l-0.06-0.03c-0.53-0.3-1.12-0.51-1.75-0.62-1.97-0.32-3.86 0.34-5.1 0.96-3.65 1.82-6.79 5.07-9.34 9.65-1.41 2.53-2.39 5.3-3.24 8.08 1.8 0.77 2.87 2.22 2.48 3.52-0.23 0.73-0.86 1.26-1.8 1.5-0.64 0.17-1.37 0.18-2.12 0.04-0.12 0.43-0.24 0.87-0.35 1.3 2.86 0.98 4.79 2.81 4.59 4.45-0.07 0.57-0.4 1.07-0.94 1.44-1.1 0.75-3.06 0.93-5.19 0.49-0.1 0.47-0.2 0.93-0.3 1.4 0.18 0.05 0.36 0.11 0.53 0.17 2.78 0.93 4.65 2.72 4.4 4.34-0.09 0.58-0.43 1.09-0.99 1.47-1.13 0.76-3.07 0.98-5.16 0.61-0.08 0.47-0.15 0.97-0.22 1.47v0.01c0.1 0.02 0.21 0.05 0.31 0.08 0.04 0.02 0.09 0.03 0.14 0.05 0.7 0.22 1.33 0.56 1.8 0.99 0.72 0.65 1.03 1.42 0.89 2.16-0.14 0.75-0.71 1.35-1.61 1.7-0.64 0.25-1.41 0.33-2.21 0.27-0.06 0.55-0.12 1.13-0.18 1.69-0.01 0.02-0.01 0.03-0.01 0.05 0.58 0.22 1.08 0.56 1.43 0.99 0.46 0.52 0.69 1.17 0.62 1.85-0.08 0.75-0.5 1.41-1.18 1.86-0.23 0.15-0.49 0.27-0.76 0.35-0.01 0.01-0.03 0.01-0.04 0.01-0.1 0.03-0.2 0.07-0.31 0.09-0.03 0.01-0.07 0.02-0.11 0.03-0.04 0-0.09 0.01-0.14 0.02-0.02 0-0.04 0.01-0.06 0.02-0.39 0.28-0.32 2.63-0.32 2.94-0.17 8.15-0.84 16.3-1.19 24.44-0.19 4.32-0.12 8.69-0.98 12.95-0.23 1.16-0.53 2.3-0.92 3.42 3.19 4.19 3.76 10 1.1 14.82-0.2 0.37-0.42 0.73-0.65 1.07-0.45 0.66-1.24 0.96-2.01 0.76h-0.02c-0.02 0-0.04-0.01-0.05-0.02-0.76-0.22-1.3-0.86-1.36-1.65-0.21-2.58-1.23-4.96-2.85-6.87-0.02 0.01-0.04 0.03-0.06 0.04-0.5 0.36-1.01 0.68-1.55 0.97-3.92 2.13-8.19 2.31-12.04 1.67-0.8-0.12-1.58-0.29-2.34-0.48-0.36-0.09-0.71-0.18-1.06-0.28-2.03-0.6-3.85-1.34-5.31-2.03 0 0.01 0 0.01-0.01 0.02-0.82 2.18-0.84 4.57-0.02 6.8 0.29 0.79 0.06 1.65-0.59 2.18-0.64 0.51-1.49 0.57-2.19 0.14l-0.23-0.15c-3.67-2.38-5.53-6.66-5.04-10.81 0.08-0.67 0.22-1.33 0.42-1.99h0.01c0.07-0.25 0.15-0.49 0.25-0.74 0.01-0.03 0.02-0.05 0.03-0.08-2.72-2.37-4.35-4.98-4.81-7.77-0.62-3.78-2.63-7.17-5.66-9.54-8.3-6.47-11.04-14.02-7.73-21.25 1.22-2.66 3.31-4.98 5.87-6.53 3.21-1.93 6.55-2.9 9.99-2.9 1.33 0 2.67 0.15 4.03 0.44 0.23 0.05 0.45 0.1 0.68 0.16s0.45 0.12 0.68 0.18c1.08-3.66 3.24-6.1 6.03-6.69 0.44-0.09 0.88-0.14 1.32-0.14s0.87 0.05 1.3 0.14c0.16 0.03 0.33 0.07 0.49 0.12h0.01c0.21 0.06 0.41 0.13 0.61 0.2 0.16 0.06 0.32 0.12 0.47 0.19 1.1 0.47 2.16 1.21 3.16 2.19l0.18 0.18c-0.57-3.81-1.42-7.53-2.28-11.14-0.57-2.43-1.16-4.95-1.65-7.45-0.43-2.22-0.85-5.92-1.06-8.67v-0.01c-0.11-1.35-0.17-2.46-0.16-3.06 0.21-12.53 1.96-22.6 5.69-32.64 0.37-1 0.76-1.98 1.16-2.96-3.33 3.52-9.7 10.7-13.11 17.57-0.19 0.37-0.36 0.73-0.53 1.09-0.02 0.03-0.04 0.07-0.05 0.11-0.16 0.32-0.31 0.64-0.46 0.95-0.06 0.13-0.12 0.26-0.17 0.39-0.03 0.05-0.05 0.09-0.06 0.13-3.32 7.32-4.93 13.57-5.59 16.7-0.13 0.61-0.48 1.12-0.98 1.47l-2.83 4.06-0.29 0.33-0.36-0.11c-0.24-0.08-0.41-0.32-0.4-0.59l0.24-4c-5.22-2.29-11.54-4.01-18.45-5.02l-1.54 4.39-0.18 0.4-0.38-0.02c-0.25-0.01-0.48-0.19-0.54-0.46l-1.05-4.8c-1.6-0.18-3.27-0.32-5.04-0.42-7.19-0.44-14.27-0.08-20.64 1l-0.43 5.69-0.08 0.43-0.36 0.08c-0.25 0.05-0.52-0.06-0.65-0.31l-2.55-5.08c-5.12 1.19-9.49 2.87-12.7 4.92-0.7 0.45-1.34 0.92-1.92 1.39l-0.1 5.8c0 0.25-0.16 0.47-0.39 0.55l-0.48 0.1-1.97-3.36-21.36-32.8c-0.01-0.03-0.02-0.06-0.03-0.08-0.03-0.06-0.05-0.11-0.07-0.17-0.01-0.06-0.03-0.12-0.03-0.18 0-0.03-0.02-0.06-0.02-0.09s0.02-0.05 0.02-0.08c0.01-0.06 0.02-0.12 0.04-0.18s0.04-0.11 0.07-0.16 0.06-0.1 0.09-0.14c0.04-0.05 0.09-0.09 0.14-0.14 0.02-0.01 0.04-0.04 0.06-0.06 0.03-0.01 0.05-0.01 0.08-0.03 0.05-0.03 0.11-0.05 0.17-0.07 0.06-0.01 0.12-0.03 0.18-0.03 0.02 0 0.05-0.02 0.09-0.02 5.65 0.08 12.39-1.68 18.91-4.94 5.68-2.83 10.78-6.61 14.36-10.64 0.18-0.2 0.43-0.31 0.69-0.31 0.21 0 0.43 0.08 0.61 0.24 0.08 0.07 0.14 0.16 0.2 0.26 3.94 2.05 8.63 3.58 13.59 4.43 9.67 1.64 19.14 0.42 24.13-3.11l0.39-0.29 0.42 0.26c3.13 1.87 7.74 3.95 10.99 4.36 4.15 0.54 8.25-0.2 11.72-0.99 7.64-1.77 14.83-5.05 20.77-9.46 2.77-2.05 5.27-4.36 7.45-6.88 1.9-2.19 3.72-4.14 5.49-5.85-2.01-1.07-3.96-2.32-5.69-3.81-1.92-1.65-2.78-4.15-2.97-6.76-3.77 4.28-6.04 9.81-9.84 14.19-6.72 7.76-17.96 10.33-26.33 3.46-3.02-2.45-5.18-5.92-6.13-9.68l-2.98 0.61c-0.38 0.07-0.72-0.27-0.61-0.65l1.92-10.56c0.14-0.73 1.12-0.92 1.52-0.28l5.57 8.85c0.24 0.42 0 0.93-0.47 1.03l-1.8 0.37c0.2 0.36 0.41 0.73 0.6 1.09l0.12 0.21c0.83 1.5 1.71 2.93 3.02 4.06 1.43 1.23 3.17 2.08 5 2.48 3.48 0.76 7.12-0.12 9.99-2.24 3.02-2.22 5.26-5.4 7.06-8.66 3.8-6.88 9.37-12.79 16-17 0.6-0.38 1.21-0.72 1.85-1.03 1.91-2.79 4.22-5.57 6.33-7.78l-4.43-0.71-0.15-0.03c-0.05-0.01-0.11-0.01-0.16-0.03-0.25-0.04-0.52-0.09-0.78-0.15-0.09-0.01-0.17-0.03-0.26-0.05-1.2-0.26-2.45-0.51-3.51-0.33-0.42 0.07-0.81 0.16-1.2 0.25-1.26 0.3-2.57 0.61-4.11 0.06-1.05-0.37-4.25-2-4.7-3.67-0.21-0.77 0.03-1.27 0.27-1.55 0.49-0.57 1.37-0.74 2.41-0.74 0.8 0 1.7 0.1 2.58 0.2 0.14 0.02 0.28 0.04 0.42 0.05-0.05-0.08-0.11-0.17-0.15-0.24l-0.23-0.37c-0.23-0.38-0.27-0.83-0.11-1.24 0.16-0.4 0.5-0.71 0.93-0.82 0.9-0.25 2.23-0.48 3.45-0.16 0.77 0.2 1.57 0.63 2.35 1.05 0.56 0.31 1.09 0.6 1.51 0.73-0.06-0.69 0.14-1.51 0.58-2.43l0.36-0.77c0.21-0.44 0.63-0.75 1.1-0.83 0.09-0.01 0.17-0.02 0.25-0.02 0.4 0 0.78 0.16 1.07 0.44 0.48 0.5 1.03 0.87 1.64 1.12 0.56 0.23 0.92 0.61 1.19 1.06 0.04 0.01 0.08 0.02 0.12 0.04 0.1 0.04 9.56 4.23 15.2 1.2 0.9-0.48 1.5-0.31 1.85-0.08 0.3 0.2 0.78 0.71 0.67 1.9-0.16 1.79-1.83 5.23-5.6 6.82-0.01 0.01-0.04 0.04-0.06 0.1-0.03 0.08-0.03 0.17 0.01 0.24 0.36 0.71 0.72 1.69 1.05 2.84 0.97-0.12 1.93-0.23 2.9-0.34l5.65-0.57 1.42-0.11 0.71-0.06 0.35-0.03 0.18-0.01 0.24-0.01 2-0.03c0.67 0.02 1.34 0.1 2 0.16 5.32 0.73 10.42 3.48 13.68 7.75 1.24 1.61 2.2 3.41 2.87 5.32 4.46 0.5 8.92 1.44 13.2 2.83 0.04 0.01 0.07 0.02 0.11 0.03 0.05 0.01 0.09 0.02 0.14 0.04 1.85 0.6 3.66 1.28 5.4 2.04-0.01-0.05-0.01-0.1-0.02-0.15-0.01-0.09-0.02-0.19-0.03-0.29-0.01-0.08-0.02-0.18-0.03-0.27-0.02-0.17-0.03-0.34-0.04-0.52-0.04-0.75-0.05-1.61-0.02-2.55 0.01-0.26 0.02-0.53 0.03-0.81 0.06-1.06 0.15-2.18 0.27-3.33 0.03-0.3 0.07-0.61 0.11-0.91 0-0.06 0.01-0.12 0.02-0.18 0.04-0.34 0.09-0.68 0.14-1.02 0.05-0.4 0.11-0.81 0.18-1.21s0.13-0.79 0.2-1.18 0.15-0.78 0.22-1.16c0.06-0.33 0.13-0.65 0.2-0.96 0.47-2.21 1.05-4.13 1.65-5.31 0.01-0.01 0.02-0.03 0.01-0.05 0.01-0.02 0.01-0.04 0.01-0.06 0.01-0.04 0-0.09-0.01-0.13-0.01-0.02-0.02-0.04-0.02-0.05-0.02-0.03-0.04-0.04-0.05-0.04-3.03-1.29-4.7-3.76-5.32-5.61-0.04-0.12-0.08-0.23-0.11-0.34-0.01-0.05-0.02-0.09-0.04-0.14-0.07-0.27-0.11-0.52-0.13-0.74-0.01-0.1-0.02-0.18-0.02-0.27 0-0.12 0.01-0.22 0.02-0.32 0.06-0.78 0.44-1.15 0.68-1.31 0.34-0.23 0.94-0.4 1.84 0.08 5.64 3.03 15.11-1.16 15.2-1.2 0.04-0.02 0.08-0.02 0.12-0.03h0.01c0.25-0.45 0.62-0.84 1.18-1.07 0.61-0.25 1.16-0.62 1.64-1.11 0.29-0.29 0.67-0.45 1.07-0.45 0.08 0 0.16 0.01 0.25 0.02 0.48 0.09 0.89 0.4 1.1 0.84l0.36 0.76c0.44 0.92 0.64 1.74 0.58 2.44 0.42-0.14 0.95-0.43 1.51-0.73 0.78-0.42 1.58-0.86 2.35-1.06 1.22-0.32 2.55-0.09 3.45 0.16 0.43 0.12 0.77 0.42 0.93 0.83 0.16 0.4 0.12 0.85-0.11 1.23-0.17 0.27-0.36 0.55-0.56 0.83 0.64-0.04 1.59-0.14 2.9-0.38 0.31-0.06 0.61-0.09 0.89-0.09 0.41 0 0.78 0.07 1.11 0.19 0.51 0.2 0.87 0.62 1 1.15 0.14 0.54 0 1.13-0.37 1.56-0.44 0.51-0.94 0.88-1.58 1.35-0.42 0.3-0.91 0.66-1.5 1.15-1.75 1.45-3.95 0.9-5.56 0.49-0.37-0.09-0.72-0.18-1.04-0.24-0.72-0.13-1.15 0.02-1.92 0.28-0.65 0.21-1.46 0.48-2.69 0.66-0.49 0.48-1.85 1.51-4.05 1.02 3.87 4.19 8.22 10.06 9.44 14.25 1.23 4.24 1.39 10.28-2.22 13.38-1.86 1.59-3.96 2.92-6.12 4.04 2.04 2.08 3.84 4.31 5.35 6.66 1.73 2.7 3.18 5.75 4.71 8.98l0.29 0.62c2.38 5.01 10.37 8.25 10.5 8.31 6.26 3.08 22.17 9.37 34.9 1.27l0.36-0.22 0.38 0.18c11.28 5.65 25.83 5.07 38.11-1.45 0.05-0.1 0.12-0.19 0.2-0.27 0.18-0.15 0.4-0.23 0.61-0.23 0.26 0 0.51 0.11 0.69 0.31 3.58 4.03 8.68 7.81 14.35 10.64 6.4 3.19 12.99 4.94 18.59 4.94h0.34c0.51 0 0.92 0.41 0.92 0.91 0 0.03-0.01 0.05-0.01 0.07 0.26 0.3 0.31 0.75 0.07 1.09" fill="#006577"/></g><g transform="translate(176.65 75.387)"><path d="m0 0c3.427-1.382 7.204-2.192 10.92-2.344 0.461-0.019 0.921-0.029 1.382-0.029 4.31 0 8.625 0.856 12.559 2.498 1e-3 1e-3 3e-3 1e-3 5e-3 1e-3 0.212 0.089 0.424 0.18 0.632 0.272 0.253 0.112 0.367 0.408 0.255 0.66-0.112 0.253-0.41 0.366-0.659 0.254-0.202-0.088-0.407-0.177-0.613-0.262-1e-3 0-2e-3 -2e-3 -3e-3 -2e-3 -4.222-1.761-8.9-2.598-13.516-2.392-3.605 0.147-7.266 0.932-10.589 2.272-0.254 0.102-0.546-0.021-0.65-0.278-0.104-0.255 0.02-0.546 0.277-0.65" fill="#006577"/></g><g transform="translate(205.79 60.051)"><path d="m0 0c-5.602-2.553-11.886-3.799-18.203-3.584-5.068 0.151-10.176 1.257-14.77 3.197-0.256 0.106-0.548-0.011-0.655-0.266-0.107-0.254 0.012-0.548 0.266-0.656 4.707-1.987 9.938-3.12 15.128-3.275 0.465-0.015 0.93-0.022 1.395-0.022 5.989 0 11.926 1.268 17.253 3.696 0.252 0.114 0.362 0.411 0.248 0.662-0.114 0.252-0.41 0.359-0.662 0.248" fill="#006577"/></g><g transform="translate(173.83 66.999)"><path d="m0 0c4.291-1.768 9.038-2.782 13.726-2.934 0.454-0.015 0.908-0.023 1.363-0.023 5.4 0 10.796 1.119 15.685 3.262 0.199 0.088 0.396 0.175 0.591 0.265 0.25 0.117 0.36 0.413 0.244 0.664s-0.411 0.359-0.664 0.245c-0.189-0.088-0.381-0.174-0.573-0.258-5.164-2.264-10.889-3.36-16.613-3.155-4.571 0.148-9.197 1.136-13.378 2.858-0.256 0.107-0.548-0.016-0.652-0.272-0.106-0.255 0.016-0.548 0.271-0.652" fill="#006577"/></g><g transform="translate(189.2 221.77)"><path d="m0 0c0.099 0.021 0.198 0.031 0.298 0.031 0.82-0.718 1.544-1.768 2.077-3.009 0.248-0.547 0.452-1.149 0.608-1.776 0.142-0.579 0.242-1.151 0.29-1.709-0.356-0.822-0.938-1.406-1.686-1.555-1.497-0.298-3.058 1.257-3.503 3.473-0.433 2.207 0.419 4.247 1.916 4.545" fill="#006577"/></g><g transform="translate(199.17 222.53)"><path d="m0 0c0.256 0.047 0.509 0.033 0.757-0.031 0.576-0.694 1.06-1.568 1.417-2.576 0.122-0.299 0.217-0.621 0.302-0.954 0.126-0.53 0.21-1.043 0.263-1.551-0.271-0.763-0.777-1.308-1.437-1.438-1.232-0.24-2.511 1.023-2.863 2.836-0.361 1.813 0.339 3.475 1.561 3.714" fill="#006577"/></g></g><g transform="matrix(1.3971 0 0 -1.3971 2224.1 1637.7)"><g clip-path="url(#ac)"><g clip-path="url(#ab)" opacity=".39"><g transform="translate(146.17 159.77)"><path d="m0 0c0.053-1.04-0.385-1.907-0.979-1.937-0.594-0.031-1.118 0.787-1.171 1.827-0.054 1.04 0.385 1.907 0.979 1.938 0.593 0.03 1.118-0.788 1.171-1.828" fill="#006577"/></g></g><g clip-path="url(#aa)" opacity=".39"><g transform="translate(150.19 151.21)"><path d="m0 0c0.053-1.04-0.385-1.907-0.979-1.937-0.594-0.031-1.118 0.788-1.171 1.828-0.054 1.039 0.385 1.906 0.979 1.937 0.593 0.03 1.118-0.788 1.171-1.828" fill="#006577"/></g></g><g clip-path="url(#z)" opacity=".39"><g transform="translate(131.84 208.64)"><path d="m0 0c-1.04-0.042-1.903 0.406-1.926 1-0.024 0.594 0.8 1.109 1.84 1.151s1.903-0.406 1.926-1c0.024-0.594-0.799-1.109-1.84-1.151" fill="#006577"/></g></g><g clip-path="url(#y)" opacity=".39"><g transform="translate(127.63 208.38)"><path d="m0 0c-0.504-0.129-0.973-1e-3 -1.047 0.287s0.275 0.626 0.779 0.756c0.504 0.129 0.973 1e-3 1.047-0.287s-0.275-0.626-0.779-0.756" fill="#006577"/></g></g><g clip-path="url(#x)" opacity=".39"><g transform="translate(136.58 209.17)"><path d="m0 0c-0.521 6e-3 -0.94 0.251-0.937 0.549 3e-3 0.297 0.428 0.534 0.949 0.528 0.52-6e-3 0.94-0.252 0.936-0.549-3e-3 -0.297-0.427-0.533-0.948-0.528" fill="#006577"/></g></g><g clip-path="url(#v)" opacity=".39"><g transform="translate(182.69 226.64)"><path d="m0 0c-1.041-4e-3 -1.887 0.474-1.89 1.069-2e-3 0.595 0.84 1.08 1.881 1.084s1.887-0.474 1.889-1.069c3e-3 -0.594-0.839-1.08-1.88-1.084" fill="#006577"/></g></g><g clip-path="url(#u)" opacity=".39"><g transform="translate(179.04 225.96)"><path d="M 0,0 C -0.509,-0.111 -0.973,0.034 -1.036,0.324 -1.1,0.615 -0.739,0.94 -0.23,1.052 0.278,1.163 0.742,1.018 0.806,0.728 0.869,0.437 0.508,0.111 0,0" fill="#006577"/></g></g><g clip-path="url(#t)" opacity=".39"><g transform="translate(187.44 227)"><path d="m0 0c-0.52 0.024-0.93 0.285-0.916 0.582s0.447 0.518 0.967 0.494c0.52-0.025 0.93-0.285 0.916-0.582s-0.447-0.518-0.967-0.494" fill="#006577"/></g></g><g clip-path="url(#s)" opacity=".39"><g transform="translate(254.7 212.28)"><path d="m0 0c-1.023 0.193-1.762 0.824-1.652 1.408s1.029 0.901 2.052 0.707c1.023-0.193 1.763-0.823 1.653-1.407-0.111-0.585-1.03-0.901-2.053-0.708" fill="#006577"/></g></g><g clip-path="url(#r)" opacity=".39"><g transform="translate(250.53 212.98)"><path d="m0 0c-0.521-0.013-0.948 0.218-0.956 0.515-7e-3 0.297 0.409 0.548 0.93 0.561 0.52 0.013 0.948-0.218 0.955-0.515 8e-3 -0.297-0.408-0.548-0.929-0.561" fill="#006577"/></g></g><g clip-path="url(#q)" opacity=".39"><g transform="translate(259.44 211.74)"><path d="m0 0c-0.506 0.123-0.859 0.457-0.79 0.746 0.071 0.288 0.538 0.423 1.043 0.3 0.506-0.122 0.86-0.456 0.789-0.745-0.069-0.289-0.536-0.424-1.042-0.301" fill="#006577"/></g></g><g clip-path="url(#p)" opacity=".39"><g transform="translate(148.07 144.2)"><path d="m0 0c0.053-1.04-0.385-1.907-0.979-1.937-0.594-0.031-1.118 0.788-1.171 1.827-0.054 1.04 0.385 1.907 0.979 1.938 0.593 0.03 1.118-0.788 1.171-1.828" fill="#006577"/></g></g><g clip-path="url(#o)" opacity=".39"><g transform="translate(152.58 137.3)"><path d="m0 0c0.03-0.59-0.218-1.082-0.555-1.099-0.337-0.018-0.634 0.447-0.665 1.037-0.03 0.589 0.219 1.082 0.555 1.099 0.337 0.017 0.635-0.447 0.665-1.037" fill="#006577"/></g></g><g clip-path="url(#n)" opacity=".39"><g transform="translate(176.43 177.25)"><path d="M 0,0 C 0.25,-1.011 0.919,-1.715 1.497,-1.572 2.074,-1.43 2.34,-0.495 2.09,0.516 1.841,1.526 1.171,2.23 0.594,2.088 0.017,1.945 -0.249,1.011 0,0" fill="#006577"/></g></g><g clip-path="url(#m)" opacity=".39"><g transform="translate(176.24 167.82)"><path d="m0 0c0.221-1.018 0.871-1.74 1.452-1.614s0.873 1.053 0.652 2.071c-0.221 1.017-0.871 1.74-1.452 1.613-0.581-0.126-0.873-1.052-0.652-2.07" fill="#006577"/></g></g><g clip-path="url(#k)" opacity=".39"><g transform="translate(180.96 162.21)"><path d="m0 0c0.229-1.016 0.884-1.733 1.464-1.603 0.58 0.131 0.865 1.06 0.637 2.076-0.229 1.015-0.885 1.733-1.465 1.602-0.58-0.13-0.865-1.059-0.636-2.075" fill="#006577"/></g></g><g clip-path="url(#j)" opacity=".39"><g transform="translate(179.67 154.03)"><path d="m0 0c0.112-0.58 0.472-0.998 0.803-0.934s0.509 0.586 0.396 1.166c-0.112 0.58-0.471 0.998-0.803 0.934-0.331-0.064-0.508-0.586-0.396-1.166" fill="#006577"/></g></g><g clip-path="url(#i)" opacity=".39"><g transform="translate(238.42 170.9)"><path d="m0 0c-0.035-1.041 0.419-1.9 1.013-1.92s1.104 0.808 1.139 1.848c0.035 1.041-0.419 1.9-1.013 1.92-0.595 0.02-1.104-0.807-1.139-1.848" fill="#006577"/></g></g><g clip-path="url(#h)" opacity=".39"><g transform="translate(235.67 161.39)"><path d="m0 0c-0.064-1.039 0.365-1.911 0.958-1.948 0.594-0.036 1.127 0.777 1.191 1.816s-0.365 1.911-0.959 1.947c-0.593 0.037-1.126-0.776-1.19-1.815" fill="#006577"/></g></g><g clip-path="url(#g)" opacity=".39"><g transform="translate(238.77 154.76)"><path d="m0 0c-0.056-1.04 0.38-1.908 0.974-1.94 0.593-0.032 1.12 0.785 1.176 1.824 0.056 1.04-0.38 1.908-0.974 1.941-0.593 0.031-1.12-0.785-1.176-1.825" fill="#006577"/></g></g><g clip-path="url(#f)" opacity=".39"><g transform="translate(235.3 147.23)"><path d="m0 0c-0.049-0.588 0.183-1.089 0.519-1.117s0.648 0.426 0.698 1.014c0.05 0.589-0.183 1.089-0.519 1.117s-0.649-0.426-0.698-1.014" fill="#006577"/></g></g><g clip-path="url(#e)" opacity=".39"><g transform="translate(144.31 54.57)"><path d="m0 0c0.053-1.04-0.385-1.907-0.979-1.937-0.594-0.031-1.118 0.788-1.171 1.828-0.054 1.039 0.385 1.907 0.979 1.937 0.593 0.03 1.118-0.788 1.171-1.828" fill="#006577"/></g></g><g clip-path="url(#d)" opacity=".39"><g transform="translate(146.39 58.269)"><path d="m0 0c-0.563-0.581-1.289-0.79-1.62-0.469-0.332 0.323-0.144 1.054 0.42 1.634 0.563 0.58 1.288 0.79 1.62 0.469 0.331-0.322 0.143-1.054-0.42-1.634" fill="#006577"/></g></g><g clip-path="url(#c)" opacity=".39"><g transform="translate(144.93 49.826)"><path d="m0 0c0.267-0.764 0.129-1.506-0.307-1.658-0.437-0.153-1.006 0.344-1.273 1.107-0.266 0.764-0.128 1.507 0.308 1.659s1.006-0.343 1.272-1.108" fill="#006577"/></g></g></g></g></g><g fill="#e88444" stroke="#ac5015" stroke-width="6" style="font-feature-settings:normal;font-variant-caps:normal;font-variant-ligatures:normal;font-variant-numeric:normal" aria-label="YDRA"><path d="m318.33 269.88-22.533-42.749c-8.6341-16.005-14.32-22.954-24.007-28.64l-33.483 7.5811v7.7917c10.74 0 14.952 3.1588 27.376 21.059l21.269 34.326c3.3694 5.4753 5.8964 10.319 9.2658 17.9v29.272c-0.21059 12.846-0.42117 16.215-1.8953 17.689-1.2635 1.2635-3.1588 1.8953-8.2129 2.3164l-7.7917 0.63176v8.4235c17.689-0.42117 25.27-0.63176 32.641-0.63176 7.5811 0 14.952 0.21059 32.852 0.63176v-8.4235l-7.7917-0.63176c-4.8435-0.42117-6.7388-0.84234-8.0023-2.1059-1.6847-1.6847-1.8953-4.6329-2.1059-17.9v-34.326c3.7906-8.8446 7.16-15.162 11.161-21.059l37.063-54.963v-4.0011h-16.215z" style="font-feature-settings:normal;font-variant-caps:normal;font-variant-ligatures:normal;font-variant-numeric:normal"/><path d="m391.93 340.64v4.8435c18.321-0.42117 26.745-0.63176 32.852-0.63176 5.6858 0 13.267 0.21059 20.216 0.42117 4.8435 0.21059 9.687 0.21059 12.425 0.21059 25.06 0 48.224-8.8446 64.018-24.428 14.32-14.109 21.69-32.641 21.69-55.384 0-20.006-5.6858-36.431-16.215-46.75-12.214-12.003-29.903-17.479-57.28-17.479l-28.64 0.42117c-20.638 0.21059-20.638 0.21059-22.112 0.21059-2.7376 0-2.7376 0-33.904-0.63176v7.7917l7.7917 0.63176c9.687 0.84235 9.8976 1.6847 10.108 20.638v94.343c-0.21059 7.5811-1.0529 10.108-4.2117 12.003zm40.643-127.83c4.8435-0.63176 8.0023-0.84235 13.056-0.84235 14.741 0 31.377 2.7376 40.222 6.7388 4.2117 2.1059 8.2129 4.8435 11.793 8.4235 9.4764 9.2658 13.899 23.586 13.899 44.434 0 21.48-5.0541 37.274-15.373 47.382-10.529 10.319-25.481 14.952-49.277 14.952-5.6858 0-9.0552-0.21058-14.32-1.0529z" style="font-feature-settings:normal;font-variant-caps:normal;font-variant-ligatures:normal;font-variant-numeric:normal"/><path d="m563.24 337.06v8.4235c17.689-0.42117 25.27-0.63176 32.641-0.63176 7.5811 0 14.952 0.21059 32.852 0.63176v-8.4235l-7.7917-0.63176c-4.8435-0.42117-6.7388-0.84234-8.0023-2.1059-1.6847-1.6847-1.8953-4.6329-2.1059-17.9v-102.56c2.9482-1.2635 6.7388-1.8953 12.214-1.8953 18.953 0 29.693 9.687 29.693 26.955 0 17.689-12.214 29.693-29.903 29.693h-3.7906l-1.4741 3.7906 47.171 73.074 18.953-0.63176c10.74 0.21059 12.635 0.21059 20.427 0.63176v-8.4235c-7.5811-1.4741-9.687-2.7376-14.741-9.4764l-38.116-57.701c11.793-4.8435 16.847-8.0023 22.533-14.32 5.8964-6.7388 8.8446-14.32 8.8446-23.165 0-20.638-13.478-30.956-40.011-30.956-2.3164 0-7.3705 0-14.53 0.21058-5.6858 0.21059-22.743 0.42118-27.587 0.42118-5.8964 0-5.8964 0-37.274-0.63176v7.7917l7.7917 0.63176c9.687 0.84235 9.8976 1.6847 10.108 20.638v85.919c-0.21058 12.635-0.42117 16.215-1.8953 17.689-1.2635 1.2635-3.1588 1.8953-8.2129 2.3164z" style="font-feature-settings:normal;font-variant-caps:normal;font-variant-ligatures:normal;font-variant-numeric:normal"/><path d="m813.31 301.47 9.4764 24.007c0.84235 2.1059 1.2635 4.2117 1.2635 5.8964 0 3.1588-1.8953 5.4753-4.2117 5.6858l-11.161 0.63176v7.7917c18.11-0.42117 27.797-0.63176 32.009-0.63176 4.0012 0 14.32 0.21059 33.273 0.63176v-7.7917l-5.0541-0.63176c-5.8964-0.84234-8.8446-3.1588-11.582-9.2658l-54.542-127.4h-14.952c-2.9482 7.7917-5.0541 13.478-5.8964 15.794-2.9482 8.2129-5.0541 13.688-6.107 16.005l-38.116 92.237c-3.58 8.2129-7.16 12.214-11.793 12.635l-6.3176 0.63176v7.7917c15.583-0.42117 23.375-0.63176 23.796-0.63176 2.1059 0 6.107 0 11.793 0.21059 1.6847 0.21058 5.6858 0.21058 12.003 0.42117v-7.7917l-10.529-0.63176c-3.58-0.21058-6.107-3.1588-6.107-6.7388 0-1.4741 0.42118-3.3694 1.0529-5.2647l8.8446-23.586zm-26.744-65.282 21.901 53.489h-42.96z" style="font-feature-settings:normal;font-variant-caps:normal;font-variant-ligatures:normal;font-variant-numeric:normal"/></g>
<path d="m800.07 277.08c-1.4254 2.4261-2.5582 5.0256-3.2461 7.748l-4.793-0.9805c-0.6111-0.1126-1.1573 0.434-0.9804 1.045l0.3242 1.7812 2.7636 15.199c0.2251 1.1739 1.8002 1.4784 2.4434 0.4492l8.957-14.23c0.3859-0.6754 0-1.4955-0.7558-1.6563l-0.9629-0.1972-1.9317-0.3965c0.3218-0.5789 0.6593-1.175 0.9649-1.7539 0.017-0.029 0.034-0.059 0.051-0.088z" fill="#006577"/><g transform="translate(-2982.8 -1967.3)"><path d="m3863.3 2297.1c0.9371 1.0012 1.8709 1.9249 2.7851 2.7266-5.7567 0.9809-8.0059 0.8203-8.0059 0.8203-0.1624 0.014-0.324 0.046-0.4687 0.062-0.08 0.014-0.1759 0.015-0.2559 0.049-0.402 0.064-0.8377 0.1452-1.2558 0.2402-2.9909 0.6931-3.9235 1.607-6.1426 1.2227-2.6532-0.4664-6.7515-2.2998-9.7441 0.1621-2.3477 1.9618-3.7469 2.6677-4.8243 3.9043-0.7397 0.886-0.4817 2.2382 0.5957 2.6563 0.595 0.2412 1.4472 0.3525 2.6211 0.1113 3.5859-0.6432 6.463-0.8364 6.9454-0.4199h0.017c-0.8201 0.9182-1.5114 1.835-2.0742 2.75-0.4181 0.6769-0.082 1.5296 0.6738 1.7226 1.2543 0.3523 3.2497 0.7241 4.9864 0.2578 2.0744-0.5307 4.6627-2.4469 6.3672-2.9277 0.6593-0.1769 1.2694 0.4024 1.1894 1.0762-0.08 0.6931 0.032 1.8167 0.8359 3.4746l0.5801 1.2207c0.3859 0.8538 1.495 1.0319 2.1543 0.3887 0.6915-0.7252 1.6878-1.5123 2.9903-2.043 0.3216-0.1286 0.5795-0.2901 0.8046-0.5137 0 0 17.014-8.444 26.727-3.25 4.4703 2.4121 2.4764-8.1687-5.998-11.74-0.6895-0.3083-1.0253-1.1881-0.7618-1.9512z" fill="#6ca6c0"/><path d="m3862.8 2297.1c0.7474 0.8372 1.4933 1.66 2.2207 2.4219l-7.1231 1.1406c-0.08 0.016-0.1617 0.033-0.2422 0.049-0.08 0.016-0.1754 0.017-0.2558 0.049-0.402 0.064-0.8378 0.1437-1.2559 0.2402-0.1447 0.016-0.2732 0.048-0.4179 0.08-1.9296 0.4181-3.9401 0.8207-5.6446 0.5312-0.6754-0.1125-1.3025-0.2576-1.9297-0.4023-2.0261-0.4824-4.131-0.9816-6.6074-0.098-1.6884 0.595-6.8349 3.217-7.5586 5.9024-0.3376 1.2382 0.047 2.0419 0.4336 2.4922 0.7879 0.9166 2.2046 1.1894 3.877 1.1894 1.2864 0 2.7333-0.1615 4.1484-0.3223 0.2251-0.032 0.4487-0.062 0.6738-0.078-0.08 0.1287-0.1759 0.2722-0.2402 0.3848l-0.3691 0.5957c-0.3698 0.6111-0.4351 1.3348-0.1778 1.9941 0.2572 0.6432 0.8047 1.1415 1.4961 1.3184 1.4473 0.402 3.5851 0.7724 5.5469 0.2578 1.2381-0.3216 2.5251-1.0141 3.7793-1.6895 0.9005-0.4985 1.7523-0.9648 2.4277-1.1738-0.096 1.1095 0.2261 2.4288 0.9336 3.9082l0.5782 1.2383c0.3377 0.7075 1.0137 1.2053 1.7695 1.334 0.1447 0.016 0.2736 0.031 0.4023 0.031 0.6432 0 1.2544-0.2568 1.7207-0.707 0.7718-0.804 1.6558-1.3988 2.6367-1.8008 0.9005-0.3699 1.4781-0.9815 1.9122-1.7051 0.064-0.016 0.129-0.03 0.1933-0.062 0.1608-0.064 15.374-6.802 24.443-1.9296 1.4472 0.7719 2.4118 0.4968 2.9746 0.1269 0.4824-0.3216 1.2531-1.1412 1.0762-3.0547-0.2573-2.8784-2.9417-8.4101-9.0039-10.967-0.016-0.016-0.065-0.063-0.098-0.1601-0.048-0.1287-0.048-0.2741 0.016-0.3867 0.1158-0.2284 0.2323-0.4863 0.3477-0.7481h-2.5977c-0.2286 0.6266-0.2322 1.3129 0 1.9551 0.2413 0.6914 0.7553 1.2539 1.3985 1.5273 3.988 1.6884 6.5773 5.1942 7.3652 7.9278 0.3538 1.2704 0.1935 1.8647 0.2578 1.8808-0.048 0-0.2576-0.016-0.6113-0.209-8.4583-4.5347-20.904-0.3692-25.117 1.2871 0-0.9166-0.1298-1.7855-0.3067-2.4609-0.1608-0.5628-0.7555-0.901-1.3183-0.7402-0.5789 0.1447-0.9167 0.7399-0.7559 1.3027 0.016 0.048 0.9496 3.6496-0.9961 4.4375-1.2382 0.5146-2.3647 1.2706-3.3457 2.2676-0.08 0.08-0.1763 0.08-0.2246 0.08-0.064-0.016-0.1447-0.047-0.209-0.1602l-0.5781-1.2226c-0.7397-1.5437-0.7729-2.4766-0.7246-2.8946 0.08-0.6915-0.1921-1.3662-0.7227-1.8164-0.4985-0.4342-1.1751-0.5792-1.8183-0.4023-0.9166 0.2573-1.9457 0.8195-3.0391 1.3984-1.1417 0.6271-2.3316 1.2544-3.3125 1.5117-1.5759 0.4181-3.4572 0.033-4.4863-0.3691l0.3711-0.6113c0.9005-1.5115 1.913-3.2001 3.5371-4.0684 0.997-0.5307 2.8469-0.1605 4.3262 0.1289l0.2402 0.047c0.5788 0.1286 1.1414-0.2727 1.2539-0.8516 0.1126-0.5789-0.2726-1.1413-0.8515-1.2539l-0.2247-0.049c-1.817-0.3538-4.0858-0.7878-5.7421 0.08-1.0613 0.5628-1.8809 1.3513-2.5723 2.1875-0.7075 0.032-1.56 0.1282-2.4766 0.2246-1.9296 0.2252-5.515 0.6269-6.1582-0.1289-0.097-0.1126-0.032-0.3846 0-0.5293 0.3699-1.3508 4.0844-3.6833 6.2071-4.4551 1.8974-0.6593 3.4421-0.2902 5.4199 0.1601 0.6593 0.1608 1.3335 0.3069 2.041 0.4356 2.1066 0.3698 4.4225-0.1127 6.4648-0.5469 0.7075-0.1447 1.3993-0.2902 2.0586-0.3867 0 0 8.6187-1.3828 8.6348-1.3828 0.8844 0.8844 1.7531 1.6893 2.541 2.3808 0.2251 0.1929 0.4981 0.2891 0.7715 0.2891 0.3376 0 0.6752-0.145 0.9004-0.4023 0.4341-0.4985 0.3852-1.2533-0.1133-1.6875-1.4843-1.2962-3.189-2.9793-4.9629-4.8809z" fill="#006577"/></g></svg>
