<svg xmlns="http://www.w3.org/2000/svg" viewBox="0 0 379.17 252.76"><defs><style>.cls-1{opacity:0.1;}.cls-2{fill:#276475;}.cls-3{fill:#7aa5bd;}.cls-4{fill:#cbcbcb;}.cls-5{opacity:0.39;}.cls-6{fill:#fff;}</style></defs><title>Hydra-Full-Color</title><g id="Stand_Circle" data-name="Stand Circle"><g class="cls-1"><ellipse class="cls-2" cx="185.88" cy="226.39" rx="95.22" ry="13.47"/></g></g><g id="Color_Background" data-name="Color Background"><path class="cls-3" d="M248,152h0C248.08,152,248.15,151.92,248,152Z"/><path class="cls-3" d="M360.26,146c0,.06,0,.13-.07.13-5.54,0-12.36,1.63-19.19,5a48.88,48.88,0,0,0-14.59,10.8.08.08,0,0,1-.1,0,42.26,42.26,0,0,0-8.05-3.27l-.42-.13a52,52,0,0,0-5.75-1.31,46.83,46.83,0,0,0-15.5-.18,23.49,23.49,0,0,0-8.54,3c-.22.13-.44.28-.64.42l-.15-.09a43.27,43.27,0,0,0-4.72-2.41,25.35,25.35,0,0,0-6.35-2h-.06l-.43-.05a30.24,30.24,0,0,0-6.38,0l-.75.08a47.66,47.66,0,0,0-11.47,3c-5.37,2.08-12.87,5.27-15.8,10.52-1.84,3.31-3.37,6.18-5.1,9.54-1.44,2.78-2,5.22-4.22,7.5-.4.43-.82.83-1.24,1.24a31.15,31.15,0,0,1,5.74,3.82,8.16,8.16,0,0,1,2.56,5c.05.26.09.53.12.8a16.4,16.4,0,0,1,0,3.57l-.09.65a.13.13,0,0,1,0,.06c0,.22-.07.44-.11.66a17.51,17.51,0,0,1-.41,1.73.94.94,0,0,1,0,.16,38,38,0,0,1-10,15.58c3.35-1.62,5,.51,5,.51,2.9.4,3.42,1.28,5.06,1s4.19-1.43,6.06.1a32.22,32.22,0,0,1,3,2.43,1.11,1.11,0,0,1,.24.47,1.13,1.13,0,0,1,0,.58,1,1,0,0,1-.57.6,2.91,2.91,0,0,1-1.64.08c-2.23-.41-4-.52-4.31-.27h0a13.77,13.77,0,0,1,1.29,1.72.69.69,0,0,1,.11.41.19.19,0,0,1,0,.08.69.69,0,0,1-.52.57,6.24,6.24,0,0,1-3.11.16c-1.29-.33-2.9-1.52-4-1.82a.56.56,0,0,0-.55.15.63.63,0,0,0-.19.52,4,4,0,0,1-.51,2.16l-.29.6-.08.17a.82.82,0,0,1-1.33.23,5.72,5.72,0,0,0-1.87-1.27,1.69,1.69,0,0,1-.5-.31l-.18-.09h0c-1.45-.69-10.87-4.92-16.42-1.94-.84.45-1.32.17-1.42-.52a3,3,0,0,1,0-.32,2.65,2.65,0,0,1,0-.27,3.61,3.61,0,0,1,.13-.74.74.74,0,0,0,0-.14c0-.11.07-.22.11-.34a9.11,9.11,0,0,1,4.86-5,.9.9,0,0,0,.51-.68.57.57,0,0,0,0-.18.13.13,0,0,0,0-.06,0,0,0,0,0,0-.05.85.85,0,0,0-.09-.38,23.22,23.22,0,0,1-1.56-4.93c-.07-.31-.14-.63-.2-1s-.15-.77-.22-1.16-.13-.78-.2-1.18-.13-.81-.18-1.21-.1-.68-.14-1a1.1,1.1,0,0,1,0-.18c0-.3-.08-.61-.11-.91-.12-1.15-.21-2.27-.27-3.33q0-.42,0-.81c0-.94,0-1.8,0-2.55,0-.18,0-.35,0-.52s0-.19,0-.27l0-.29c0-.05,0-.1,0-.15a.29.29,0,0,0,0-.09c-1.85.74-3.73,1.38-5.56,2.17l-.11,0h-.12a.62.62,0,0,1-.37-.11,66.58,66.58,0,0,1-15.44,2.95c-1.51.12-3,.17-4.54.17-.56,0-1.13,0-1.68,0-1.9,0-3.79-.17-5.63-.39a56.2,56.2,0,0,1-10.6-2.34.51.51,0,0,1-.27.09.18.18,0,0,1-.1,0,.67.67,0,0,1-.24,0c-1.47-.5-2.9-1.05-4.3-1.67l-.69-.3c.43,4.74-1,15.19-2.87,18.77a1,1,0,0,0,.42,1.35c5.27,2.22,6.51,8.8,3.73,7.3-6-3.23-16.62,2-16.62,2a1.43,1.43,0,0,1-.5.32,5.42,5.42,0,0,0-1.86,1.27.83.83,0,0,1-1.34-.24l-.36-.76a4,4,0,0,1-.52-2.16.6.6,0,0,0-.74-.67c-1.06.3-2.67,1.49-4,1.82a6.19,6.19,0,0,1-3.1-.16.71.71,0,0,1-.42-1.07A12,12,0,0,1,138,225.1h0c-.3-.26-2.09-.14-4.32.26a2.81,2.81,0,0,1-1.63-.07,1,1,0,0,1-.37-1.65,32.68,32.68,0,0,1,3-2.43c1.86-1.53,4.41-.39,6.06-.1,1.38.24,2-.33,3.82-.76l.78-.15a.9.9,0,0,1,.16,0l.29,0a24.42,24.42,0,0,0,5-.51,37.86,37.86,0,0,1-10-15.59c-1.21-4.17-1.27-9.79,2-12.6a30.16,30.16,0,0,1,5.64-3.77A65.4,65.4,0,0,1,140,177.5c-3.81-2.72-11.89-8.53-12.31-8.8l0,0a58.45,58.45,0,0,0-12.88-4.62,34.14,34.14,0,0,0-12-1,25.27,25.27,0,0,0-6.42,2,44,44,0,0,0-4.71,2.41l-.15.09c-.2-.14-.42-.29-.64-.42a23.49,23.49,0,0,0-8.54-3,46.83,46.83,0,0,0-15.5.18,52,52,0,0,0-5.75,1.31l-.42.13A42.63,42.63,0,0,0,52.64,169a.07.07,0,0,1-.09,0A49.14,49.14,0,0,0,38,158.17c-6.83-3.41-13.65-5.08-19.2-5a.08.08,0,0,1-.06-.13c1.43-2.21,2.86-4.41,4.31-6.61l5.53-8.5q5-7.72,10.07-15.47l0,0,.37-.57.06-.09h.22l.33,0,1.91.15a.09.09,0,0,1,.08.08l0,1.59c-.16-.08-.32-.16-.47-.25,3.14,2.77,7.28,4.45,11.19,5.68,2,.64,4.13,1.19,6.28,1.65a87.77,87.77,0,0,0,30.26,1c8.18-1.14,22.36-5.93,22.52-5.93,1.13,6.62,4.21,11.89,7,17.61a.49.49,0,0,0,.06.13l.63,1.34a.37.37,0,0,0,0,.11c.41.87.8,1.75,1.17,2.65,2.38,5.74,8.84,13.07,13.54,17.59-.41-1-.64-3.89-1-4.93a103.85,103.85,0,0,1-4.71-16.68,154.15,154.15,0,0,1-2-18.63h0c.21-2.75.63-6.45,1.06-8.67.49-2.5,1.08-5,1.65-7.45.86-3.61,1.71-7.33,2.28-11.14l-.18.18a.08.08,0,0,0-.11,0,11,11,0,0,1-3,2.19l-.47.19-.61.2h0a4.37,4.37,0,0,1-.49.12,6.31,6.31,0,0,1-1.3.14,6.58,6.58,0,0,1-1.32-.14c-2.79-.59-5-3-6-6.69l-.68.18-.68.16a18.66,18.66,0,0,1-14-2.46,15.11,15.11,0,0,1-5.87-6.53C93,77.94,95.71,70.39,104,63.92a15.21,15.21,0,0,0,5.66-9.54,13.34,13.34,0,0,1,4.81-7.77l0-.08,0,0a.08.08,0,0,0,0-.09,11.06,11.06,0,0,1,4.3-13.18l.23-.14a1.61,1.61,0,0,1,1.88.12,1.68,1.68,0,0,1,.52,1.9,10,10,0,0,0,0,6.94.07.07,0,0,0,.1,0l.29-.13a35.75,35.75,0,0,1,5.32-2l1.06-.28q1.14-.29,2.34-.48a18.58,18.58,0,0,1,11.91,1.71,16.65,16.65,0,0,1,1.56,1,.08.08,0,0,0,.11,0h0A12.05,12.05,0,0,0,146.92,35a1.85,1.85,0,0,1,1.5-1.69l.05,0h0a2.06,2.06,0,0,1,2,1c.18.28.36.57.53.87A13.63,13.63,0,0,1,149.94,50a.11.11,0,0,0,0,.08c1.49,4.32,1.66,9.19,1.67,14.24l.26,9.3-.13.07c.26,7.41.66,14,1.26,19.94a.07.07,0,0,0,.07.07,2.57,2.57,0,0,1,.4,0l.2,0,.11,0a2.8,2.8,0,0,1,.31.09h0a3.41,3.41,0,0,1,.91.52,2.58,2.58,0,0,1,1,1.72,2.53,2.53,0,0,1-.55,1.82l0,.05A3.26,3.26,0,0,1,154,99a2.6,2.6,0,0,1-.36.13.08.08,0,0,0-.06.08c.06.5.12,1,.2,1.47a.08.08,0,0,0,.08.07c2-.24,3.76.56,4,1.94a2.07,2.07,0,0,1,0,.35c0,1.13-1,2.22-2.59,2.77l-.14,0-.31.09-.24.06a.08.08,0,0,0-.06.09c.06.44.13.87.2,1.3a.08.08,0,0,0,.1.06l.22,0a7.23,7.23,0,0,1,5,.65,2.15,2.15,0,0,1,1,1.46c.25,1.59-1.55,3.35-4.26,4.31l-.53.17-.21.06a.08.08,0,0,0-.06.09c.1.45.19.88.29,1.32,2.18-.49,4.21-.31,5.34.46a2.08,2.08,0,0,1,.94,1.44,1.93,1.93,0,0,1,0,.24c0,1.6-1.94,3.34-4.75,4.26.1.43.22.86.34,1.28,1.94-.41,3.67.21,4.08,1.51a2,2,0,0,1,.08.54,2.45,2.45,0,0,1-.28,1.08,4.63,4.63,0,0,1-2.36,1.93.09.09,0,0,0-.05.1,39.47,39.47,0,0,0,3.24,8.07c2.54,4.58,5.69,7.83,9.35,9.66a8.56,8.56,0,0,0,5.09.95,5.12,5.12,0,0,0,2-.78l.06,0a5.29,5.29,0,0,0,2.38-3.12c.91-3.1.1-6.4-.69-9.58-.22-.89-.43-1.77-.62-2.65-1.85-8.89-3.6-18.09-5.32-27.84a6.87,6.87,0,0,1-1,.09c-1.64,0-3-.72-3.21-1.89s.7-2.45,2.28-3.13l.29-.11.43-.14.27-.07-.21-1.27-.28,0a0,0,0,0,1,0,0c-.33,0-.65,0-1,0a11.72,11.72,0,0,1-1.93-.15l-.61-.14-.44-.13L168.07,92l.17-.19.24-.23,0,0a9.09,9.09,0,0,1,4.06-1.74s.07,0,.06-.08l.29-.06c-.07-.44-.14-.89-.22-1.33l-.27,0a.06.06,0,0,1,0,0,12,12,0,0,1-1.32.08,10.13,10.13,0,0,1-1.25-.07l-.32-.05c-.16,0-.33-.06-.48-.09l-.42-.11-.23-.07-.52-.2a2.76,2.76,0,0,1-1.83-2,3,3,0,0,1,1.59-2.72,1.14,1.14,0,0,1,.23-.15,10,10,0,0,1,3.47-1.24.1.1,0,0,0,.07-.08l.28,0c-.06-.46-.12-.92-.19-1.39l-.53,0a6.62,6.62,0,0,1-3-.68,2.94,2.94,0,0,1-1.79-2.34c-.11-1.59,1.4-3,3.6-3.53l.43-.09.48-.08-.18-1.59h-.09c-2,0-3.59-1-3.87-2.57s1-3.28,3-3.92l.35.08s-.08-.06-.22-.11l.08,0q-.49-4.92-.9-9.93c0-.14-.11-1-.25-2.26l-.06-6.3A56.16,56.16,0,0,1,169,33.79s-.76-.22-.78-.24a14.77,14.77,0,0,1-4.63-7.82,12.88,12.88,0,0,1,.74-6.29c.14-.38.3-.74.47-1.1a1.87,1.87,0,0,1,.47-.6h0a1.75,1.75,0,0,1,1.11-.23A1.83,1.83,0,0,1,168,18.92a11.46,11.46,0,0,0,3.49,6,.08.08,0,0,0,.11,0l.18-.16.05.05a14.1,14.1,0,0,1,1.39-1.17l.57-.4.41-.26c6.29-3.77,14.11-2.25,18.6-.85a.07.07,0,0,0,.1-.06,7.45,7.45,0,0,0,.16-1.14l0-.32a9.56,9.56,0,0,0-1.11-5,1.57,1.57,0,0,1-.19-.91,1.55,1.55,0,0,1,.42-1,1.58,1.58,0,0,1,1.8-.38l.19.09a10.49,10.49,0,0,1,5.87,11.87.08.08,0,0,0,0,.09,12.73,12.73,0,0,1,5.74,6.82,14.38,14.38,0,0,0,6.6,8.22c8.7,5,12.29,11.79,10.12,19.07a14.35,14.35,0,0,1-4.69,7,20.71,20.71,0,0,1-1.73,1.27l-.07,0a17.52,17.52,0,0,1-9.5,2.76,18.64,18.64,0,0,1-2.66-.2l0,.21-.14,0a.06.06,0,0,0-.08.06,9.15,9.15,0,0,1-3.48,6.33.54.54,0,0,1-.16.1,5.83,5.83,0,0,1-.91.43,6.25,6.25,0,0,1-2.09.36h-.41a8.22,8.22,0,0,1-3.16-.88c0,.11.07.22.1.34h0a.08.08,0,0,0-.11.09c1.89,6.46,4.09,13.84,6.59,21a.77.77,0,0,1,0,.54.06.06,0,0,0,0,.06l1.21,2.94c.86,2.1,1.75,4.22,2.64,6.35,1.7,4.41,3.32,8.57,4.94,12.63.84,2.11,1.69,4.21,2.55,6.32,1.19,3.39,2.24,6.8,3.1,10.21l0,.12c0,.17.1.35.14.53l.29-.44,0,.12a119.92,119.92,0,0,0,10-18.47,5,5,0,0,1-1.57-1.19,2.35,2.35,0,0,1-.6-2.26,2.19,2.19,0,0,1,1.49-1.37,1,1,0,0,1,.25-.07,4.84,4.84,0,0,1,2.14,0,.07.07,0,0,0,.08,0l.13,0,.54-1.57c-3.31-1.14-5.37-3.22-4.86-5a2,2,0,0,1,.33-.65l.1-.12.17-.16a5.17,5.17,0,0,1,3.3-.92,29,29,0,0,1,3.08.58c.37-.26-.18-.56.2-.81.08-.32.31-1,.39-1.38a1.55,1.55,0,0,0-.4-.23,9.79,9.79,0,0,1-3.26-1.91c-1.12-.89-1.08-1.32-.87-2.27.37-1.72,2.68-2.23,5.86-1.74.08-.42.2-1.31.29-1.74a5.59,5.59,0,0,1-3.21-2.29c-.43-.66-.68-1-.54-1.7s.35-.86,1-1.29a5.64,5.64,0,0,1,3.69-.85A1.66,1.66,0,0,0,233,90c.1-.65.15-1.53.24-2.18a1,1,0,0,0-.35,0s0,0,0,0c-2-.48-3.34-1.91-3.21-3.5s2-3,4.18-3c.61-4.44,1.17-9,1.64-13.63,0,0,0,0,0-.06.2-2.94,1.18-16.61,2.81-21.51a13,13,0,0,1-.82-14.62,11.61,11.61,0,0,1,.67-1,1.79,1.79,0,0,1,.65-.55l.1,0a1.67,1.67,0,0,1,.94-.08,1.83,1.83,0,0,1,1.48,1.73,11.48,11.48,0,0,0,2.36,6.54.09.09,0,0,0,.11,0l.07,0a11.54,11.54,0,0,1,1.46-.81,14.74,14.74,0,0,1,1.91-.78l.9-.27a12.13,12.13,0,0,1,1.67-.36c.22,0,.45-.07.67-.09,5.69-.64,11.27,1.61,14.67,3.4a.08.08,0,0,0,.11,0,9.46,9.46,0,0,0,.24-6.53,1.64,1.64,0,0,1,.59-1.82,1.55,1.55,0,0,1,1.83,0l.18.12a10.62,10.62,0,0,1,3.64,12.73.08.08,0,0,0,0,.09,12.67,12.67,0,0,1,4.42,7.73,14.45,14.45,0,0,0,5,9.27c7.66,6.49,10,13.79,6.55,20.57a14.5,14.5,0,0,1-5.86,6,20.49,20.49,0,0,1-3.59,1.55c-.41.13-.82.24-1.23.34-.24,0-.48.11-.72.15a15,15,0,0,1-2.11.27c-.44,0-.87.06-1.31.06a18.59,18.59,0,0,1-5.66-.9h0a.09.09,0,0,0-.1,0c-1.1,3.19-3.07,5.29-5.5,5.92a2.21,2.21,0,0,1-.35.08h0l-.13,0a5.86,5.86,0,0,1-1,.09,5.69,5.69,0,0,1-1.49-.19,9.86,9.86,0,0,1-3.92-2.31c-.19-.16-.38-.32-.58-.47.08,4.27,1.3,16.55-.43,31.24L248,152l0,0h0c-.13.39,5.39-5.51,9.57-10.8,5-6.36,9.41-23.68,9.47-23.68a71.59,71.59,0,0,0,23,7,87.77,87.77,0,0,0,30.26-1c2.15-.46,4.25-1,6.28-1.65,3.9-1.23,13.44-6.53,13.51-6.53.12.19,7.5,10,10.86,15.12,1.84,2.83,3.58,5.6,5.42,8.43A37.12,37.12,0,0,1,360.26,146Z"/></g><g id="Stomach_-_Shading" data-name="Stomach - Shading"><path class="cls-4" d="M224.27,167a6.18,6.18,0,0,0-.09,5.34c1.51,2.76,5.65,3,8.31,1.36s4.15-4.67,5.42-7.54a138.78,138.78,0,0,0,9.71-32,141.69,141.69,0,0,0,1.88-33.6c-.27-4.26-.83-8.48-1.34-12.7a79.75,79.75,0,0,0-1.65-8.53c-.17-.72-.34-1.44-.5-2.16-.12-.52-.15-1.59-.5-2-.94-1.06-1,.73-1,1.27,0,1.56-.08,3.12-.13,4.68a294.43,294.43,0,0,1-3,37.28c-.07.49-.15,1-.24,1.48a135.81,135.81,0,0,1-9.51,33c-1.08,2.44-2.29,4.82-3.56,7.18A67.61,67.61,0,0,0,224.27,167Z"/><path class="cls-4" d="M167.05,167.92a12.77,12.77,0,0,1-7.5,11.89,2.25,2.25,0,0,1-.64.2,3.13,3.13,0,0,1-.36.19c-3.14,1.37-6.84.06-9.51-2.43s-4.48-6-6-9.53a115.23,115.23,0,0,1-9.6-41.73,118.6,118.6,0,0,1,.84-20.11c.28-2.2.64-4.4,1-6.59a93.83,93.83,0,0,1,2.33-9.42c.46-1.55,1.07-3.07,1.5-4.62a30.48,30.48,0,0,0,.87-4.65c.13-1.09.22-2.19.32-3.28,0,.17.56.85.65,1.06a4.72,4.72,0,0,1,.33,1.44c0,.59.08,1.18.11,1.77.08,1.24.1,2.49.1,3.73,0,3.23,0,6.46-.09,9.69a185.55,185.55,0,0,0,.48,20.83c1,10.52,6.08,27,11.67,35.49,1.83,2.76,3.42,6.34,5.86,8.52C162,162.7,167,164.07,167.05,167.92Z"/><path class="cls-4" d="M216.66,163.2c-.55,2.83-2.17,5.11-5.86,5.11a8.42,8.42,0,0,1-6.75-4c-2.9-4.38-2.16-10.07-2.42-15.06,0-13-2.38-25.77-5.73-38.24-1.74-6.46-3.76-12.84-5.82-19.2q-1.37-4.25-2.76-8.48a48.69,48.69,0,0,1-2.18-6.92c-.35-2.08-.58-6.54,1.84-6.56,1.33,0,3.25,2.44,4.81,5.82a111.09,111.09,0,0,1,5,14.53c1.21,4,2.43,7.93,4,11.77C205.5,113.49,211,125.45,214,137.5c1.5,6,.84,12,2.24,17.94A19.82,19.82,0,0,1,216.66,163.2Z"/><path class="cls-4" d="M208.88,196.55c0,1.11,0,2.21-.13,3.29a65.35,65.35,0,0,1-27.6,2.85,55.25,55.25,0,0,1-11-2.48c-.11-1.2-.16-2.42-.16-3.66,0-15.91,8.72-28.79,19.46-28.79S208.88,180.64,208.88,196.55Z"/><g class="cls-5"><ellipse class="cls-2" cx="235.31" cy="197.61" rx="1.89" ry="1.08" transform="translate(25.96 422.54) rotate(-87.08)"/></g><g class="cls-5"><ellipse class="cls-2" cx="232.75" cy="193.28" rx="0.84" ry="1.46" transform="translate(-50.24 86.3) rotate(-19)"/></g><g class="cls-5"><ellipse class="cls-2" cx="233.57" cy="203.21" rx="1.46" ry="0.84" transform="translate(-35.22 356.82) rotate(-70.77)"/></g></g><g id="Highlights_-_White" data-name="Highlights - White"><path class="cls-6" d="M265.85,40.14a5.73,5.73,0,0,0,1,1,12.63,12.63,0,0,0,3.73,1.66,3.13,3.13,0,0,0,.85.17,1,1,0,0,0,.78-.33,1.54,1.54,0,0,0,.13-1.16c-.3-2-.49-4.43-1.39-6.24a8.85,8.85,0,0,0-3-3.84,3.9,3.9,0,0,0-1.57-.53c-.26.07-.66.37-.7.64a8.29,8.29,0,0,0,.39,1.5,12,12,0,0,1,.23,3.78c-.05.33-.35.84-.37,1.17C265.87,38.87,265.28,39.41,265.85,40.14Z"/><path class="cls-6" d="M236.44,39.24c0,1.48,1,2.49,1.28,4,.23,1.09.51,2.16.83,3.22a3.33,3.33,0,0,0,2.19.95,5,5,0,0,0,3.44-1.2,4.28,4.28,0,0,0,1.53-4.54,3,3,0,0,0-.59-1.05.93.93,0,0,0-.14-.14c-.27-.21-.57-.4-.85-.6a3.28,3.28,0,0,1-1.07-1.06,45.76,45.76,0,0,1-2.18-6.32,11.38,11.38,0,0,0-.43-2c-.17-.31-1.52.48-1.82.52s-.22.88-.37,1.17A17.16,17.16,0,0,0,236.44,39.24Z"/><path class="cls-6" d="M193.22,23c.3.38,1.21.19,1.59.47a9.42,9.42,0,0,0,2,.88c.67.27.64.63,1.33.84.29.09.56.32.87.32s.66.23.85,0a1.5,1.5,0,0,0,.15-1.18c-.31-2-.32-4.11-1.26-5.94a12.2,12.2,0,0,0-4.14-4.16c-.24-.16-.5-.76-.8-.69s-.7.38-.73.65a7,7,0,0,0,.39,1.53,25.34,25.34,0,0,1,.61,5C194,21.72,192.63,22.29,193.22,23Z"/><path class="cls-6" d="M120.79,40.57c-.09-1.62-.81-3.22-.57-4.83a7,7,0,0,0,.39-1.53c0-.27-.45-.58-.73-.65s-.56.53-.8.69a11,11,0,0,0-3.63,4.2,15.15,15.15,0,0,0-.73,1.71.69.69,0,0,1,.34.57,12.41,12.41,0,0,1-.2,2.79l0,0v1c0,.16,0,.32,0,.47l.09.08c.22.16.45.31.66.48l0,.05a12.29,12.29,0,0,0,3.8-1.65,5.41,5.41,0,0,0,1-1C121.06,42.29,120.85,41.51,120.79,40.57Z"/><path class="cls-6" d="M164.63,27.42c.36,1.35,1.48,2.07,2.11,3.36.46.95,1,1.87,1.51,2.77a3.47,3.47,0,0,0,2.34.38,5.13,5.13,0,0,0,3.08-1.9,3.93,3.93,0,0,0,.5-4.54,2.71,2.71,0,0,0-.8-.82,1,1,0,0,0-.17-.1c-.3-.13-.64-.25-1-.36a3.35,3.35,0,0,1-1.27-.73,42.74,42.74,0,0,1-3.49-5.32,10.59,10.59,0,0,0-.85-1.72c-.23-.24-1.38.79-1.65.91s0,.85-.11,1.16A15.59,15.59,0,0,0,164.63,27.42Z"/><path class="cls-6" d="M151,42.43a24.48,24.48,0,0,1-.65,4.62c-.26,1.12-.57,2.24-.92,3.34a3.79,3.79,0,0,1-2.42,1,5.63,5.63,0,0,1-3.77-1.26,4.33,4.33,0,0,1-1.67-4.73,3.21,3.21,0,0,1,.66-1.08.57.57,0,0,1,.16-.15c.29-.22.62-.42.93-.63a3.59,3.59,0,0,0,1.18-1.09c1-1.93,2.63-3.51,3.31-5.57a11.91,11.91,0,0,1,.48-2,1.28,1.28,0,0,1,1.1-.45c.35.06.25.91.4,1.22A14.45,14.45,0,0,1,151,42.43Z"/></g><g id="Outline"><path class="cls-6" d="M149.62,49.9v0a2.35,2.35,0,0,1-.73,1.31.88.88,0,0,1-.9,0,1.93,1.93,0,0,1-.53-.42A3.28,3.28,0,0,0,149.62,49.9Z"/><path class="cls-6" d="M133.13,57.38a12.56,12.56,0,0,1-.17,2c-.48,2.94-2,5.16-4,5.46a1.89,1.89,0,0,1-.47.06c-2.54,0-4.61-3.35-4.61-7.47s2-7.49,4.58-7.5S133.11,53.24,133.13,57.38Z"/><path class="cls-2" d="M128.57,65.37h0c-2.8,0-5.1-3.58-5.1-8s2.22-8,5.08-8h0c2.85,0,5.1,3.5,5.12,8h0a12.12,12.12,0,0,1-.18,2c-.51,3.19-2.27,5.55-4.36,5.88A2.12,2.12,0,0,1,128.57,65.37Zm0-1a2.09,2.09,0,0,0,.35,0c1.71-.27,3.13-2.3,3.58-5.06a12.67,12.67,0,0,0,.16-1.89c0-3.85-1.86-7-4.12-7h0c-2.26,0-4.09,3.15-4.08,7s1.89,7,4.11,7Z"/><path class="cls-6" d="M121.67,56.21a7.25,7.25,0,0,1,0,1c-.25,2.62-1.48,4.72-3,5.32a2.35,2.35,0,0,1-.9.16c-2.22,0-4-2.91-4-6.52s1.78-6.52,4-6.53S121.67,52.61,121.67,56.21Z"/><path class="cls-2" d="M117.68,63.24h0c-2.53,0-4.51-3.08-4.52-7a9.47,9.47,0,0,1,1.24-4.87,3.93,3.93,0,0,1,3.26-2.16h0c2.53,0,4.52,3.08,4.52,7h0a6.47,6.47,0,0,1-.06,1.11c-.26,2.79-1.58,5-3.36,5.72A2.86,2.86,0,0,1,117.68,63.24Zm0-1a3.51,3.51,0,0,0,.72-.13c1.4-.54,2.49-2.51,2.72-4.9a6.25,6.25,0,0,0,0-1h0c0-3.26-1.61-6-3.52-6h0a3,3,0,0,0-2.41,1.68,8.53,8.53,0,0,0-1.09,4.35c0,3.27,1.62,6,3.53,6Z"/><path class="cls-2" d="M121.62,57.26c-.25,2.62-1.48,4.72-3,5.32a4.55,4.55,0,0,1-1.14-3.2c0-2.06,1-3.73,2.28-3.74A2.28,2.28,0,0,1,121.62,57.26Z"/><path class="cls-2" d="M133,59.35c-.48,2.94-2,5.16-4,5.46a5.69,5.69,0,0,1-.93-3.25c0-2.37,1.17-4.28,2.62-4.29C131.66,57.27,132.51,58.1,133,59.35Z"/><ellipse class="cls-2" cx="101.62" cy="78.03" rx="2.26" ry="1.46" transform="translate(4.43 161.52) rotate(-78.18)"/><path class="cls-2" d="M101.35,80.76a1.53,1.53,0,0,1-.3,0,1.78,1.78,0,0,1-1.24-1.17,3.56,3.56,0,0,1-.11-1.93c.32-1.51,1.41-2.53,2.48-2.3h0c1.08.23,1.68,1.59,1.36,3.1a3.48,3.48,0,0,1-.88,1.73A1.87,1.87,0,0,1,101.35,80.76Zm.54-4.46c-.44,0-1,.59-1.21,1.53a2.41,2.41,0,0,0,.07,1.37c.07.18.23.49.51.55a.83.83,0,0,0,.69-.3,2.43,2.43,0,0,0,.61-1.22c.21-1-.14-1.83-.58-1.92Z"/><ellipse class="cls-2" cx="106.75" cy="81.31" rx="3.23" ry="2.08" transform="translate(1.74 164.85) rotate(-75.8)"/><path class="cls-2" d="M106.3,85a1.82,1.82,0,0,1-.46-.06c-1.4-.35-2.1-2.22-1.59-4.25a4.83,4.83,0,0,1,1.3-2.3,2.1,2.1,0,0,1,3.66.93,4.71,4.71,0,0,1,0,2.64C108.8,83.74,107.56,85,106.3,85Zm.9-6.34a1.51,1.51,0,0,0-1,.46,3.8,3.8,0,0,0-1,1.82c-.36,1.43,0,2.82.86,3s1.84-.82,2.2-2.26a3.75,3.75,0,0,0,0-2.08,1.37,1.37,0,0,0-.84-1h0A.78.78,0,0,0,107.2,78.64Z"/><circle class="cls-2" cx="131.14" cy="70.3" r="0.69"/><circle class="cls-2" cx="135.51" cy="71.38" r="1.08"/><circle class="cls-2" cx="131.88" cy="74.42" r="1.08"/><path class="cls-6" d="M253.7,53.29a11.56,11.56,0,0,0,.09,1.88c.34,2.82,1.75,5,3.55,5.35a2.24,2.24,0,0,0,.44.07c2.42.1,4.52-3,4.68-6.93s-1.66-7.21-4.08-7.31S253.88,49.35,253.7,53.29Z"/><path class="cls-2" d="M257.9,61.09h-.14a2.72,2.72,0,0,1-.56-.09c-1.95-.39-3.53-2.71-3.91-5.77a12.52,12.52,0,0,1-.09-2h0c.19-4.21,2.4-7.43,5.07-7.43h.13c2.74.12,4.74,3.56,4.56,7.83S260.58,61.09,257.9,61.09Zm-3.7-7.78a11.76,11.76,0,0,0,.08,1.8c.33,2.63,1.59,4.61,3.16,4.92a1.34,1.34,0,0,0,.36.06h.09c2.07,0,3.93-2.92,4.07-6.45s-1.46-6.7-3.6-6.8S254.36,49.66,254.2,53.31Z"/><path class="cls-6" d="M264.65,52.61a6.63,6.63,0,0,0,0,1c.13,2.5,1.22,4.55,2.69,5.17a2.25,2.25,0,0,0,.85.2c2.11.09,3.93-2.62,4.07-6s-1.44-6.28-3.55-6.37S264.79,49.18,264.65,52.61Z"/><path class="cls-2" d="M268.31,59.48h-.12a2.67,2.67,0,0,1-1-.24c-1.67-.71-2.85-2.91-3-5.61a7,7,0,0,1,0-1c.15-3.7,2.11-6.53,4.48-6.53h.12c2.42.1,4.19,3.12,4,6.89S270.68,59.48,268.31,59.48Zm.32-12.42c-1.77,0-3.36,2.52-3.48,5.57h0a7.18,7.18,0,0,0,0,.93c.13,2.3,1.09,4.21,2.39,4.76a1.87,1.87,0,0,0,.67.16c1.79.09,3.44-2.48,3.56-5.57s-1.28-5.78-3.07-5.85Zm-4,5.55h0Z"/><path class="cls-2" d="M264.67,53.61c.13,2.5,1.22,4.55,2.69,5.17a4.29,4.29,0,0,0,1.2-3c.08-2-.84-3.58-2-3.64A2.16,2.16,0,0,0,264.67,53.61Z"/><path class="cls-2" d="M267.45,59.37l-.29-.13c-1.67-.71-2.85-2.91-3-5.61v-.12l0-.11a2.55,2.55,0,0,1,2.34-1.76c1.5.07,2.6,1.9,2.51,4.17a4.84,4.84,0,0,1-1.37,3.35Zm-2.28-5.66c.14,2,1,3.77,2.09,4.46a4.27,4.27,0,0,0,.8-2.41c.07-1.79-.76-3.08-1.55-3.12C266,52.62,265.52,53,265.17,53.71Z"/><path class="cls-2" d="M253.79,55.17c.34,2.82,1.75,5,3.55,5.35a5.44,5.44,0,0,0,1-3.06c.09-2.25-1-4.12-2.33-4.18C255.1,53.24,254.27,54,253.79,55.17Z"/><path class="cls-2" d="M257.55,61.07l-.31-.06c-2-.4-3.57-2.72-4-5.78V55.1l.05-.12a3,3,0,0,1,2.71-2.2c1.68.08,2.92,2.14,2.81,4.7a5.94,5.94,0,0,1-1.12,3.35Zm-3.25-5.83c.32,2.4,1.44,4.22,2.83,4.71a5.1,5.1,0,0,0,.72-2.51c.08-1.94-.77-3.61-1.85-3.66h0C255.33,53.78,254.71,54.33,254.3,55.24Z"/><ellipse class="cls-2" cx="280.92" cy="76.12" rx="1.39" ry="2.15" transform="translate(-8.73 47.61) rotate(-9.54)"/><path class="cls-2" d="M281.12,78.75c-1,0-1.84-1-2.07-2.32a3.08,3.08,0,0,1,.42-2.26,1.56,1.56,0,0,1,1-.67h0a1.73,1.73,0,0,1,1.53.62,3.36,3.36,0,0,1,.78,1.68c.24,1.47-.39,2.75-1.43,2.93Zm-.41-4.26h-.07a.58.58,0,0,0-.36.26,2.12,2.12,0,0,0-.24,1.52c.16.93.73,1.56,1.15,1.47s.77-.81.61-1.77a2.34,2.34,0,0,0-.53-1.18A.79.79,0,0,0,280.71,74.49Zm-.15-.49h0Z"/><ellipse class="cls-2" cx="275.91" cy="79.04" rx="1.98" ry="3.07" transform="translate(-10.38 58.71) rotate(-11.92)"/><path class="cls-2" d="M276.27,82.58a2.35,2.35,0,0,1-1.64-.77,4.59,4.59,0,0,1-1.15-2.26,4.52,4.52,0,0,1,.14-2.52,2.22,2.22,0,0,1,1.55-1.49h0c1.37-.28,2.75,1,3.17,3a4.56,4.56,0,0,1-.14,2.53,2.2,2.2,0,0,1-1.55,1.48A2.45,2.45,0,0,1,276.27,82.58Zm-.89-6.06a1.27,1.27,0,0,0-.82.86,3.69,3.69,0,0,0-.1,2,3.59,3.59,0,0,0,.89,1.76,1,1,0,0,0,1.91-.41,3.56,3.56,0,0,0,.1-2c-.29-1.37-1.19-2.38-2-2.22Z"/><circle class="cls-2" cx="255.11" cy="65.66" r="0.66"/><circle class="cls-2" cx="250.91" cy="66.52" r="1.03"/><circle class="cls-2" cx="254.25" cy="69.55" r="1.03"/><path class="cls-6" d="M184,38.15a10.41,10.41,0,0,0,.42,1.83c.84,2.71,2.61,4.6,4.45,4.63a1.7,1.7,0,0,0,.45,0c2.4-.33,3.9-3.77,3.36-7.66s-2.92-6.79-5.32-6.46S183.5,34.25,184,38.15Z"/><path class="cls-2" d="M189.1,45.12h-.24c-2,0-4-2-4.88-5a12.13,12.13,0,0,1-.44-1.91h0C183,34,184.62,30.36,187.33,30s5.29,2.65,5.88,6.88a10.21,10.21,0,0,1-.61,5.44,4.28,4.28,0,0,1-3.17,2.79Zm-4.57-7a11.22,11.22,0,0,0,.4,1.75c.79,2.54,2.39,4.26,4,4.28h.36a3.3,3.3,0,0,0,2.4-2.21,9.19,9.19,0,0,0,.54-4.89c-.5-3.61-2.64-6.31-4.76-6S184,34.46,184.53,38.08Z"/><path class="cls-6" d="M194.68,35.52a7.39,7.39,0,0,0,.2,1c.58,2.44,2,4.26,3.57,4.61a2.32,2.32,0,0,0,.87,0c2.09-.29,3.41-3.28,2.93-6.68s-2.55-5.92-4.64-5.63S194.21,32.12,194.68,35.52Z"/><path class="cls-2" d="M199,41.68a3,3,0,0,1-.66-.08c-1.77-.41-3.32-2.36-4-5a8.2,8.2,0,0,1-.2-1c-.52-3.73.95-6.91,3.35-7.25A3.78,3.78,0,0,1,200.92,30a9.05,9.05,0,0,1,1.83,4.45c.52,3.73-1,6.91-3.36,7.25A2.56,2.56,0,0,1,199,41.68Zm-1.06-12.36h-.26c-1.78.25-2.93,3.06-2.5,6.12h0a6.66,6.66,0,0,0,.18.91c.53,2.23,1.82,3.94,3.2,4.25a1.81,1.81,0,0,0,.69,0c1.79-.25,2.93-3.06,2.51-6.12a8,8,0,0,0-1.61-3.95A3,3,0,0,0,197.94,29.32Z"/><path class="cls-2" d="M214.12,59.42a1.79,1.79,0,0,0,1.3.63l.23,0A1.72,1.72,0,0,0,216.9,59a3.44,3.44,0,0,0,.18-1.85c-.25-1.46-1.28-2.48-2.31-2.3h0c-1,.18-1.67,1.47-1.42,2.93A3.34,3.34,0,0,0,214.12,59.42Z"/><path class="cls-2" d="M187.73,50.72a.65.65,0,0,0,.56-.74.66.66,0,0,0-.75-.56.65.65,0,0,0-.56.74A.66.66,0,0,0,187.73,50.72Z"/><path class="cls-2" d="M183.8,52.68a1,1,0,1,0-1.16-.87A1,1,0,0,0,183.8,52.68Z"/><path class="cls-2" d="M187.62,55.07a1,1,0,1,0-.28-2,1,1,0,0,0-.87,1.15A1,1,0,0,0,187.62,55.07Z"/><path class="cls-2" d="M210.57,63.88a2.33,2.33,0,0,0,.37,0,2.2,2.2,0,0,0,1.55-1.48,4.57,4.57,0,0,0,.14-2.53c-.41-2-1.8-3.27-3.16-3s-2.11,2-1.69,4C208.16,62.63,209.33,63.88,210.57,63.88Z"/><path class="cls-2" d="M362,145.29c-.48-.67-2.41-3.73-4.45-7-2.55-4-5.43-8.62-6.34-9.9l-.83-1.17-1.3-1.83-1.6-2.26-1.74-2.45L344,118.28c-.52-.72-1-1.44-1.54-2.17-.83-1.17-1.68-2.33-2.41-3.58l-1.1-1.9a4.54,4.54,0,0,0-.41-.63.52.52,0,0,0-.65-.12c-.27.14-.29.47-.32.74a11.82,11.82,0,0,0,0,1.46c0,.73,0,1.45,0,2.17l0,1.7v.13a32.53,32.53,0,0,1-10.52,4.78c-1.44.41-2.91.77-4.39,1.1l-.64-1.27c-.49-1-1-2-1.47-3a1.28,1.28,0,0,0-.36-.49.59.59,0,0,0-.58-.1c-.35.16-.33.56-.35.88-.08,1.24-.17,2.49-.26,3.73,0,.2,0,.39-.05.59a2.22,2.22,0,0,1,0,.37c-2.53.44-5.09.77-7.65,1s-5.2.35-7.81.36-5.21-.08-7.81-.28l-2.31-.18a.35.35,0,0,1-.22-.1.42.42,0,0,1-.09-.24c0-.23-.08-.47-.13-.7s-.17-.76-.25-1.14-.17-.78-.26-1.18a4.94,4.94,0,0,0-.27-1.15.6.6,0,0,0-1.13,0,7.39,7.39,0,0,0-.31.94c-.11.35-.23.7-.35,1.06-.23.69-.46,1.39-.7,2.08-.6,0-1.2-.18-1.79-.28s-1.29-.21-1.93-.33c-1.27-.23-2.55-.5-3.81-.79q-3.54-.83-7-2c-1.5-.5-3-1-4.45-1.67-.3-.13-.68-.2-.75-.5a6.57,6.57,0,0,1,.12-1.23,26.22,26.22,0,0,0-.31-3.75.58.58,0,0,0-.47-.52c-.82-.15-1,1-1.3,1.59a20.81,20.81,0,0,0-1.5,3.78,77.91,77.91,0,0,1-3.24,11,63.41,63.41,0,0,1-6.28,11.78q-1.77,2.63-3.75,5.08c-.68.85-1.37,1.67-2.08,2.49l-1.07,1.2-.55.6c-.13.14-.52.42-.56.59.62-2.52,1.29-5.07,1.93-7.54,2.34-9,4.55-17.5,5.13-25.73a109.38,109.38,0,0,0-.9-23.31c-.05-.46-.11-.89-.16-1.31,0,0,0-.09,0-.13a8.71,8.71,0,0,0,4.07,2.41,6.26,6.26,0,0,0,1.49.18,7.12,7.12,0,0,0,1-.08h0a2.21,2.21,0,0,0,.35-.08c2.49-.57,4.49-2.73,5.61-6l0-.07a18.22,18.22,0,0,0,6.94.91,15,15,0,0,0,2.11-.27c.24,0,.48-.1.72-.15.41-.1.82-.21,1.23-.34a19.28,19.28,0,0,0,3.72-1.59,14.38,14.38,0,0,0,5.86-6c3.44-6.77,1.11-14.08-6.55-20.57a14.41,14.41,0,0,1-5-9.27,12.6,12.6,0,0,0-4.29-7.59,10.83,10.83,0,0,0-3.63-13.14l-.21-.15a1.79,1.79,0,0,0-2.12.05,1.86,1.86,0,0,0-.67,2.09A9.21,9.21,0,0,1,265.2,39c-3.44-1.79-9-4-14.66-3.29-.22,0-.45.05-.67.09a12.13,12.13,0,0,0-1.67.36l-.9.27a16,16,0,0,0-1.78.74,15,15,0,0,0-1.56.89l0,0a11.4,11.4,0,0,1-2.41-6.56,1.82,1.82,0,0,0-1.3-1.68,1.78,1.78,0,0,0-1.25.07l-.1,0a1.79,1.79,0,0,0-.65.55,11.61,11.61,0,0,0-.67,1,13,13,0,0,0,.82,14.62c-1.63,4.9-2.61,18.57-2.81,21.51,0,0,0,0,0,.06-.47,4.63-1,9.19-1.64,13.63-2.22,0-4,1.29-4.18,3s1.22,3,3.21,3.5c0,0,0,0,0,0-.11.68-.22,1.38-.34,2.1-2.52-.27-4.65.68-5,2.37a3,3,0,0,0,1.08,2.75,6.72,6.72,0,0,0,2.75,1.47c-.07.41-.15.81-.23,1.21-3.21-.49-5.9.39-6.28,2.15a3,3,0,0,0,1.44,2.91,9.72,9.72,0,0,0,3.39,1.62c-.09.37-.17.74-.26,1.1l-.18.69c-2.72-.66-5.1-.38-6.22.67l-.17.16-.1.12a2,2,0,0,0-.33.65c-.51,1.78,1.55,3.86,4.86,5l-.54,1.57-.13,0a5,5,0,0,0-2.13,0l-.09,0a1,1,0,0,0-.25.07,2.19,2.19,0,0,0-1.49,1.37,2.35,2.35,0,0,0,.6,2.26,5,5,0,0,0,1.57,1.19,119.92,119.92,0,0,1-10,18.47l0-.12a91,91,0,0,0-3.47-10.23c0-.06,0-.13-.08-.19-.86-2.11-1.71-4.21-2.55-6.32-1.62-4.06-3.24-8.22-4.94-12.63l-1.54-4c-3.26-8.55-6.2-18.29-8.74-26.93,0-.12-.07-.23-.1-.34a8.22,8.22,0,0,0,3.16.88H197a6.25,6.25,0,0,0,2.09-.36A5.83,5.83,0,0,0,200,77a.54.54,0,0,0,.16-.1c1.91-1.16,3.22-3.4,3.7-6.37l0-.21a18.64,18.64,0,0,0,2.66.2,17.52,17.52,0,0,0,9.5-2.76l.07,0a20.53,20.53,0,0,0,2-1.44,14.33,14.33,0,0,0,4.68-6.95c2.17-7.29-1.42-14.06-10.12-19.07a14.42,14.42,0,0,1-6.6-8.22,12.66,12.66,0,0,0-5.58-6.71,10.85,10.85,0,0,0-5.92-12.28l-.24-.11a1.81,1.81,0,0,0-2.08.43,1.9,1.9,0,0,0-.5,1.32,2,2,0,0,0,.22.86,9.17,9.17,0,0,1,1.08,5.05l0,.32a8.33,8.33,0,0,1-.16,1c-4.57-1.42-12.43-2.87-18.7,1l-.41.26-.57.4a14.1,14.1,0,0,0-1.39,1.17l-.05-.05a11.46,11.46,0,0,1-3.52-6,1.81,1.81,0,0,0-1.58-1.41,1.74,1.74,0,0,0-1.37.39h0a1.87,1.87,0,0,0-.47.6c-.17.36-.33.72-.47,1.1a12.88,12.88,0,0,0-.74,6.29,13.06,13.06,0,0,0,4.16,8c-.63,4.33.35,14.81.83,19.45.14,1.29.23,2.12.25,2.26q.4,5,.9,9.93l-.08,0h0l-.12,0c-2,.64-3.34,2.28-3,3.92s1.89,2.57,3.87,2.57h.09l.18,1.59-.48.08-.43.09c-2.2.54-3.71,1.94-3.6,3.53a2.94,2.94,0,0,0,1.79,2.34,6.62,6.62,0,0,0,3,.68l.53,0c.07.47.13.93.19,1.39l-.28,0a9.65,9.65,0,0,0-3.54,1.32,1.14,1.14,0,0,0-.23.15,3,3,0,0,0-1.59,2.72,2.76,2.76,0,0,0,1.83,2l.52.2.23.07.42.11c.15,0,.32.07.48.09l.32.05a10.21,10.21,0,0,0,1.38.09c.39,0,.8,0,1.2-.06l.27,0c.08.44.15.89.22,1.33l-.29.06a8.81,8.81,0,0,0-4.12,1.82l0,0-.24.23-.17.19a2.34,2.34,0,0,0-.61,1.77c.12,1,1,1.82,2.37,2.29l.44.13.61.14a11.13,11.13,0,0,0,2.07.19,8,8,0,0,0,.83,0l.28,0,.21,1.27-.27.07-.43.14-.29.11c-1.58.68-2.53,1.92-2.28,3.13s1.57,1.89,3.21,1.89a6.87,6.87,0,0,0,1-.09c1.72,9.75,3.47,19,5.32,27.84.19.88.4,1.76.62,2.65.79,3.18,1.6,6.48.69,9.58a5.29,5.29,0,0,1-2.38,3.12l-.06,0a5.45,5.45,0,0,1-1.75.62,8.63,8.63,0,0,1-5.1-1c-3.65-1.82-6.79-5.07-9.34-9.65a41.34,41.34,0,0,1-3.24-8.08c1.8-.77,2.87-2.22,2.48-3.52a2.35,2.35,0,0,0-1.8-1.5,4.86,4.86,0,0,0-2.12,0c-.12-.43-.24-.87-.35-1.3,2.86-1,4.79-2.81,4.59-4.45a2.05,2.05,0,0,0-.94-1.44c-1.1-.75-3.06-.93-5.19-.49l-.3-1.4.53-.17c2.78-.93,4.65-2.72,4.4-4.34a2.18,2.18,0,0,0-1-1.47,7.42,7.42,0,0,0-5.16-.61c-.08-.47-.15-1-.22-1.47h0l.31-.08.14,0a4.82,4.82,0,0,0,1.8-1,2.15,2.15,0,0,0-.72-3.86,5.1,5.1,0,0,0-2.21-.27c-.06-.55-.12-1.13-.18-1.69a.09.09,0,0,1,0,0,3.38,3.38,0,0,0,1.43-1,2.4,2.4,0,0,0,.62-1.85,2.55,2.55,0,0,0-1.18-1.86,2.92,2.92,0,0,0-.76-.35h0a2.8,2.8,0,0,0-.31-.09l-.11,0-.14,0-.06,0c-.39-.28-.32-2.63-.32-2.94-.17-8.15-.84-16.3-1.19-24.44-.19-4.32-.12-8.69-1-12.95a25.39,25.39,0,0,0-.92-3.42,13.62,13.62,0,0,0,1.1-14.82c-.2-.37-.42-.73-.65-1.07a1.85,1.85,0,0,0-2-.76h0l-.05,0A1.86,1.86,0,0,0,147.06,35a12.12,12.12,0,0,1-2.85,6.87l-.06,0a13.85,13.85,0,0,0-1.55-1,18.51,18.51,0,0,0-12-1.67c-.8.12-1.58.29-2.34.48l-1.06.28a37.35,37.35,0,0,0-5.31,2v0a9.7,9.7,0,0,1,0-6.8,1.93,1.93,0,0,0-.59-2.18,1.88,1.88,0,0,0-2.19-.14l-.23.15a11.34,11.34,0,0,0-5,10.81,11.56,11.56,0,0,0,.42,2h0a7.16,7.16,0,0,0,.25.74l0,.08a13.34,13.34,0,0,0-4.81,7.77A15.21,15.21,0,0,1,104,63.92c-8.3,6.47-11,14-7.73,21.25a15.11,15.11,0,0,0,5.87,6.53,18.66,18.66,0,0,0,14,2.46l.68-.16.68-.18c1.08,3.66,3.24,6.1,6,6.69a6.58,6.58,0,0,0,1.32.14,6.31,6.31,0,0,0,1.3-.14,4.37,4.37,0,0,0,.49-.12h0l.61-.2.47-.19a10.42,10.42,0,0,0,3.16-2.19l.18-.18c-.57,3.81-1.42,7.53-2.28,11.14-.57,2.43-1.16,5-1.65,7.45-.43,2.22-.85,5.92-1.06,8.67h0c-.11,1.35-.17,2.46-.16,3.06.21,12.53,2,22.6,5.69,32.64.37,1,.76,2,1.16,3-3.33-3.52-9.7-10.7-13.11-17.57-.19-.37-.36-.73-.53-1.09a.37.37,0,0,1,0-.11c-.16-.32-.31-.64-.46-.95-.06-.13-.12-.26-.17-.39a.49.49,0,0,1-.06-.13,83.29,83.29,0,0,1-5.59-16.7,2.39,2.39,0,0,0-1-1.47L109,121.09l-.29-.33-.36.11a.6.6,0,0,0-.4.59l.24,4a72.72,72.72,0,0,1-18.45,5l-1.54-4.39-.18-.4-.38,0a.58.58,0,0,0-.54.46L86.07,131c-1.6.18-3.27.32-5,.42a91.59,91.59,0,0,1-20.64-1L60,124.7l-.08-.43-.36-.08a.6.6,0,0,0-.65.31l-2.55,5.08a41.46,41.46,0,0,1-12.7-4.92,21.63,21.63,0,0,1-1.92-1.39l-.1-5.8a.58.58,0,0,0-.39-.55l-.48-.1-2,3.36L17.4,153l0,.08a1.22,1.22,0,0,0-.07.17,1.13,1.13,0,0,0,0,.18s0,.06,0,.09,0,.05,0,.08a1.16,1.16,0,0,0,0,.18.77.77,0,0,0,.07.16l.09.14a1.85,1.85,0,0,0,.14.14l.06.06.08,0,.17.07.18,0,.09,0c5.65-.08,12.39,1.68,18.91,4.94A48.42,48.42,0,0,1,51.46,170a.91.91,0,0,0,1.3.07,1.06,1.06,0,0,0,.2-.26,47,47,0,0,1,13.59-4.43c9.67-1.64,19.14-.42,24.13,3.11l.39.29.42-.26c3.13-1.87,7.74-3.95,11-4.36a33.57,33.57,0,0,1,11.72,1A56.45,56.45,0,0,1,135,174.6a46.11,46.11,0,0,1,7.45,6.88c1.9,2.19,3.72,4.14,5.49,5.85a31.06,31.06,0,0,0-5.69,3.81,9.59,9.59,0,0,0-3,6.76c-3.77-4.28-6-9.81-9.84-14.19-6.72-7.76-18-10.33-26.33-3.46A18.32,18.32,0,0,0,97,189.93l-3-.61a.52.52,0,0,0-.61.65l1.92,10.56a.83.83,0,0,0,1.52.28l5.57-8.85a.69.69,0,0,0-.47-1l-1.8-.37c.2-.36.41-.73.6-1.09l.12-.21a14.2,14.2,0,0,1,3-4.06,11.44,11.44,0,0,1,5-2.48,12.42,12.42,0,0,1,10,2.24,26.26,26.26,0,0,1,7.06,8.66,47.42,47.42,0,0,0,16,17,18.55,18.55,0,0,0,1.85,1,64.4,64.4,0,0,0,6.33,7.78l-4.43.71-.15,0a.9.9,0,0,0-.16,0l-.78.15-.26.05a9.81,9.81,0,0,1-3.51.33c-.42-.07-.81-.16-1.2-.25a6.74,6.74,0,0,0-4.11-.06c-1.05.37-4.25,2-4.7,3.67a1.61,1.61,0,0,0,.27,1.55,3.1,3.1,0,0,0,2.41.74,23.87,23.87,0,0,0,2.58-.2l.42-.05-.15.24-.23.37A1.39,1.39,0,0,0,136,228a1.37,1.37,0,0,0,.93.82,6.89,6.89,0,0,0,3.45.16,11.25,11.25,0,0,0,2.35-1.05,9.21,9.21,0,0,1,1.51-.73,4.84,4.84,0,0,0,.58,2.43l.36.77a1.51,1.51,0,0,0,1.1.83l.25,0a1.54,1.54,0,0,0,1.07-.44,4.75,4.75,0,0,1,1.64-1.12,2.43,2.43,0,0,0,1.19-1.06l.12,0c.1,0,9.56-4.23,15.2-1.2a1.72,1.72,0,0,0,1.85.08,1.88,1.88,0,0,0,.67-1.9,9.19,9.19,0,0,0-5.6-6.82.24.24,0,0,1-.06-.1.29.29,0,0,1,0-.24,16.78,16.78,0,0,0,1-2.84l2.9.34,5.65.57,1.42.11.71.06.35,0h.42l2,0c.67,0,1.34-.1,2-.16a20.89,20.89,0,0,0,13.68-7.75,19,19,0,0,0,2.87-5.32,67.08,67.08,0,0,0,13.2-2.83l.11,0,.14,0c1.85-.6,3.66-1.28,5.4-2,0,.05,0,.1,0,.15l0,.29c0,.08,0,.18,0,.27s0,.34,0,.52c0,.75-.05,1.61,0,2.55q0,.39,0,.81c.06,1.06.15,2.18.27,3.33,0,.3.07.61.11.91a1.1,1.1,0,0,0,0,.18c0,.34.09.68.14,1s.11.81.18,1.21.13.79.2,1.18.15.78.22,1.16.13.65.2,1a23.67,23.67,0,0,0,1.65,5.31,0,0,0,0,1,0,.05.13.13,0,0,1,0,.06.29.29,0,0,1,0,.13.17.17,0,0,0,0,.05s0,0,0,0a9.61,9.61,0,0,0-5.32,5.61c0,.12-.08.23-.11.34a.74.74,0,0,1,0,.14,4.63,4.63,0,0,0-.13.74,2.65,2.65,0,0,0,0,.27,3,3,0,0,0,0,.32,1.63,1.63,0,0,0,.68,1.31,1.7,1.7,0,0,0,1.84-.08c5.64-3,15.11,1.16,15.2,1.2a.53.53,0,0,0,.12,0h0a2.34,2.34,0,0,0,1.18,1.07,4.86,4.86,0,0,1,1.64,1.11,1.51,1.51,0,0,0,1.07.45l.25,0a1.53,1.53,0,0,0,1.1-.84l.36-.76a4.85,4.85,0,0,0,.58-2.44,11.21,11.21,0,0,1,1.51.73,11.31,11.31,0,0,0,2.35,1.06,6.89,6.89,0,0,0,3.45-.16,1.38,1.38,0,0,0,.82-2.06c-.17-.27-.36-.55-.56-.83a24.85,24.85,0,0,1,2.9.38,4.71,4.71,0,0,0,.89.09,3.23,3.23,0,0,0,1.11-.19,1.63,1.63,0,0,0,1-1.15,1.74,1.74,0,0,0-.37-1.56,9,9,0,0,0-1.58-1.35c-.42-.3-.91-.66-1.5-1.15-1.75-1.45-3.95-.9-5.56-.49-.37.09-.72.18-1,.24a3.38,3.38,0,0,1-1.92-.28,15,15,0,0,0-2.69-.66,4.29,4.29,0,0,0-4-1c3.87-4.19,8.22-10.06,9.44-14.25s1.39-10.28-2.22-13.38a32.26,32.26,0,0,0-6.12-4,41.88,41.88,0,0,0,5.35-6.66,81,81,0,0,0,4.71-9l.29-.62c2.38-5,10.37-8.25,10.5-8.31,6.26-3.08,22.17-9.37,34.9-1.27l.36.22.38-.18c11.28-5.65,25.83-5.07,38.11,1.45a1.05,1.05,0,0,0,.2.27,1,1,0,0,0,.61.23.93.93,0,0,0,.69-.31A48.5,48.5,0,0,1,342,152.3c6.4-3.19,13-4.94,18.59-4.94H361a.92.92,0,0,0,.92-.91s0,0,0-.07A.89.89,0,0,0,362,145.29Zm-20.73,5.36a50.9,50.9,0,0,0-14,10.06l-2.64-16.77a.46.46,0,0,1,.07-.07,52.18,52.18,0,0,1,11.11-7.4,47.19,47.19,0,0,1,15.32-4.78l.07,0c1.3,2,3.13,4.92,4.82,7.59s3.16,5,4,6.28C354.23,145.63,347.63,147.45,341.22,150.65Zm8.49-21.2c.2.28.51.73.88,1.31a48.22,48.22,0,0,0-15.25,4.82,53.27,53.27,0,0,0-10.92,7.2l-3-18.78c2-.41,4-.88,6-1.43,3.81-1.1,9.16-2.94,12.8-6.5Zm-26.34,13.1a50.31,50.31,0,0,0-10.56-3c-8.82-1.5-17.35-.72-22.93,2.08l1.29-16.52a96.86,96.86,0,0,0,29.31-.91Zm-34.46-1.22c-.53-.19-1.13-.43-1.79-.7a36.76,36.76,0,0,0-11.65-3.07c-7.57-.49-11.19.73-16.2,2.41l-.16.06a61.77,61.77,0,0,0,8.73-21.14A79.36,79.36,0,0,0,290.18,125Zm.88,1.47.12-.06.12-.06c5.38-2.83,13.84-3.62,22.61-2.13a48.38,48.38,0,0,1,10.91,3.15l2.76,17.43c-12.19-6.26-26.44-6.89-37.82-1.68ZM261.13,93.26a4.72,4.72,0,0,1-1.91-.08c-2.56-.61-4.38-2.91-5.46-4.72a37.77,37.77,0,0,1-2.86-6.56c-.31-.87-.68-1.75-1-2.61a20.17,20.17,0,0,1-1.82-6,4.09,4.09,0,0,1,1.18.49,13.26,13.26,0,0,1,3.23,3.53,25.28,25.28,0,0,0,2,2.41l.06.07a12.26,12.26,0,0,0,.59,3.39c.84,2.56,2.34,4.53,4,5.28a3.27,3.27,0,0,0,1.36.31,2.59,2.59,0,0,0,1.1-.23,3.43,3.43,0,0,0,1.69-1.71A24,24,0,0,0,265.73,88l.24.09C265,91,263.24,92.89,261.13,93.26Zm5.76-61.13a.36.36,0,0,1,.14-.43.29.29,0,0,1,.38,0l.18.13a9.32,9.32,0,0,1,3.32,10.87,31.17,31.17,0,0,0-4.38-3A10.7,10.7,0,0,0,266.89,32.13ZM198.62,76a4.57,4.57,0,0,1-1.9.27c-2.62-.15-4.83-2.08-6.21-3.67a37.2,37.2,0,0,1-4-5.94c-.46-.8-1-1.6-1.48-2.38a20.28,20.28,0,0,1-2.89-5.62,4,4,0,0,1,1.25.28,13,13,0,0,1,3.82,2.89,25.82,25.82,0,0,0,2.28,1.93,11.69,11.69,0,0,0,1.24,3.49c1.28,2.37,3.11,4,4.88,4.49a3.76,3.76,0,0,0,.86.11,2.82,2.82,0,0,0,1.58-.47,3.55,3.55,0,0,0,1.38-2.15,23.75,23.75,0,0,0,2.77.8l.25,0C202,73.14,200.63,75.3,198.62,76Zm-5.27-61.17a.38.38,0,0,1,.05-.45.32.32,0,0,1,.38-.07l.2.09a9.33,9.33,0,0,1,5.21,10.1,31.24,31.24,0,0,0-4.84-2.12A10.74,10.74,0,0,0,193.35,14.86ZM119.64,34.24l.19-.12a.4.4,0,0,1,.21-.07.41.41,0,0,1,.24.1.44.44,0,0,1,.13.5,11.17,11.17,0,0,0,.08,8,32.87,32.87,0,0,0-4.79,3A9.85,9.85,0,0,1,119.64,34.24Zm9.43,63.22A7.32,7.32,0,0,1,125.88,99a4.86,4.86,0,0,1-2,0c-2.23-.47-4-2.54-4.91-5.67l.29-.1a25.27,25.27,0,0,0,2.69-1.18A3.68,3.68,0,0,0,123.63,94a2.9,2.9,0,0,0,1.26.28A3.53,3.53,0,0,0,126.2,94c1.77-.71,3.42-2.71,4.4-5.36a12.56,12.56,0,0,0,.77-3.55,28.36,28.36,0,0,0,2.29-2.55A13.47,13.47,0,0,1,137.18,79a4.31,4.31,0,0,1,1.31-.49,21.41,21.41,0,0,1-2.18,6.34c-.41.88-.84,1.79-1.19,2.69a40,40,0,0,1-3.29,6.77q-.26.39-.54.78A13.14,13.14,0,0,1,129.07,97.46ZM19.85,152.6l9-13.75a47.58,47.58,0,0,1,14.55,4.67A52.44,52.44,0,0,1,54.51,151l0,0-2.65,16.78a50.49,50.49,0,0,0-14-10.06A45.9,45.9,0,0,0,19.85,152.6Zm22.78-26.39a45.32,45.32,0,0,0,14.95,5.53l-2.85,18.09a53.13,53.13,0,0,0-10.92-7.2,49.08,49.08,0,0,0-14.4-4.71L39,123.25A19.42,19.42,0,0,0,42.63,126.21ZM88,132.59l1.26,16.09c-5.59-2.79-14.11-3.57-22.93-2.07a50.32,50.32,0,0,0-10.57,3l2.79-17.67a91.69,91.69,0,0,0,22.58,1.3C83.59,133.09,85.85,132.87,88,132.59ZM55.59,150.75a48.4,48.4,0,0,1,10.92-3.15c8.77-1.49,17.23-.7,22.61,2.13l.11.05.13.07,1.31,16.85c-5.51-3.36-14.7-4.44-24.37-2.81a48.6,48.6,0,0,0-13.46,4.29ZM89,132.45a74.36,74.36,0,0,0,21.22-5.86.56.56,0,0,1,.5,0,.56.56,0,0,1,.31.4,86.51,86.51,0,0,0,6,17.62c.33.69.66,1.38,1,2.09a32,32,0,0,0-14.94-2.14,34.37,34.37,0,0,0-11.14,3.11c-.63.27-1.17.49-1.67.68Zm88.28,71.47-.82.13c-.28,0-.56,0-.84,0H175l-.71,0-1.42,0-5.69,0c-.34,0-.93,0-1.66.1a32,32,0,0,0,0-4.77.28.28,0,0,1,0-.09q2.19,1,4.45,1.72l.2.06a54.73,54.73,0,0,0,9.31,2.23A8.46,8.46,0,0,1,177.28,203.92ZM276.13,156l-.43-.05a34.74,34.74,0,0,0-6.38,0l-.75.08a49.78,49.78,0,0,0-16.73,5.14c-.36.14-8.62,3.49-11.25,9l-.3.63a79.43,79.43,0,0,1-4.61,8.81,40.33,40.33,0,0,1-5.5,6.78,84.37,84.37,0,0,0-9.24-3.59.74.74,0,0,0-.48,1.4A88.59,88.59,0,0,1,229,187.5c.49.22,1,.45,1.45.7a29.79,29.79,0,0,1,6.26,4.07,7.35,7.35,0,0,1,2.3,4.36c.05.26.09.53.12.8a15.8,15.8,0,0,1,0,3.57l-.09.65a.13.13,0,0,1,0,.06c0,.22-.07.44-.11.66a17.51,17.51,0,0,1-.41,1.73c-1.52,5.23-8.26,13.29-12.35,16.86a1.09,1.09,0,0,0-.13.17c-.31.21-.54.36-.7.48a.65.65,0,0,0-.17.92.67.67,0,0,0,.55.29.68.68,0,0,0,.38-.12l.68-.46a.76.76,0,0,0,.37-.16l.33-.31,1.11-.72c3.4-2.23,5-.36,5.1-.24s0,0,0,0a.36.36,0,0,0,.16.14.54.54,0,0,0,.24.09,12.56,12.56,0,0,1,2.68.65,4.71,4.71,0,0,0,2.58.32c.35-.06.73-.16,1.14-.26,1.47-.37,3.15-.8,4.38.22.61.51,1.12.89,1.56,1.21a7.71,7.71,0,0,1,1.35,1.12h0a.41.41,0,0,1,.09.37.33.33,0,0,1-.13.19l-.06,0a2.43,2.43,0,0,1-1.28,0,14.43,14.43,0,0,0-4.22-.36c-.37-.4-.75-.79-1.17-1.18-.83-.74-2.19-.95-3.94-.61a.67.67,0,0,0,.25,1.31,3.38,3.38,0,0,1,2.79.29,11.92,11.92,0,0,1,2.5,3l0,.07h-.05a5.79,5.79,0,0,1-2.71.14,10.18,10.18,0,0,1-2.06-.94,10,10,0,0,0-1.89-.87,1.22,1.22,0,0,0-1.13.24,1.14,1.14,0,0,0-.35.49,1.19,1.19,0,0,0-.1.65A3.41,3.41,0,0,1,234,229l-.36.77a.13.13,0,0,1-.08.07l0,0a.16.16,0,0,1-.14,0,6.14,6.14,0,0,0-2.08-1.41c-1.2-.49-.63-2.74-.62-2.76a.67.67,0,0,0-.47-.82.67.67,0,0,0-.81.47,5.71,5.71,0,0,0-.2,1.52c-2.59-1-10.33-3.62-15.62-.79-.18.1-.3.13-.31.16a2.11,2.11,0,0,1,.1-1.2,8.21,8.21,0,0,1,4.57-4.93,1.65,1.65,0,0,0,.88-1,1.8,1.8,0,0,0-.08-1.42c-1.89-3.72-3.5-15.51-2.65-19.42l.12-.51a16.42,16.42,0,0,1,.6-1.94,28.54,28.54,0,0,1,1.72-3.75.74.74,0,0,0-1.31-.7,27.3,27.3,0,0,0-2.26,5.32,57.45,57.45,0,0,1-6,2.34l-.28.1c-.73.24-1.46.46-2.19.67a66.33,66.33,0,0,1-10.33,2.08,61.91,61.91,0,0,1-14.58.09l-.18,0a56.71,56.71,0,0,1-8.71-1.77c-.73-.21-1.46-.44-2.17-.68l-.3-.11a52.12,52.12,0,0,1-4.93-2,25.8,25.8,0,0,0-2.46-6.06.73.73,0,0,0-1-.3.74.74,0,0,0-.3,1,27.49,27.49,0,0,1,2,4.52,16.26,16.26,0,0,1,.46,1.68c0,.07,0,.14.05.22a26.17,26.17,0,0,1,.06,5.72,59.19,59.19,0,0,1-1.88,11.12,14.89,14.89,0,0,1-.88,2.36,1.76,1.76,0,0,0-.08,1.42,1.6,1.6,0,0,0,.87,1,8.23,8.23,0,0,1,4.58,4.93,4.78,4.78,0,0,1,.16,1.17.87.87,0,0,1-.38-.13c-5.26-2.82-13-.23-15.62.8a6.2,6.2,0,0,0-.19-1.53.67.67,0,0,0-.82-.46.65.65,0,0,0-.47.81s.59,2.27-.62,2.76a6.29,6.29,0,0,0-2.08,1.41.18.18,0,0,1-.14.05.19.19,0,0,1-.13-.1L146,229a3.43,3.43,0,0,1-.45-1.8,1.28,1.28,0,0,0-.45-1.13,1.22,1.22,0,0,0-1.13-.25,10.61,10.61,0,0,0-1.89.87,10.18,10.18,0,0,1-2.06.94,4.94,4.94,0,0,1-2.79-.23l.23-.38a6.34,6.34,0,0,1,2.2-2.53,4.88,4.88,0,0,1,2.69.08l.15,0a.66.66,0,0,0,.78-.53.67.67,0,0,0-.53-.78l-.14,0a5.72,5.72,0,0,0-3.57,0,5.33,5.33,0,0,0-1.6,1.36c-.44,0-1,.08-1.54.14-1.2.14-3.43.39-3.83-.08-.06-.07,0-.24,0-.33.23-.84,2.54-2.29,3.86-2.77a5.63,5.63,0,0,1,3.37.1c.41.1.83.19,1.27.27a10.91,10.91,0,0,0,4-.34c.44-.09.87-.18,1.28-.24l5.37-.86c.55.55,1.09,1.05,1.58,1.48a.74.74,0,0,0,.48.18.74.74,0,0,0,.49-1.3,58.11,58.11,0,0,1-7.44-8.22,30.22,30.22,0,0,1-4.91-8.64,18.57,18.57,0,0,1-.73-4.71c-.06-2.74.58-5.47,2.5-7.12a29.13,29.13,0,0,1,5.84-3.86c.47-.25.95-.49,1.44-.71a88.45,88.45,0,0,1,9-3.48.74.74,0,0,0,.46-.94.75.75,0,0,0-.94-.46,84.51,84.51,0,0,0-9.67,3.79c-1.86-1.78-3.75-3.8-5.76-6.11a48.17,48.17,0,0,0-7.69-7.1,58,58,0,0,0-21.33-9.72,35,35,0,0,0-12.25-1c-3.35.43-7.6,2.33-10.62,4l-1.34-17.25c.58-.21,1.22-.48,2-.8a33.31,33.31,0,0,1,10.81-3c7-.51,10.41.66,15.07,2.27l.49.17c5.08,9.39,14.57,18.63,15,19a.94.94,0,0,0,.65.26.91.91,0,0,0,.66-.29.89.89,0,0,0,.24-.55.76.76,0,0,0,.14-.83c-.82-1.81-1.6-3.69-2.3-5.59-3.67-9.88-5.4-19.79-5.6-32.14a86.53,86.53,0,0,1,1.19-11.43c.48-2.48,1.07-5,1.64-7.39.47-2,.95-4,1.37-6,.22-1,.44-2.1.63-3.16s.31-2,.42-3a5.51,5.51,0,0,1,.54-2c.4-.73.88-1.43,1.23-2.18s.74-1.52,1.08-2.3.65-1.55,1-2.33.74-1.71,1.16-2.61a22.23,22.23,0,0,0,2.32-6.9,1.48,1.48,0,0,1,.86.67,4.36,4.36,0,0,1,.41,2.1,56.36,56.36,0,0,1-.37,7.48c-.13,1.37-.26,2.78-.34,4.19-.23,4.31-.3,8.56-.22,12.61.07,3.71.27,7.2.58,10.52a34.58,34.58,0,0,1-3.8.66l-1.56.18a.5.5,0,0,0,.06,1h.06l1.56-.18a34.63,34.63,0,0,0,3.78-.66c.34,3.31.8,6.45,1.4,9.46a2.38,2.38,0,0,0,.05.26,31.58,31.58,0,0,1-5.6,1.15.5.5,0,0,0-.44.55.49.49,0,0,0,.49.45H137a31,31,0,0,0,5.7-1.17,67.55,67.55,0,0,0,2.62,9.24l.1.25a29.67,29.67,0,0,1-6.66,1.52.5.5,0,0,0,.05,1h.06a30.67,30.67,0,0,0,6.91-1.58,72.2,72.2,0,0,0,4.54,9.61,27.65,27.65,0,0,1-4.39,1.57,33.06,33.06,0,0,1-4.64.92.5.5,0,0,0,.06,1h.06a33.85,33.85,0,0,0,4.78-.94,29,29,0,0,0,4.63-1.67,68.61,68.61,0,0,0,6.33,9.08,26.45,26.45,0,0,1-4,2.23,27.58,27.58,0,0,1-8.94,2.51.5.5,0,1,0,.05,1,27.72,27.72,0,0,0,9.3-2.59,27.33,27.33,0,0,0,4.27-2.37,57.69,57.69,0,0,0,7.76,7.58,25.36,25.36,0,0,1-5.25,4.5,34.41,34.41,0,0,1-6.44,3.34.5.5,0,0,0-.3.64.52.52,0,0,0,.47.33.39.39,0,0,0,.18,0,35.17,35.17,0,0,0,6.63-3.43,26.09,26.09,0,0,0,5.49-4.72c.4.31.8.62,1.2.91.78.56,1.57,1.1,2.35,1.59a.75.75,0,0,0,.4.12.76.76,0,0,0,.64-.35.75.75,0,0,0-.24-1c-.75-.48-1.52-1-2.27-1.55-9.28-6.72-17.19-17.62-21.68-29.92a65.85,65.85,0,0,1-2.82-10.24,117.65,117.65,0,0,1-2-20.72c-.08-4,0-8.22.22-12.5.07-1.38.2-2.78.33-4.13a57.2,57.2,0,0,0,.38-7.67,5.71,5.71,0,0,0-.62-2.81,3,3,0,0,0-1.91-1.43,5.39,5.39,0,0,0-3.81.65,15.22,15.22,0,0,0-4,3.94,33.09,33.09,0,0,1-4.39,4.45,30.35,30.35,0,0,1-9.32,5.78l-.92.31a17.44,17.44,0,0,1-14.88-1.76,13.59,13.59,0,0,1-5.29-5.88c-4-8.82,2.84-16,7.29-19.44a16.68,16.68,0,0,0,6.22-10.48c.43-2.57,2-5,4.73-7.23,0,0,0,0,0,0a30.72,30.72,0,0,1,5.88-3.68l.09-.05h0a.42.42,0,0,0,.12-.06c4.4-2.14,12.83-5.18,19.86-1.37a11.53,11.53,0,0,1,1.26.78,13,13,0,0,1-1.47,1.17.75.75,0,0,0-.21,1,.76.76,0,0,0,1,.21,14,14,0,0,0,2.2-1.83.63.63,0,0,0,.23-.2.19.19,0,0,0,.05-.1,13.55,13.55,0,0,0,3.56-8.13.37.37,0,0,1,.3-.34.37.37,0,0,1,.41.15c.2.31.4.62.58,1a12.13,12.13,0,0,1-1.13,13.39l0,0a12,12,0,0,1-2.33,2.23.75.75,0,0,0,.88,1.21,14.52,14.52,0,0,0,1.67-1.44,7.67,7.67,0,0,0,.34,1.28c.11.45.21.91.3,1.37.17.94.3,1.89.4,2.84.17,1.71.24,3.44.27,5.16,0,2,.2,3.91.27,5.86.07,1.71.14,3.42.22,5.13q.24,5.39.57,10.76c.22,3.57.48,7.15.8,10.71.29,3.28.62,6.55,1.05,9.8.25,1.89.52,3.77.86,5.63,1,5.22,2,9.87,3.24,14.23l.27,1A54.37,54.37,0,0,0,161.88,137c2.7,4.85,6.05,8.3,10,10.26a10.77,10.77,0,0,0,4.7,1.2,7.32,7.32,0,0,0,1.31-.11,6.74,6.74,0,0,0,5.39-4.81c1-3.5.16-7-.67-10.37-.22-.87-.43-1.74-.61-2.59-2.56-12.33-4.95-25.22-7.3-39.41-1.89-11.4-3.35-23.46-4.32-35.87-.62-5.28-1.58-15.7-1.19-20.47a13,13,0,0,0,1.25.76.72.72,0,0,0,.35.08.73.73,0,0,0,.66-.4.75.75,0,0,0-.31-1A11.5,11.5,0,0,1,165.76,20c.13-.33.27-.65.42-1a.32.32,0,0,1,.33-.17.33.33,0,0,1,.3.25A12.94,12.94,0,0,0,173.88,28a.75.75,0,0,0,.65-1.35,11,11,0,0,1-1.49-.87c.34-.31.7-.61,1.07-.89,6-4.45,14.22-2.82,18.63-1.41l.28.09,0,0,.14,0a29.75,29.75,0,0,1,6.08,2.73c2.85,1.73,4.66,3.8,5.4,6.17A15.92,15.92,0,0,0,212,41.58c4.66,2.68,12.07,8.5,9.43,17.34a12.85,12.85,0,0,1-4.19,6.22,16.59,16.59,0,0,1-13.77,3.63c-.3,0-.61-.11-.91-.18a22,22,0,0,1-3.07-.9,31.19,31.19,0,0,1-6.47-3.3c-.69-.46-1.6-1.06-2.49-1.72a23.56,23.56,0,0,1-2.27-1.92A14.54,14.54,0,0,0,184,57.58a5.39,5.39,0,0,0-2.82-.34h0l-.05,0a3,3,0,0,0-2.44,1.83,5.5,5.5,0,0,0-.21,2.75c.88,8.64,3.27,17,5.49,24.14,5.34,17.09,10.35,33.86,12.91,51.1.35,2.4.62,4.59.82,6.71a57.25,57.25,0,0,1-1.21,18.32.75.75,0,0,0,.56.9h.17a.75.75,0,0,0,.73-.58,58.43,58.43,0,0,0,1.24-18.79c-.2-2.15-.47-4.37-.83-6.79-2.57-17.35-7.6-34.18-13-51.33-2.2-7-4.56-15.34-5.43-23.85a4.21,4.21,0,0,1,.11-2,1.36,1.36,0,0,1,.66-.7,21,21,0,0,0,3.1,6.17c.51.79,1,1.54,1.43,2.3a38.87,38.87,0,0,0,4.17,6.19,15.61,15.61,0,0,0,2.18,2.08v0c1.75,6,3.69,12.53,5.79,18.9l-.54.27a32.4,32.4,0,0,1-3.47,1.42A.49.49,0,0,0,193,97a.5.5,0,0,0,.48.34l.16,0a33.51,33.51,0,0,0,3.66-1.49l.35-.18c1,2.84,1.93,5.63,2.93,8.31l-1.15.59a35.13,35.13,0,0,1-3.57,1.45.5.5,0,0,0,.16,1,.45.45,0,0,0,.16,0,33.9,33.9,0,0,0,3.69-1.49c.33-.16.69-.35,1.06-.55q1.73,4.52,3.35,8.69c-.79.47-1.6.92-2.45,1.33s-1.91.86-2.86,1.21a.5.5,0,0,0-.3.64.51.51,0,0,0,.47.32.38.38,0,0,0,.18,0c1-.35,2-.77,2.94-1.23s1.62-.84,2.39-1.29c.92,2.35,1.82,4.66,2.73,6.92.31.8.64,1.59,1,2.38a35.46,35.46,0,0,1-3.58,2,32.65,32.65,0,0,1-3.53,1.44.5.5,0,0,0,.16,1,.45.45,0,0,0,.16,0,30.84,30.84,0,0,0,3.64-1.48,34.74,34.74,0,0,0,3.53-2c.43,1.06.85,2.13,1.29,3.2.86,2.11,1.6,4.16,2.25,6.15a27.67,27.67,0,0,1-3.36,1.89,30.27,30.27,0,0,1-5.29,2,.51.51,0,0,0-.36.62.5.5,0,0,0,.49.37l.12,0a32.86,32.86,0,0,0,5.47-2,32.12,32.12,0,0,0,3.24-1.81,76.12,76.12,0,0,1,2.53,10.78,29.49,29.49,0,0,1-6.69,2.91,31.94,31.94,0,0,1-3.42.82l-.58.09a.5.5,0,0,0,.07,1h.08l.6-.1a29.76,29.76,0,0,0,3.54-.85,30.9,30.9,0,0,0,6.56-2.79,64.24,64.24,0,0,1,.59,12.53,29.67,29.67,0,0,1-7.92,2.11c-.62.09-1.26.16-1.89.2a.5.5,0,0,0,0,1h0c.66-.05,1.32-.12,2-.21a31.64,31.64,0,0,0,7.71-2,56.27,56.27,0,0,1-1.15,8.06.75.75,0,0,0,.57.89l.16,0a.76.76,0,0,0,.74-.59,64.87,64.87,0,0,0-.7-29.26c8.14-12.32,12.9-23.25,15.52-33.83,1.71-6.92,2.88-14,3.7-19.29.94-6,1.74-12.32,2.4-18.75a.31.31,0,0,1,0-.08c.15-2.26,1.21-15.24,2.49-20.34a12.45,12.45,0,0,0,1.08,1,.8.8,0,0,0,.46.16.72.72,0,0,0,.59-.29.75.75,0,0,0-.12-1,11.51,11.51,0,0,1-2.72-15,10.38,10.38,0,0,1,.59-.88.29.29,0,0,1,.35-.11.32.32,0,0,1,.24.3,12.93,12.93,0,0,0,5.38,10,.74.74,0,0,0,1-.16.75.75,0,0,0-.16-1.05A10.22,10.22,0,0,1,245,39.2c.4-.24.8-.47,1.22-.67,6.79-3.34,14.65-.17,18.72,2l.1.05.07,0,.12.07a29,29,0,0,1,5.5,3.77c2.49,2.21,3.9,4.57,4.2,7a16,16,0,0,0,5.55,10.23c4.09,3.47,10.34,10.52,6.17,18.74a12.87,12.87,0,0,1-5.24,5.38,16.69,16.69,0,0,1-15.06.77,23.05,23.05,0,0,1-2.85-1.44,31.53,31.53,0,0,1-5.79-4.41c-.88-.84-1.54-1.49-2.13-2.13a23.87,23.87,0,0,1-1.9-2.31A14.54,14.54,0,0,0,250,72.48a5.52,5.52,0,0,0-2.72-.84h-.07A3,3,0,0,0,244.5,73a5.55,5.55,0,0,0-.71,2.66c-.28,3.69-.33,7.41-.37,11,0,3-.06,6-.24,9.09V96a186,186,0,0,1-10.39,50.71c-2,5.75-5.31,14.23-10.27,21.48a.74.74,0,0,0,.19,1,.73.73,0,0,0,1-.19c1.23-1.8,2.36-3.67,3.39-5.55a26.6,26.6,0,0,0,3,1.27,35.67,35.67,0,0,0,6.59,1.63h.06a.5.5,0,0,0,.07-1,34.2,34.2,0,0,1-6.39-1.59,25.9,25.9,0,0,1-2.87-1.2A98.8,98.8,0,0,0,232.44,152c.68.3,1.38.58,2.08.83a34.91,34.91,0,0,0,6.85,1.66h.06a.5.5,0,0,0,.06-1,33.57,33.57,0,0,1-6.64-1.62c-.7-.24-1.38-.52-2-.82.52-1.35,1-2.63,1.39-3.8q1-2.92,2-5.88c.77.2,1.56.38,2.35.52a32.7,32.7,0,0,0,5.52.56.51.51,0,0,0,.5-.5.49.49,0,0,0-.49-.5,32,32,0,0,1-5.36-.54c-.74-.14-1.49-.31-2.22-.5,1-3.21,1.92-6.45,2.75-9.69a30.85,30.85,0,0,0,7.28,1.05.5.5,0,0,0,0-1,29.58,29.58,0,0,1-7.06-1q1.19-4.69,2.11-9.41a32.17,32.17,0,0,0,5.79.68H248a.5.5,0,0,0,.5-.5.5.5,0,0,0-.5-.5h-.6a31.29,31.29,0,0,1-5.62-.66q1-5.16,1.68-10.28a34.56,34.56,0,0,0,4.54.56.5.5,0,0,0,0-1,31.69,31.69,0,0,1-4.44-.55c.51-4,.89-8,1.11-12v-.27c.18-3.07.21-6.16.24-9.16,0-3.57.09-7.27.37-10.91a4.18,4.18,0,0,1,.47-2,1.45,1.45,0,0,1,.77-.58,21.07,21.07,0,0,0,1.95,6.63c.37.87.71,1.7,1,2.53.5,1.4,1,2.8,1.62,4.16.29.64.63,1.22,1,1.82a7.61,7.61,0,0,1,.69,2,42.91,42.91,0,0,1,.68,5.3c.38,3.74.79,7.48.89,11.24,0,.16,0,.32,0,.47q.09,4.72-.24,9.44c-.57,8.07-2.76,16.49-5.08,25.4-.72,2.76-1.46,5.61-2.14,8.43a1.52,1.52,0,0,0,.75,1.72,1.55,1.55,0,0,0,.75.19,1.58,1.58,0,0,0,1.11-.48,80.52,80.52,0,0,0,8.67-10.66l1.45-.48c4.89-1.65,8.42-2.83,15.79-2.37a36.11,36.11,0,0,1,11.32,3c.8.32,1.49.59,2.1.8l-1.34,17.19A28.18,28.18,0,0,0,276.19,156Z"/><path class="cls-2" d="M176.65,177.37a33.09,33.09,0,0,0,10.92,2.34l1.38,0a32.66,32.66,0,0,0,12.56-2.5h0l.63-.27a.5.5,0,1,0-.4-.91l-.61.26h0a32,32,0,0,1-24.1.12.5.5,0,0,0-.65.28A.49.49,0,0,0,176.65,177.37Z"/><path class="cls-2" d="M205.79,192.71a40.86,40.86,0,0,1-18.21,3.58,41.47,41.47,0,0,1-14.76-3.2.51.51,0,0,0-.66.27.49.49,0,0,0,.27.65,42.52,42.52,0,0,0,15.12,3.28l1.4,0a41.88,41.88,0,0,0,17.25-3.69.52.52,0,0,0,.25-.67A.49.49,0,0,0,205.79,192.71Z"/><path class="cls-2" d="M173.83,185.76a39.71,39.71,0,0,0,13.73,2.93c.45,0,.91,0,1.36,0a39.17,39.17,0,0,0,15.69-3.26l.59-.26a.5.5,0,0,0,.24-.67.49.49,0,0,0-.66-.24l-.58.26a38.09,38.09,0,0,1-16.61,3.15,38.72,38.72,0,0,1-13.38-2.86.5.5,0,0,0-.38.93Z"/><path class="cls-2" d="M189.2,31l.3,0a8.56,8.56,0,0,1,2.08,3,10.63,10.63,0,0,1,.6,1.78,9.56,9.56,0,0,1,.29,1.71A2.42,2.42,0,0,1,190.79,39c-1.5.3-3.06-1.26-3.5-3.47S187.7,31.28,189.2,31Z"/><path class="cls-2" d="M199.17,30.23a1.63,1.63,0,0,1,.76,0,8.44,8.44,0,0,1,1.42,2.57,7.16,7.16,0,0,1,.3,1,10.9,10.9,0,0,1,.26,1.55,2,2,0,0,1-1.43,1.44c-1.24.24-2.51-1-2.87-2.84S198,30.47,199.17,30.23Z"/></g><g id="Highlight_Dots" data-name="Highlight Dots"><g class="cls-5"><ellipse class="cls-2" cx="145.1" cy="93.04" rx="1.08" ry="1.89" transform="translate(-4.56 7.52) rotate(-2.92)"/></g><g class="cls-5"><ellipse class="cls-2" cx="149.12" cy="101.6" rx="1.08" ry="1.89" transform="translate(-4.99 7.74) rotate(-2.92)"/></g><g class="cls-5"><ellipse class="cls-2" cx="131.8" cy="43.04" rx="1.89" ry="1.08" transform="translate(-1.62 5.32) rotate(-2.3)"/></g><g class="cls-5"><ellipse class="cls-2" cx="127.49" cy="43.85" rx="0.94" ry="0.54" transform="translate(-6.9 33.12) rotate(-14.41)"/></g><g class="cls-5"><ellipse class="cls-2" cx="136.59" cy="43.04" rx="0.54" ry="0.94" transform="translate(92.06 179.16) rotate(-89.38)"/></g><g class="cls-5"><ellipse class="cls-2" cx="182.69" cy="25.04" rx="1.89" ry="1.08" transform="translate(-0.1 0.75) rotate(-0.23)"/></g><g class="cls-5"><ellipse class="cls-2" cx="178.93" cy="26.27" rx="0.94" ry="0.54" transform="translate(-1.48 38.87) rotate(-12.35)"/></g><g class="cls-5"><ellipse class="cls-2" cx="187.47" cy="25.22" rx="0.54" ry="0.94" transform="translate(153.48 211.3) rotate(-87.31)"/></g><g class="cls-5"><ellipse class="cls-2" cx="254.9" cy="39.42" rx="1.08" ry="1.89" transform="translate(168.78 282.55) rotate(-79.29)"/></g><g class="cls-5"><ellipse class="cls-2" cx="250.52" cy="39.24" rx="0.94" ry="0.54" transform="translate(-0.88 6.14) rotate(-1.4)"/></g><g class="cls-5"><ellipse class="cls-2" cx="259.56" cy="40.5" rx="0.54" ry="0.94" transform="translate(159.01 283.2) rotate(-76.36)"/></g><g class="cls-5"><ellipse class="cls-2" cx="147" cy="108.61" rx="1.08" ry="1.89" transform="translate(-5.35 7.64) rotate(-2.92)"/></g><g class="cls-5"><ellipse class="cls-2" cx="151.97" cy="115.48" rx="0.61" ry="1.07" transform="translate(-5.69 7.9) rotate(-2.92)"/></g><g class="cls-5"><ellipse class="cls-2" cx="177.47" cy="75.25" rx="1.08" ry="1.89" transform="translate(-12.86 44.7) rotate(-13.86)"/></g><g class="cls-5"><ellipse class="cls-2" cx="177.29" cy="84.71" rx="1.08" ry="1.89" transform="translate(-13.93 39.54) rotate(-12.25)"/></g><g class="cls-5"><ellipse class="cls-2" cx="182.01" cy="90.31" rx="1.08" ry="1.89" transform="translate(-15.39 42.18) rotate(-12.69)"/></g><g class="cls-5"><ellipse class="cls-2" cx="180.27" cy="98.61" rx="0.61" ry="1.07" transform="translate(-15.46 36.07) rotate(-10.96)"/></g><g class="cls-5"><ellipse class="cls-2" cx="239.49" cy="81.9" rx="1.89" ry="1.08" transform="translate(149.65 318.52) rotate(-88.09)"/></g><g class="cls-5"><ellipse class="cls-2" cx="236.74" cy="91.43" rx="1.89" ry="1.08" transform="translate(130.94 322.11) rotate(-86.48)"/></g><g class="cls-5"><ellipse class="cls-2" cx="239.85" cy="98.06" rx="1.89" ry="1.08" transform="translate(129.03 332.28) rotate(-86.92)"/></g><g class="cls-5"><ellipse class="cls-2" cx="235.91" cy="105.58" rx="1.07" ry="0.61" transform="translate(110.92 331.8) rotate(-85.19)"/></g><g class="cls-5"><ellipse class="cls-2" cx="143.23" cy="198.24" rx="1.08" ry="1.89" transform="translate(-9.92 7.56) rotate(-2.92)"/></g><g class="cls-5"><ellipse class="cls-2" cx="145.79" cy="193.91" rx="1.46" ry="0.84" transform="translate(-94.89 163.47) rotate(-45.85)"/></g><g class="cls-5"><ellipse class="cls-2" cx="144.14" cy="203.21" rx="0.84" ry="1.46" transform="translate(-58.89 58.81) rotate(-19.23)"/></g></g></svg>